<svg id="OBJECTS" xmlns="http://www.w3.org/2000/svg" width="50" height="40" xmlns:xlink="http://www.w3.org/1999/xlink" viewBox="0 0 696.71 433.58"><defs><style>.cls-1{fill:#dde3fc;}.cls-2{fill:#8395f0;}.cls-3{fill:#49496b;}.cls-28,.cls-4,.cls-41,.cls-42,.cls-43{fill:#fff;}.cls-4{opacity:0.56;}.cls-21,.cls-27,.cls-29,.cls-31,.cls-39,.cls-4,.cls-40,.cls-41,.cls-42,.cls-43,.cls-8{isolation:isolate;}.cls-5{fill:#99b0f6;}.cls-6{fill:#c0cef8;}.cls-7{fill:url(#linear-gradient);}.cls-8{font-size:25.44px;}.cls-48,.cls-8{fill:#323247;}.cls-39,.cls-41,.cls-42,.cls-43,.cls-8{font-family:Montserrat-Bold, Montserrat;font-weight:700;}.cls-9{fill:#b83d5d;}.cls-10{fill:#e3b5aa;}.cls-11{fill:#d78f97;}.cls-12,.cls-14,.cls-16,.cls-17,.cls-22,.cls-23,.cls-32,.cls-34,.cls-35,.cls-36,.cls-37,.cls-38,.cls-45,.cls-46,.cls-47,.cls-50,.cls-51,.cls-52{fill:none;}.cls-12{stroke:#c87e84;stroke-width:0.5px;}.cls-12,.cls-14,.cls-22,.cls-23,.cls-32,.cls-35,.cls-36,.cls-37,.cls-38,.cls-45,.cls-46,.cls-47,.cls-50,.cls-51,.cls-52{stroke-miterlimit:10;}.cls-13{fill:#c87e84;}.cls-14{stroke:#b83d5d;}.cls-15{fill:#36364f;}.cls-16,.cls-17,.cls-22{stroke:#fff;}.cls-16{stroke-miterlimit:10;stroke-width:4px;}.cls-17{stroke-miterlimit:10;stroke-width:4px;}.cls-18{fill:#9a304f;}.cls-19{fill:#c33e5d;}.cls-20,.cls-39{fill:#eba154;}.cls-21{fill:#d9751f;}.cls-21,.cls-31{opacity:0.5;}.cls-22{stroke-width:4px;}.cls-23{stroke:#dc831e;stroke-width:3px;}.cls-24{fill:#80abbd;}.cls-25{fill:#dedede;}.cls-26{fill:#4b7195;}.cls-27{fill:#5a93a0;}.cls-27,.cls-29{opacity:0.4;}.cls-29{fill:#a3d5e6;}.cls-30{fill:#47547c;}.cls-31{fill:#2b2b3f;}.cls-32,.cls-35,.cls-36,.cls-37,.cls-38,.cls-45,.cls-46,.cls-47,.cls-50,.cls-51,.cls-52{stroke:#fd783d;}.cls-32{stroke-dasharray:4;}.cls-33{fill:#64648e;}.cls-36{stroke-dasharray:3.83 3.83;}.cls-37{stroke-dasharray:4.12 4.12;}.cls-38{stroke-dasharray:3.89 3.89;}.cls-39{font-size:15.61px;}.cls-41,.cls-42,.cls-43{font-size:13.84px;}.cls-41{letter-spacing:-0.01em;}.cls-43{letter-spacing:-0.01em;}.cls-44{fill:#54b3cd;}.cls-45{stroke-dasharray:3.38 3.38;}.cls-46{stroke-dasharray:3.81 3.81;}.cls-47{stroke-dasharray:4.06 4.06;}.cls-49{fill:#fd783d;}.cls-50{stroke-dasharray:5.07 5.07;}.cls-51{stroke-dasharray:3.74 3.74;}.cls-52{stroke-dasharray:3.4 3.4;}.cls-53{fill:#fcfcfc;}</style><linearGradient id="linear-gradient" x1="-1645.49" y1="108.76" x2="-944.23" y2="108.76" gradientTransform="matrix(-1, 0.09, -0.09, -1, -937.8, 438.43)" gradientUnits="userSpaceOnUse"><stop offset="0" stop-color="#dbe1fc"/><stop offset="1" stop-color="#e9edfb"/></linearGradient></defs><title>code</title><path class="cls-1" d="M86.62,27.24c-1.5,9.49-2.81,19-4,28.56s-2.33,19.09-3.33,28.65c-2,19.13-3.57,38.3-4.54,57.5s-1.41,38.4-.77,57.62q.45,14.38,1.94,28.71a240.3,240.3,0,0,0,4.52,28.33h0a1.24,1.24,0,1,1-2.37.74,1.06,1.06,0,0,1,0-.19h0a242.93,242.93,0,0,1-4.42-28.65q-1.42-14.41-1.77-28.88c-.53-19.28,0-38.55,1.08-57.78s2.79-38.41,4.91-57.55q1.59-14.35,3.51-28.66C82.62,46.1,84,36.57,85.55,27.07a.53.53,0,0,1,.71-.24.52.52,0,0,1,.29.4Z" transform="translate(-0.01 0)"/><path class="cls-2" d="M487.72,401.35H667V365.44H487.72C491.56,365.44,491.56,401.35,487.72,401.35Z" transform="translate(-0.01 0)"/><path class="cls-3" d="M667,392.35V375.92c0-5.79-3.54-10.48-7.91-10.48H488.44a6.21,6.21,0,0,1-6.22-6.2v0h0a1.88,1.88,0,0,1,1.87-1.89H670.6c4.27,0,11.06,6.72,11.06,15v22.94c0,7.82-6.59,14.15-10.62,14.15H485.13a2.86,2.86,0,0,1-2.87-2.85v0a5.25,5.25,0,0,1,5.24-5.24H660.21C664,401.35,667,397.35,667,392.35Z" transform="translate(-0.01 0)"/><path class="cls-4" d="M662,373.12H493.93a.32.32,0,0,1-.32-.32h0a.32.32,0,0,1,.32-.32H662a.34.34,0,0,1,.32.32.32.32,0,0,1-.32.32Z" transform="translate(-0.01 0)"/><path class="cls-4" d="M662,378.45H493.93a.32.32,0,1,1,0-.64H662a.32.32,0,0,1,0,.64Z" transform="translate(-0.01 0)"/><path class="cls-4" d="M662,383.78H493.93a.33.33,0,0,1,0-.65H662a.33.33,0,0,1,0,.65Z" transform="translate(-0.01 0)"/><path class="cls-4" d="M662,389.1H493.93a.32.32,0,0,1,0-.64H662a.32.32,0,0,1,0,.64Z" transform="translate(-0.01 0)"/><path class="cls-4" d="M662,394.43H493.93a.33.33,0,0,1,0-.65H662a.33.33,0,0,1,0,.65Z" transform="translate(-0.01 0)"/><rect class="cls-2" x="505.42" y="318.22" width="161.3" height="38.94" rx="6.46"/><rect class="cls-5" x="629.54" y="322.7" width="18.95" height="29.99" rx="2.33"/><rect class="cls-5" x="619.64" y="322.7" width="7.11" height="29.99" rx="1.18"/><path class="cls-6" d="M676.21,213.88C671.3,236,637.91,363.13,522.92,349.72c0,0,2.23-90,151.07-138.15a1.86,1.86,0,0,1,2.24,1.35A1.84,1.84,0,0,1,676.21,213.88Z" transform="translate(-0.01 0)"/><path class="cls-1" d="M660.44,228.57c-3.79,6.09-7.78,12-11.87,17.85S640.24,258,635.9,263.71s-8.82,11.25-13.41,16.73-9.31,10.85-14.2,16.07-9.88,10.35-15.11,15.26-10.55,9.69-16.18,14.15a166.89,166.89,0,0,1-36.49,22.88,1.64,1.64,0,0,1-1.33-3h0a164.53,164.53,0,0,0,36-22.07c5.6-4.34,10.94-9,16.16-13.83s10.26-9.84,15.17-15,9.66-10.44,14.3-15.84,9.14-10.9,13.54-16.5,8.66-11.3,12.81-17.09,8.2-11.66,12-17.64h0a.69.69,0,0,1,.94-.26l.06,0a.71.71,0,0,1,.29.95Z" transform="translate(-0.01 0)"/><path class="cls-5" d="M515,324.05s16-80.47,41.38-111.55c22.67-27.73,57.21-64.62,64.37-72.24a.79.79,0,0,1,1.37.54c.06,11.71-2.21,74-55.09,124.79C508.35,322,515,324.05,515,324.05Z" transform="translate(-0.01 0)"/><path class="cls-1" d="M612,164.35c-2.73,5.15-5.61,10.19-8.55,15.2s-6,10-9.12,14.87q-9.35,14.72-19.74,28.74-5.22,7-10.73,13.76t-11.39,13.22q-5.91,6.44-12.2,12.5c-4.2,4-8.61,7.85-13.16,11.49a.64.64,0,0,1-.9-.1.63.63,0,0,1,.09-.9h0c4.54-3.59,8.9-7.4,13.13-11.36s8.25-8.13,12.19-12.38,7.72-8.65,11.42-13.12,7.26-9.05,10.75-13.68q10.44-13.93,19.84-28.61,4.7-7.32,9.16-14.8c3-5,5.87-10,8.61-15.13h0a.33.33,0,0,1,.59.31Z" transform="translate(-0.01 0)"/><path class="cls-7" d="M548.72,22.65c58,36.55-9.36,94.69,30.28,114.6s204.89,87.89,57.92,189.83c-73.76,51.16-158.37,107.82-275.23,60.61S257,345.15,168.8,390.35-20.92,384.14,5.05,311.58s46.82-73.32,5.33-115S56.27-27,193.56,58.41s109.35,57.17,158.88,3.19C379.2,32.35,457.11-35.1,548.72,22.65Z" transform="translate(-0.01 0)"/><text class="cls-8" transform="translate(290.65 248.21)">&lt;/&gt;</text><path class="cls-9" d="M444.5,154.14c-1.49,32.66-33.6,57.69-57.65,59.21-31.78,2-54.49-26.67-57.66-59.21-2.75-28.2,7.25-27.79,14.73-39.53,9-14.24,25.88-22.11,42.93-22.11C418.69,92.5,446.51,110.19,444.5,154.14Z" transform="translate(-0.01 0)"/><rect class="cls-10" x="364.49" y="210.29" width="44.69" height="55.94"/><path class="cls-10" d="M437,177.66c8-12.09,18.11-12.62,22.35,1.68s-9.74,26.08-21.12,21.74S437,177.66,437,177.66Z" transform="translate(-0.01 0)"/><path class="cls-11" d="M446.44,178c5.34-1,8.08,14.93-3.63,15.46l2.4-5.55L443,183.27Z" transform="translate(-0.01 0)"/><path class="cls-12" d="M441.06,195.62c6.83-7.28,1.9-12.35,1.9-12.35s6.5-13.32,9.1-3.11" transform="translate(-0.01 0)"/><path class="cls-10" d="M336.28,177.66c-8-12.09-18.12-12.62-22.35,1.68s9.74,26.08,21.12,21.74S336.28,177.66,336.28,177.66Z" transform="translate(-0.01 0)"/><path class="cls-11" d="M326.87,178c-5.34-1-8.08,14.93,3.63,15.46l-2.41-5.55,2.26-4.62Z" transform="translate(-0.01 0)"/><path class="cls-12" d="M332.25,195.62c-6.82-7.28-1.9-12.35-1.9-12.35s-6.49-13.32-9.1-3.11" transform="translate(-0.01 0)"/><path class="cls-13" d="M409.19,211.53v20.82C393.13,254.11,364.5,247,364.5,247l.5-35.5Z" transform="translate(-0.01 0)"/><path class="cls-10" d="M371.16,119.16h31.35a32.61,32.61,0,0,1,32.62,32.62v35.3a48.29,48.29,0,0,1-48.3,48.3h0a48.29,48.29,0,0,1-48.3-48.3v-35.3a32.61,32.61,0,0,1,32.62-32.62Z" transform="translate(-0.01 0)"/><path class="cls-14" d="M394.28,193.35a7.44,7.44,0,0,1-14.84,0" transform="translate(-0.01 0)"/><path class="cls-9" d="M343.65,121.35s-8.46-14,2.13-26.39C345.78,94.93,353.44,109,343.65,121.35Z" transform="translate(-0.01 0)"/><path class="cls-9" d="M348,118s-11.78,11.38-26.2,3.81C321.75,121.8,333.79,111.23,348,118Z" transform="translate(-0.01 0)"/><path class="cls-15" d="M367.66,176.06c0,4-1.7,7.23-3.79,7.23s-3.8-3.24-3.8-7.23,1.7-7.23,3.8-7.23S367.66,172.06,367.66,176.06Z" transform="translate(-0.01 0)"/><circle class="cls-16" cx="361.9" cy="175.51" r="19.42" transform="translate(97.64 478.73) rotate(-74.8)"/><path class="cls-15" d="M413.62,176.06c0,4-1.7,7.23-3.8,7.23s-3.79-3.24-3.79-7.23,1.7-7.23,3.79-7.23S413.62,172.06,413.62,176.06Z" transform="translate(-0.01 0)"/><circle class="cls-17" cx="411.77" cy="175.51" r="19.42" transform="translate(132.73 525.5) rotate(-74.52)"/><path class="cls-9" d="M344.53,132.94s30.69-16.17,51.08-4.45,22.68,35.94,42.81,29.67c0,0,15.29-6.73-1.53-30.18s-28.33-28-50.22-22.93S350.52,114.11,344.53,132.94Z" transform="translate(-0.01 0)"/><path class="cls-18" d="M343.36,132.71s10.13-13.43,24.3-17,29.87,13.89,29.87,13.89S361.2,124.44,343.36,132.71Z" transform="translate(-0.01 0)"/><path class="cls-9" d="M338.62,149.6s3.42,24.93,0,40.14C338.62,189.74,333.63,151.09,338.62,149.6Z" transform="translate(-0.01 0)"/><path class="cls-9" d="M434.79,149.6s-3.41,24.93,0,40.14C434.79,189.74,439.79,151.09,434.79,149.6Z" transform="translate(-0.01 0)"/><path class="cls-9" d="M372.52,147.66c-5.27-2.52-14.64-5.29-23.32.89a2,2,0,0,0,.85,3.64,65,65,0,0,0,11.31.94,48,48,0,0,0,10.79-1.68,2,2,0,0,0,.37-3.79Z" transform="translate(-0.01 0)"/><path class="cls-9" d="M423.44,147.66c-5.27-2.52-14.64-5.29-23.33.89a2,2,0,0,0,.86,3.64,65,65,0,0,0,11.31.94,48,48,0,0,0,10.79-1.68,2,2,0,0,0,.37-3.79Z" transform="translate(-0.01 0)"/><path class="cls-19" d="M403.18,210.84a16.3,16.3,0,0,1-1.9,2.76c-2.58,3.11-7,6.09-14.48,6.23h-.55c-7-.14-11.38-2.79-14-5.72a15.3,15.3,0,0,1-2.34-3.3,16.36,16.36,0,0,1-1.57-4.29l36.47.07A15.45,15.45,0,0,1,403.18,210.84Z" transform="translate(-0.01 0)"/><path class="cls-15" d="M403.18,210.84a16.3,16.3,0,0,1-1.9,2.76,34.31,34.31,0,0,0-29.06.49,15.3,15.3,0,0,1-2.34-3.3,16.36,16.36,0,0,1-1.57-4.29l36.47.07A15.08,15.08,0,0,1,403.18,210.84Z" transform="translate(-0.01 0)"/><path class="cls-20" d="M541.87,405.2l-327,.34s6.1-12.76,14.88-29.67l2-3.83c12-22.87,28.12-51.76,40.71-67.43,14.5-18,48.76-30.9,72-37.93,13.56-4.09,23.38-6.2,23.38-6.2h37.6s8.82,1.89,21.28,5.58c23.25,6.87,58,21,74.13,38.55a85.6,85.6,0,0,1,10,13.71C530.71,351.29,541.87,405.2,541.87,405.2Z" transform="translate(-0.01 0)"/><path class="cls-21" d="M541.87,405.2l-327,.34s6.1-12.76,14.88-29.67c163.16,48,249.14-30.64,268.76-51.92a17.37,17.37,0,0,1,12.28-5.6h.08C530.71,351.29,541.87,405.2,541.87,405.2Z" transform="translate(-0.01 0)"/><line class="cls-22" x1="381.7" y1="178.82" x2="391.96" y2="178.82"/><path class="cls-10" d="M426.75,266.05c-40.47,44.53-82.22.63-82.22.63,13.56-4.1,23.38-6.21,23.38-6.21h37.53S414.29,262.35,426.75,266.05Z" transform="translate(-0.01 0)"/><line class="cls-23" x1="297.47" y1="354.81" x2="297.47" y2="405.59"/><line class="cls-23" x1="297.47" y1="387.18" x2="283.83" y2="369.79"/><line class="cls-23" x1="475.27" y1="354.81" x2="475.27" y2="405.59"/><line class="cls-23" x1="475.27" y1="387.18" x2="487.38" y2="371.74"/><path class="cls-23" d="M342.59,286s50.19,34.27,84.16-1.67" transform="translate(-0.01 0)"/><path class="cls-9" d="M343.37,111.94C354.64,64.58,467.52,69.79,446.52,162c-6.3,27.62-52.3-62.78-92-40.61a7.8,7.8,0,0,1-9.15-1.09h0C343.08,118.17,342.64,115,343.37,111.94Z" transform="translate(-0.01 0)"/><path class="cls-24" d="M405.37,405.23h-.11a5.75,5.75,0,0,1-.83,0h-219a9.22,9.22,0,0,1-9.2-9.21v-.1l-34.1-96.35a11.31,11.31,0,0,1,10.66-15.09H295A11.31,11.31,0,0,1,305.62,292l36.75,103.82.06.18h62.21C410.35,396.08,411,404.62,405.37,405.23Z" transform="translate(-0.01 0)"/><ellipse class="cls-25" cx="226.47" cy="348.04" rx="16.49" ry="20.02" transform="translate(-100.89 92.58) rotate(-18.98)"/><path class="cls-26" d="M404.64,396.08h-62.2l-.05-.19L305.62,292.07A11.3,11.3,0,0,0,295,284.54H290.2s10.62.69,13.28,10.2,39,110.35,39,110.35l2.68.19h60.15C411,404.73,410.44,396.08,404.64,396.08Z" transform="translate(-0.01 0)"/><path class="cls-27" d="M405.37,405.23h-.11a5.75,5.75,0,0,1-.83,0h-219a9.16,9.16,0,0,1-7.19-3.47C307.69,412.88,295,284.48,295,284.48A11.31,11.31,0,0,1,305.62,292l36.75,103.82.06.18h61.23C404.32,399.11,404.9,402.16,405.37,405.23Z" transform="translate(-0.01 0)"/><path class="cls-26" d="M145,341.68v3.22c-5.82.67-7.25,5.6-7.25,11.59v2c0,6,1.43,10.92,7.25,11.59v3.2H33.58A8.27,8.27,0,0,1,25.31,365V350a8.28,8.28,0,0,1,8.27-8.29h0Z" transform="translate(-0.01 0)"/><path class="cls-28" d="M143.24,366.77a2.41,2.41,0,0,1-1.35,3.13,2.58,2.58,0,0,1-.91.17l-106.45.07V344.83L141,344.9a2.39,2.39,0,0,1,1.59.61,2.32,2.32,0,0,1,.67,2.69c-.89,2.11-.85,5-.85,8.29v2C142.44,361.73,142.35,364.66,143.24,366.77Z" transform="translate(-0.01 0)"/><path class="cls-29" d="M142.57,345.51c-2,.11-96.11,5-102.56,14.11-1.75,2.48-3.73,3.86-5.48,4.14V344.83L141,344.9A2.39,2.39,0,0,1,142.57,345.51Z" transform="translate(-0.01 0)"/><path class="cls-26" d="M30.65,341.68H40v31.59H30.65a5.34,5.34,0,0,1-5.34-5.34V347A5.34,5.34,0,0,1,30.65,341.68Z" transform="translate(-0.01 0)"/><path class="cls-29" d="M143.24,366.77a2.41,2.41,0,0,1-1.35,3.13,2.58,2.58,0,0,1-.91.17H119.72c16.89-1.92,15.83-15.79,15.83-15.79.19-.66-13.34-8.8-13.11-9.4H141a2.39,2.39,0,0,1,1.59.61,2.32,2.32,0,0,1,.67,2.69c-.89,2.11-.85,5-.85,8.29v2C142.44,361.73,142.35,364.66,143.24,366.77Z" transform="translate(-0.01 0)"/><rect class="cls-29" x="40.18" y="355.63" width="102.19" height="2.28"/><rect class="cls-29" x="40.18" y="350.49" width="102.19" height="2.28"/><rect class="cls-29" x="40.18" y="362.17" width="102.19" height="2.28"/><polygon class="cls-19" points="109.47 365.41 104.03 359.99 98.59 365.41 98.59 350.49 109.47 350.49 109.47 365.41"/><path class="cls-19" d="M156.89,373.17v3.18c-5.83.67-7.25,5.59-7.25,11.59v2c0,6,1.42,10.93,7.25,11.59v3.21H45.5a8.28,8.28,0,0,1-8.28-8.27v-15a8.3,8.3,0,0,1,8.28-8.29Z" transform="translate(-0.01 0)"/><path class="cls-28" d="M155.15,398.25a2.41,2.41,0,0,1-1.35,3.13,2.58,2.58,0,0,1-.91.17l-106.45.08V376.35l106.45.08a2.41,2.41,0,0,1,1.6.6,2.33,2.33,0,0,1,.66,2.7c-.88,2.11-.85,5-.85,8.29v2C154.3,393.22,154.27,396.15,155.15,398.25Z" transform="translate(-0.01 0)"/><path class="cls-29" d="M154.49,377c-2.05.11-96.12,5-102.56,14.12-1.75,2.48-3.74,3.86-5.49,4.14v-18.9l106.45.08A2.46,2.46,0,0,1,154.49,377Z" transform="translate(-0.01 0)"/><path class="cls-19" d="M42.56,373.17h9.36v31.59H42.56a5.34,5.34,0,0,1-5.34-5.34V378.51A5.34,5.34,0,0,1,42.56,373.17Z" transform="translate(-0.01 0)"/><path class="cls-29" d="M155.15,398.25a2.41,2.41,0,0,1-1.35,3.13,2.58,2.58,0,0,1-.91.17H131.64c16.88-1.9,15.8-15.77,15.8-15.77.18-.67-13.34-8.8-13.11-9.41h18.53a2.41,2.41,0,0,1,1.6.6,2.33,2.33,0,0,1,.66,2.7c-.88,2.11-.85,5-.85,8.29v2C154.3,393.22,154.27,396.15,155.15,398.25Z" transform="translate(-0.01 0)"/><rect class="cls-29" x="52.1" y="387.12" width="102.19" height="2.28"/><rect class="cls-29" x="52.1" y="381.98" width="102.19" height="2.28"/><rect class="cls-29" x="52.1" y="393.66" width="102.19" height="2.28"/><polygon class="cls-19" points="143.12 398.88 137.38 393.16 131.63 398.88 131.63 383.12 143.12 383.12 143.12 398.88"/><path class="cls-30" d="M696.29,418.49v2.31a12.79,12.79,0,0,1-12.79,12.78H29.44A12.8,12.8,0,0,1,17.06,424h0a12.81,12.81,0,0,1-.4-3.2v-2.31a12.78,12.78,0,0,1,12.75-12.81h654a12.79,12.79,0,0,1,12.85,12.73Z" transform="translate(-0.01 0)"/><path class="cls-31" d="M696.29,418.49v2.31a12.79,12.79,0,0,1-12.79,12.78H29.44A12.8,12.8,0,0,1,17.06,424h0c-.27-2-.4-3.2-.4-3.2,366.78,12.75,666.84-15.12,666.84-15.12A12.79,12.79,0,0,1,696.29,418.49Z" transform="translate(-0.01 0)"/><path class="cls-20" d="M680,68.08v-.47a29.31,29.31,0,0,0,3.59-2,30.16,30.16,0,0,0,3.76-3l-.26-1A25.34,25.34,0,0,0,686,58.22c-.23-.54-.5-1.07-.76-1.6a11.79,11.79,0,0,0-.85-1.56l-.54-.89a26.68,26.68,0,0,0-4.8.5,25.39,25.39,0,0,0-3.91,1.15l-.33-.33a25.24,25.24,0,0,0,1.67-8.72l-.89-.54a10.39,10.39,0,0,0-1.57-.86c-.53-.26-1.06-.53-1.61-.76a26.52,26.52,0,0,0-3.37-1.1l-1-.26A28.6,28.6,0,0,0,665,47a27.38,27.38,0,0,0-2,3.59h-.46a25.69,25.69,0,0,0-2-3.59,27.8,27.8,0,0,0-3-3.76l-1,.26a26.67,26.67,0,0,0-3.38,1.1c-.54.23-1.07.5-1.61.76a10.39,10.39,0,0,0-1.57.86l-.89.54a27.52,27.52,0,0,0,.51,4.79,27,27,0,0,0,1.15,3.92l-.33.33a25.91,25.91,0,0,0-4-1.15,26.68,26.68,0,0,0-4.8-.5l-.55.89a13.07,13.07,0,0,0-.85,1.56c-.25.53-.52,1.06-.75,1.6a25.08,25.08,0,0,0-1,3.39l-.26,1a30.16,30.16,0,0,0,3.76,3,27.26,27.26,0,0,0,3.58,2v.47a26.16,26.16,0,0,0-3.58,2,27.8,27.8,0,0,0-3.76,3l.26,1a25.2,25.2,0,0,0,1.11,3.38c.23.54.5,1.07.75,1.61a15.55,15.55,0,0,0,.85,1.55l.55.9a27.62,27.62,0,0,0,4.8-.5,25.43,25.43,0,0,0,3.91-1.16q.17.18.33.33a27,27,0,0,0-1.15,3.92,28.64,28.64,0,0,0-.51,4.8l.89.55a11.84,11.84,0,0,0,1.57.84c.54.26,1.07.53,1.61.76a23.81,23.81,0,0,0,3.38,1.1l1,.26a24.88,24.88,0,0,0,5-7.34H663a29.31,29.31,0,0,0,2,3.59,27.71,27.71,0,0,0,3,3.75l1-.26a23.28,23.28,0,0,0,3.37-1.1c.55-.23,1.08-.5,1.61-.76a11.84,11.84,0,0,0,1.57-.84l.89-.55a25.26,25.26,0,0,0-1.65-8.72l.33-.33A25.43,25.43,0,0,0,679,81a27.62,27.62,0,0,0,4.8.5l.54-.9a11.08,11.08,0,0,0,.85-1.55c.26-.54.53-1.07.76-1.61a25.2,25.2,0,0,0,1.11-3.38l.26-1a29.27,29.27,0,0,0-3.76-3A27.43,27.43,0,0,0,680,68.08Zm-17.24,8A8.25,8.25,0,1,1,671,67.83h0a8.25,8.25,0,0,1-8.24,8.26h0Z" transform="translate(-0.01 0)"/><polyline class="cls-32" points="639.07 80.57 583.38 80.57 583.38 135.42 598.85 135.42"/><rect class="cls-25" x="600.17" y="164.77" width="30.61" height="5.47"/><rect class="cls-25" x="600.17" y="174.89" width="47.07" height="5.47"/><rect class="cls-25" x="600.17" y="185.02" width="16.03" height="5.47"/><rect class="cls-20" x="622.74" y="185.02" width="16.03" height="5.47"/><rect class="cls-20" x="644.51" y="185.02" width="23.02" height="5.47"/><rect class="cls-20" x="653.55" y="174.89" width="13.98" height="5.47"/><rect class="cls-20" x="636.91" y="164.77" width="30.61" height="5.47"/><rect class="cls-28" x="677.72" y="129.34" width="1.02" height="60.98"/><rect class="cls-28" x="600.64" y="131.58" width="31.48" height="5.63"/><rect class="cls-28" x="600.64" y="141.99" width="48.4" height="5.63"/><rect class="cls-25" x="600.64" y="152.4" width="16.48" height="5.63"/><rect class="cls-20" x="623.85" y="152.4" width="16.48" height="5.63"/><rect class="cls-20" x="646.24" y="152.4" width="23.67" height="5.63"/><rect class="cls-20" x="655.53" y="141.99" width="14.38" height="5.63"/><rect class="cls-20" x="638.43" y="131.58" width="31.48" height="5.63"/><rect class="cls-3" x="470.54" y="26.72" width="90.59" height="178.02"/><rect class="cls-25" x="480.86" y="64.58" width="68.02" height="7.22"/><rect class="cls-25" x="480.86" y="80.57" width="45.02" height="7.22"/><rect class="cls-20" x="532.56" y="80.57" width="16.31" height="7.22"/><rect class="cls-20" x="506.73" y="96.57" width="42.15" height="7.22"/><rect class="cls-25" x="480.86" y="96.57" width="19.74" height="7.22"/><rect class="cls-25" x="480.86" y="112.57" width="35.95" height="7.22"/><rect class="cls-20" x="522.35" y="112.57" width="26.53" height="7.22"/><rect class="cls-20" x="500.6" y="128.56" width="48.28" height="7.22"/><rect class="cls-25" x="480.86" y="128.56" width="14.59" height="7.22"/><rect class="cls-25" x="480.86" y="144.56" width="29.19" height="7.22"/><rect class="cls-20" x="514.87" y="144.56" width="34.01" height="7.22"/><path class="cls-20" d="M546.88,187.19v2l-7.44,2.87v-2l5.2-1.89-5.2-1.82v-2Z" transform="translate(-0.01 0)"/><path class="cls-20" d="M525.72,184.35v2l-5.21,1.91,5.21,1.89v2l-7.45-2.83v-2Z" transform="translate(-0.01 0)"/><path class="cls-20" d="M534.52,178.88h2.33l-5.53,15.78H529Z" transform="translate(-0.01 0)"/><path class="cls-20" d="M512.7,48.27v2.66l-9.76,3.71V52.08l6.83-2.48-6.83-2.5V44.56Z" transform="translate(-0.01 0)"/><path class="cls-20" d="M494.76,44.56V47.1l-6.83,2.5,6.83,2.48v2.56L485,50.93V48.27Z" transform="translate(-0.01 0)"/><path class="cls-33" d="M51.36,209.1A22.31,22.31,0,0,0,45,204.68l-.13-.06a22.78,22.78,0,0,0-18.22-.27l-.46.2a22.76,22.76,0,1,0,25.22,4.55Zm-9.52,30.63A15.77,15.77,0,0,1,21.66,217.6a.31.31,0,0,1,.05-.1A15.73,15.73,0,0,1,29,210.9a16.5,16.5,0,0,1,1.82-.67l.19-.06a15.71,15.71,0,0,1,9.45.18h0a15.94,15.94,0,0,1,6.72,4.41,15.11,15.11,0,0,1,2.67,4.12,16,16,0,0,1,1,2.92A15.81,15.81,0,0,1,41.84,239.73Z" transform="translate(-0.01 0)"/><path class="cls-20" d="M45,204.68A22.63,22.63,0,0,1,57.25,219l-6.45,2.86a16,16,0,0,0-1-2.92,15.11,15.11,0,0,0-2.67-4.12,16,16,0,0,0-6.69-4.42h0l4.42-5.73" transform="translate(-0.01 0)"/><line class="cls-34" x1="44.94" y1="204.67" x2="40.42" y2="210.36"/><path class="cls-9" d="M40.44,210.35h0a15.74,15.74,0,0,0-9.41-.18l-.19.06-4.24-5.88a22.78,22.78,0,0,1,18.22.28" transform="translate(-0.01 0)"/><line class="cls-35" x1="37.21" y1="248.06" x2="37.21" y2="250.06"/><line class="cls-36" x1="37.21" y1="253.89" x2="37.21" y2="282.59"/><polyline class="cls-35" points="37.22 284.51 37.22 286.51 39.22 286.51"/><line class="cls-37" x1="43.33" y1="286.51" x2="98.89" y2="286.51"/><polyline class="cls-35" points="100.94 286.51 102.94 286.51 102.94 284.51"/><line class="cls-38" x1="102.94" y1="280.61" x2="102.94" y2="251.4"/><line class="cls-35" x1="102.94" y1="249.45" x2="102.94" y2="247.45"/><rect class="cls-3" x="78.95" y="15.64" width="192.85" height="229.92"/><rect class="cls-33" x="78.95" y="4.44" width="192.85" height="29.18"/><path class="cls-20" d="M249.5,229.75v1.89l-6.94,2.64v-1.82l4.86-1.76-4.86-1.78v-1.81Z" transform="translate(-0.01 0)"/><path class="cls-20" d="M229.78,227.11v1.81l-4.85,1.78,4.85,1.76v1.82l-6.93-2.64v-1.89Z" transform="translate(-0.01 0)"/><text class="cls-39" transform="translate(233.33 235.14)">/</text><path class="cls-20" d="M124.66,52.23v2.36L116,57.88V55.61l6-2.2-6-2.21V48.94Z" transform="translate(-0.01 0)"/><path class="cls-20" d="M108.76,48.94V51.2l-6,2.21,6,2.2v2.27l-8.65-3.29V52.23Z" transform="translate(-0.01 0)"/><g class="cls-40"><text class="cls-41" transform="translate(90.66 25.22)">W</text><text class="cls-42" transform="translate(106.55 25.22)">EB D</text><text class="cls-43" transform="translate(141.78 25.22)">E</text><text class="cls-41" transform="translate(150.93 25.22)">V</text><text class="cls-42" transform="translate(161.05 25.22)">E</text><text class="cls-43" transform="translate(170.34 25.22)">L</text><text class="cls-42" transform="translate(178.54 25.22)">O</text><text class="cls-43" transform="translate(190.22 25.22)">P</text><text class="cls-42" transform="translate(200.22 25.22)">ING</text></g><rect class="cls-44" x="112.29" y="71.9" width="56.69" height="10.38"/><rect class="cls-20" x="176.97" y="71.9" width="28.34" height="10.38"/><rect class="cls-25" x="211.84" y="71.9" width="39.04" height="10.38"/><rect class="cls-44" x="112.29" y="90.43" width="26.46" height="10.38"/><rect class="cls-20" x="145.95" y="90.43" width="45.19" height="10.38"/><rect class="cls-25" x="198.5" y="90.43" width="52.37" height="10.38"/><rect class="cls-44" x="112.29" y="108.97" width="34.83" height="10.38"/><rect class="cls-20" x="152.79" y="108.97" width="65.51" height="10.38"/><rect class="cls-25" x="225.32" y="108.97" width="25.56" height="10.38"/><rect class="cls-44" x="112.29" y="127.5" width="43.91" height="10.38"/><rect class="cls-20" x="162.69" y="127.5" width="42.62" height="10.38"/><rect class="cls-25" x="211.84" y="127.5" width="39.04" height="10.38"/><rect class="cls-44" x="112.29" y="146.04" width="19.26" height="10.38"/><rect class="cls-20" x="138.03" y="146.04" width="38.16" height="10.38"/><rect class="cls-25" x="182.13" y="146.04" width="68.75" height="10.38"/><rect class="cls-44" x="112.29" y="164.57" width="55.07" height="10.38"/><rect class="cls-20" x="174.21" y="164.57" width="16.93" height="10.38"/><rect class="cls-25" x="198.5" y="164.57" width="52.37" height="10.38"/><rect class="cls-44" x="112.29" y="183.1" width="71.71" height="10.38"/><rect class="cls-20" x="190.05" y="183.1" width="29.34" height="10.38"/><rect class="cls-25" x="225.32" y="183.1" width="25.56" height="10.38"/><rect class="cls-44" x="112.29" y="201.64" width="21.96" height="10.38"/><rect class="cls-20" x="140.64" y="201.64" width="26.73" height="10.38"/><rect class="cls-25" x="174.21" y="201.64" width="76.67" height="10.38"/><rect class="cls-25" x="258.46" y="71.9" width="2.11" height="140.12"/><circle class="cls-25" cx="94.47" cy="77.09" r="5.19"/><circle class="cls-25" cx="94.47" cy="95.62" r="5.19"/><circle class="cls-25" cx="94.47" cy="114.16" r="5.19"/><circle class="cls-25" cx="94.47" cy="132.69" r="5.19"/><circle class="cls-25" cx="94.47" cy="151.23" r="5.19"/><circle class="cls-25" cx="94.47" cy="169.76" r="5.19"/><circle class="cls-25" cx="94.47" cy="188.29" r="5.19"/><circle class="cls-25" cx="94.47" cy="206.83" r="5.19"/><path class="cls-9" d="M263.23,20.65a5.3,5.3,0,1,1-5.3-5.3h0a5.29,5.29,0,0,1,5.3,5.28Z" transform="translate(-0.01 0)"/><path class="cls-28" d="M250.14,20.54a5.34,5.34,0,1,1-5.35-5.33h0a5.33,5.33,0,0,1,5.34,5.32Z" transform="translate(-0.01 0)"/><rect class="cls-30" x="297.47" y="42.68" width="18.68" height="5.23"/><rect class="cls-33" x="297.47" y="33.36" width="57.15" height="5.23"/><line class="cls-35" x1="330.49" y1="48.91" x2="330.49" y2="50.91"/><line class="cls-45" x1="330.49" y1="54.28" x2="330.49" y2="66.1"/><polyline class="cls-35" points="330.5 67.79 330.5 69.79 332.5 69.79"/><line class="cls-46" x1="336.3" y1="69.79" x2="395.34" y2="69.79"/><polyline class="cls-35" points="397.25 69.79 399.25 69.79 399.25 67.79"/><line class="cls-47" x1="399.24" y1="63.73" x2="399.24" y2="57.65"/><line class="cls-35" x1="399.24" y1="55.62" x2="399.24" y2="53.62"/><path class="cls-33" d="M414.44,32.35a16,16,0,0,0-.74-2,15.68,15.68,0,0,0-7.8-7.88h-.09a15.65,15.65,0,0,0-12.63-.2l-.32.14A15.84,15.84,0,1,0,414.81,39.9,15.57,15.57,0,0,0,414.44,32.35ZM403.72,46.72a11,11,0,0,1-14.46-5.54,11.43,11.43,0,0,1-.51-1.38,10.89,10.89,0,0,1,1-8.43V31.3a10.84,10.84,0,0,1,5.05-4.58,9.5,9.5,0,0,1,1.26-.46.29.29,0,0,1,.13,0,10.86,10.86,0,0,1,6.53.12h0a10.71,10.71,0,0,1,6.57,5.88,10.71,10.71,0,0,1,.68,2,11,11,0,0,1-6.21,12.43Z" transform="translate(-0.01 0)"/><path class="cls-9" d="M414.73,39.8h-5a10.67,10.67,0,0,0-.5-7.51,10.61,10.61,0,0,0-1.79-2.88,10.86,10.86,0,0,0-4.7-3.06h0a10.86,10.86,0,0,0-6.53-.12.29.29,0,0,0-.13,0,9.5,9.5,0,0,0-1.26.46,10.86,10.86,0,0,0-5.07,4.66v.07a10.89,10.89,0,0,0-1,8.43h-5a15.8,15.8,0,0,1,9.08-17.5l.32-.14a15.65,15.65,0,0,1,12.63.2.14.14,0,0,1,.09,0,15.68,15.68,0,0,1,7.8,7.88,16,16,0,0,1,.74,2A15.53,15.53,0,0,1,414.73,39.8Z" transform="translate(-0.01 0)"/><rect class="cls-33" x="319.89" y="42.68" width="34.73" height="5.23"/><rect class="cls-28" x="26.94" y="56.29" width="20.54" height="9.8"/><rect class="cls-28" x="26.94" y="73.42" width="20.54" height="9.8"/><rect class="cls-20" x="26.94" y="90.54" width="20.54" height="9.8"/><rect class="cls-20" x="26.94" y="107.67" width="20.54" height="9.8"/><rect class="cls-20" x="26.94" y="124.79" width="20.54" height="9.8"/><rect class="cls-20" x="26.94" y="141.91" width="20.54" height="9.8"/><rect class="cls-20" x="26.94" y="159.04" width="20.54" height="9.8"/><path class="cls-48" d="M627.93,249v-.4A24,24,0,0,0,631,247a24.91,24.91,0,0,0,3.21-2.59l-.22-.88a22.66,22.66,0,0,0-.94-2.89c-.2-.46-.43-.92-.65-1.37a9.53,9.53,0,0,0-.73-1.33l-.46-.77a23.58,23.58,0,0,0-4.11.43,21.73,21.73,0,0,0-3.34,1l-.29-.29a21.85,21.85,0,0,0,1-3.35,22.56,22.56,0,0,0,.44-4.1l-.77-.46a8.6,8.6,0,0,0-1.33-.73c-.46-.22-.91-.45-1.38-.65a21.18,21.18,0,0,0-2.89-.94l-.87-.23a26,26,0,0,0-2.6,3.22,24,24,0,0,0-1.67,3.07H613a20.69,20.69,0,0,0-1.67-3.07,25,25,0,0,0-2.59-3.22l-.87.23a20.88,20.88,0,0,0-2.9.94c-.46.2-.91.43-1.38.65a9.53,9.53,0,0,0-1.33.73l-.77.46a24.49,24.49,0,0,0,.44,4.1,21.85,21.85,0,0,0,1,3.35l-.29.29a22.9,22.9,0,0,0-3.34-1,23.69,23.69,0,0,0-4.11-.43l-.47.77a11.46,11.46,0,0,0-.73,1.33c-.21.45-.44.91-.64,1.37a22.66,22.66,0,0,0-.94,2.89l-.22.88A24.25,24.25,0,0,0,595.4,247a22.76,22.76,0,0,0,3.06,1.68v.4a21.1,21.1,0,0,0-3.06,1.67,24.25,24.25,0,0,0-3.21,2.59l.22.87a22.3,22.3,0,0,0,.94,2.9c.2.46.43.91.64,1.37a13.18,13.18,0,0,0,.73,1.33l.47.77a23.69,23.69,0,0,0,4.11-.43,22.9,22.9,0,0,0,3.34-1l.29.29a22.9,22.9,0,0,0-1,3.34,24.49,24.49,0,0,0-.44,4.1l.77.48a11.38,11.38,0,0,0,1.33.72c.47.22.92.45,1.38.65a20.88,20.88,0,0,0,2.9.94l.87.22a24.91,24.91,0,0,0,2.59-3.21,21.2,21.2,0,0,0,1.67-3.07h.4a24,24,0,0,0,1.67,3.07,25.87,25.87,0,0,0,2.6,3.21l.87-.22a21.18,21.18,0,0,0,2.89-.94c.47-.2.92-.43,1.38-.65a11.38,11.38,0,0,0,1.33-.72l.77-.48a22.56,22.56,0,0,0-.44-4.1,22.9,22.9,0,0,0-1-3.34c.1-.09.19-.19.29-.29a21.73,21.73,0,0,0,3.34,1,23.58,23.58,0,0,0,4.11.43l.46-.77a9.53,9.53,0,0,0,.73-1.33c.22-.46.45-.91.65-1.37a22.3,22.3,0,0,0,.94-2.9l.22-.87a24.91,24.91,0,0,0-3.21-2.59A22.81,22.81,0,0,0,627.93,249Zm-14.75,6.85a7.06,7.06,0,1,1,7.06-7.06h0A7.06,7.06,0,0,1,613.18,255.89Z" transform="translate(-0.01 0)"/><rect class="cls-9" x="553.75" y="222.83" width="9.32" height="41.97"/><rect class="cls-33" x="540" y="241.32" width="9.99" height="23.48"/><rect class="cls-49" x="526.17" y="248.83" width="9.99" height="15.96"/><line class="cls-35" x1="524.4" y1="258.11" x2="522.4" y2="258.11"/><line class="cls-50" x1="517.33" y1="258.11" x2="509.72" y2="258.11"/><polyline class="cls-35" points="507.19 258.11 505.19 258.11 505.19 260.11"/><line class="cls-51" x1="505.19" y1="263.85" x2="505.19" y2="291.9"/><polyline class="cls-35" points="505.19 293.77 505.19 295.77 507.19 295.77"/><line class="cls-52" x1="510.58" y1="295.77" x2="522.47" y2="295.77"/><line class="cls-35" x1="524.17" y1="295.77" x2="526.17" y2="295.77"/><rect class="cls-25" x="529.33" y="293.91" width="26.43" height="4.72"/><rect class="cls-25" x="529.33" y="302.65" width="18.28" height="4.72"/><rect class="cls-25" x="529.33" y="311.39" width="23.14" height="4.72"/><rect class="cls-20" x="557.26" y="311.39" width="5.4" height="4.72"/><rect class="cls-20" x="567.61" y="311.39" width="19.87" height="4.72"/><rect class="cls-20" x="553.47" y="302.65" width="34.01" height="4.72"/><rect class="cls-20" x="561.05" y="293.91" width="26.43" height="4.72"/><rect class="cls-9" x="660.7" y="246.27" width="17.41" height="8.31"/><rect class="cls-9" x="660.7" y="260.79" width="17.41" height="8.31"/><rect class="cls-9" x="660.7" y="275.31" width="17.41" height="8.31"/><rect class="cls-9" x="660.7" y="289.83" width="17.41" height="8.31"/><rect class="cls-25" x="660.7" y="304.35" width="17.41" height="8.31"/><rect class="cls-25" x="660.7" y="318.86" width="17.41" height="8.31"/><rect class="cls-25" x="660.7" y="333.38" width="17.41" height="8.31"/><g id="logo"><path class="cls-53" d="M452.06,352.78l-24.78-.16,0-4.86,24.77.16Zm-24.52-.41,24.27.16,0-4.37L427.57,348Z" transform="translate(-0.01 0)"/><path class="cls-53" d="M451,348.67h-1.27a.38.38,0,0,0-.39.37h0v.77a.38.38,0,0,0,.38.38h1.27a.4.4,0,0,0,.39-.38v-.76a.38.38,0,0,0-.38-.39Zm-.3,1.06a.47.47,0,0,1-.64,0,.43.43,0,0,1,0-.61h0a.45.45,0,0,1,.63,0,.44.44,0,0,1,0,.62Z" transform="translate(-0.01 0)"/><path class="cls-53" d="M450.34,349.1a.32.32,0,0,0-.25.53h0a.33.33,0,0,0,.46,0,.31.31,0,0,0,0-.44h0A.35.35,0,0,0,450.34,349.1Z" transform="translate(-0.01 0)"/><path class="cls-53" d="M451,350.64h-1.27a.4.4,0,0,0-.39.38h0v.77a.38.38,0,0,0,.38.38H451a.4.4,0,0,0,.39-.38h0V351a.38.38,0,0,0-.38-.38Zm-.49,1.22,0,0-.05,0,0,0,0,0v-.69h-.13l0,0a.07.07,0,0,1,0-.09l.05,0h.19l0,0a0,0,0,0,1,0,0Z" transform="translate(-0.01 0)"/><rect class="cls-53" x="444.23" y="350.34" width="1.52" height="2.04" rx="0.39" transform="translate(90.67 794.01) rotate(-89.62)"/><path class="cls-53" d="M430.13,349.92h-1l-.17.36h-.4l.89-1.9h.4l.87,1.91h-.41Zm-.5-1.15-.37.81H430Z" transform="translate(-0.01 0)"/><path class="cls-53" d="M433.56,349a.38.38,0,0,1-.25.36.49.49,0,0,1,.31.43c0,.43-.33.56-.74.56H432v-1.91h.93C433.28,348.39,433.57,348.56,433.56,349Zm-1.23.2h.56c.23,0,.31-.1.31-.21s-.07-.23-.31-.23h-.56Zm0,.81h.57c.15,0,.36,0,.36-.23s-.21-.26-.36-.26h-.56Z" transform="translate(-0.01 0)"/><path class="cls-53" d="M436.4,350h-1l-.17.36h-.4l.89-1.9h.4l.86,1.92h-.4Zm-.5-1.15-.37.81h.72Z" transform="translate(-0.01 0)"/><path class="cls-53" d="M439.87,350.1a1,1,0,0,1-.74.28.94.94,0,0,1-1-1,1,1,0,0,1,1-1,1,1,0,0,1,.72.3l-.25.23a.65.65,0,0,0-.47-.18.63.63,0,0,0-.68.58v.07a.62.62,0,0,0,.67.65.69.69,0,0,0,.49-.19Z" transform="translate(-0.01 0)"/><path class="cls-53" d="M442.91,348.46v1.09a.78.78,0,0,1-.85.85.8.8,0,0,1-.86-.86v-1.09h.36v1.09a.49.49,0,1,0,1,0v-1.09Z" transform="translate(-0.01 0)"/><path class="cls-53" d="M445.61,348.93a.55.55,0,0,0-.46-.21c-.27,0-.41.11-.41.25s.2.21.44.24c.4.05.78.16.78.62s-.39.6-.82.6a.8.8,0,0,1-.85-.48l.31-.15a.57.57,0,0,0,.54.31c.24,0,.45-.08.45-.29s-.19-.25-.45-.28-.76-.16-.76-.58.4-.55.76-.55a.8.8,0,0,1,.77.38Z" transform="translate(-0.01 0)"/><path class="cls-53" d="M448.41,348.66h-1.26a.38.38,0,0,0-.39.37h0v.77a.39.39,0,0,0,.39.38h1.26a.38.38,0,0,0,.39-.38V349a.4.4,0,0,0-.39-.38Zm-.27,1.06.05,0a0,0,0,0,1,0,.05s0,0,0,0l-.05,0h-.64l-.05,0s0,0,0-.05v-.19a.25.25,0,0,1,.08-.18.31.31,0,0,1,.18-.07H448a.12.12,0,0,0,.13-.12.14.14,0,0,0-.13-.13h-.45l0,0a.06.06,0,0,1,0-.09l0,0H448a.27.27,0,0,1,.19.08.26.26,0,0,1,0,.35h0a.29.29,0,0,1-.18.07h-.26l-.09,0a.18.18,0,0,0,0,.09v.13Z" transform="translate(-0.01 0)"/><path class="cls-53" d="M430.37,350.51h-1.26a.37.37,0,0,0-.39.37h0v.77a.38.38,0,0,0,.38.38h1.26a.38.38,0,0,0,.39-.38h0v-.76a.37.37,0,0,0-.39-.38Zm-.77,1.1h-.35v-.28h.36v.29Zm0-.37h-.36V351h0l.36,0h0Zm.51.44h0l-.47-.07v-.34h.47v.4Zm0-.44h-.47v-.34h0l.47-.06h0v.39Z" transform="translate(-0.01 0)"/><path class="cls-53" d="M443.21,350.59l-11.71-.08a.39.39,0,0,0-.39.38h0v.77a.4.4,0,0,0,.39.38h0l11.71.07a.38.38,0,0,0,.39-.37h0V351a.38.38,0,0,0-.38-.38Zm-1.41,1.06-9-.06a.07.07,0,0,1,0-.14l9,.06a.07.07,0,1,1,0,.14Z" transform="translate(-0.01 0)"/><rect class="cls-53" x="422.15" y="318.49" width="2.61" height="0.18" transform="translate(102.06 739.91) rotate(-89.62)"/><circle class="cls-53" cx="424.64" cy="341.7" r="0.18" transform="translate(80.12 764.06) rotate(-89.62)"/><circle class="cls-53" cx="421.96" cy="341.68" r="0.18" transform="translate(77.48 761.36) rotate(-89.62)"/><path class="cls-53" d="M423.5,325.81h-.18a.64.64,0,0,0-.58.62v.69a.63.63,0,0,0,.57.62h.17a.62.62,0,0,0,.58-.62v-.69A.63.63,0,0,0,423.5,325.81Zm.25,1.33a.36.36,0,0,1-.35.35.34.34,0,0,1-.34-.35v-.73a.35.35,0,0,1,.35-.34.34.34,0,0,1,.34.35Z" transform="translate(-0.01 0)"/><path class="cls-53" d="M423.5,325.27v.64h-.18v-.64a0,0,0,0,0,.05.05h.07A0,0,0,0,0,423.5,325.27Z" transform="translate(-0.01 0)"/><path class="cls-53" d="M423.46,327.56l-.15.05v.13h.17v-.2Z" transform="translate(-0.01 0)"/><path class="cls-53" d="M425.65,316.24a.86.86,0,0,1,.13.14,2.54,2.54,0,0,1,.36,1.5,2.67,2.67,0,0,1-.4,1.19.19.19,0,0,1-.24.07h0a.17.17,0,0,1-.06-.24h0a2.64,2.64,0,0,0,.31-.71,2.23,2.23,0,0,0-.23-1.58l-.06-.09a.17.17,0,0,1,0-.23l.06,0,0,0Z" transform="translate(-0.01 0)"/><path class="cls-53" d="M421.4,316.21a.18.18,0,0,1,.11.24l0,.06a2.17,2.17,0,0,0-.21,1.89c.07.16.14.31.22.46a.15.15,0,0,1,0,.2.17.17,0,0,1-.19.06.28.28,0,0,1-.1-.09,2.53,2.53,0,0,1-.11-2.5.82.82,0,0,1,.12-.2.68.68,0,0,1,.12-.12Z" transform="translate(-0.01 0)"/><path class="cls-53" d="M421.8,317.68A1.69,1.69,0,0,1,422,317a.17.17,0,0,1,.23-.11h0a.16.16,0,0,1,.09.21v0a1.48,1.48,0,0,0,0,1.2.29.29,0,0,1,0,.16.14.14,0,0,1-.15.09.18.18,0,0,1-.17-.11,1.86,1.86,0,0,1-.15-.65Z" transform="translate(-0.01 0)"/><path class="cls-53" d="M425.13,317.67a1.82,1.82,0,0,1-.16.76.17.17,0,0,1-.22.1l-.05,0a.16.16,0,0,1-.05-.22h0a1.37,1.37,0,0,0,.13-.63,1.42,1.42,0,0,0-.12-.57.17.17,0,0,1,.06-.23.25.25,0,0,1,.12,0,.17.17,0,0,1,.14.12A1.78,1.78,0,0,1,425.13,317.67Z" transform="translate(-0.01 0)"/><path class="cls-53" d="M420.74,347.06l0,4.9a.62.62,0,0,0,.62.62h0l3.84,0a.6.6,0,0,0,.62-.6l0-4.9Zm2.06,3.63h-1.48v-.86h1.47Zm2.45,0h-1.47v-.86h1.47Z" transform="translate(-0.01 0)"/><path class="cls-53" d="M436.22,339.15" transform="translate(-0.01 0)"/><path class="cls-53" d="M439.79,346a7.8,7.8,0,0,1-3.57-6.57v0h0a7.78,7.78,0,0,0,1.53,4.67l.53.64A7.94,7.94,0,0,0,439.79,346Z" transform="translate(-0.01 0)"/><path class="cls-53" d="M441.18,346.72h0a7.18,7.18,0,0,1-1.15-.56h0Z" transform="translate(-0.01 0)"/><path class="cls-53" d="M444.47,347.33h-.28c-.33,0-.66,0-1-.07h0l1.26.07Z" transform="translate(-0.01 0)"/><path class="cls-53" d="M450.28,344.65a8.06,8.06,0,0,1-5.47,2.66,7.92,7.92,0,0,0,2-.41l.74-.28a8.34,8.34,0,0,0,2.11-1.35l.5-.49Z" transform="translate(-0.01 0)"/><path class="cls-53" d="M436.23,338.76v.66q0-.32,0-.63S436.23,338.77,436.23,338.76Zm4.94,8h0a8.1,8.1,0,0,0,1.68.49l.34,0v0a7.34,7.34,0,0,1-2-.53Zm3.3.6h0l.34,0-.34,0Z" transform="translate(-0.01 0)"/><path class="cls-53" d="M451.77,342.21l.18-.46,1.42-.07a8,8,0,0,0,.25-1.44l-1.31-.5-.06-1.24,1.26-.63a8.15,8.15,0,0,0-.38-1.45l-1.47.07-.58-1.11.94-1.12a9.66,9.66,0,0,0-.91-1.1l-1.32.65-1-.79.38-1.4a10.19,10.19,0,0,0-1.28-.64L447,332.1l-1.22-.33-.24-1.43a9.24,9.24,0,0,0-1.49-.08l-.36,1.31-1.26.19-.76-1.14a10.56,10.56,0,0,0-1.42.53l.21,1.34-1.06.68-.3-.19L444,322.56a2.55,2.55,0,0,0-2.56-3.49l-3.57,0a1.44,1.44,0,0,0-1.53,1.35l-.1,14.05h-1.46A.66.66,0,0,0,434,334a.69.69,0,0,0-.41.41h-1.48l0-6a8.62,8.62,0,0,0-8.56-8.58l0,5.4a2.51,2.51,0,0,1,2.44,2.49v.53l-2.48,0s0,0,0,0h0v-.5h-.17v.5s0,0,0,0h-2.48v-.52a2.5,2.5,0,0,1,2.47-2.47l0-5.4a8.61,8.61,0,0,0-8.67,8.46l-.1,14.53a4.2,4.2,0,0,0,4.22,4.18h1.92l0-4.06,5.08,0,0,4.06h1.93A4.2,4.2,0,0,0,432,343l.05-8.16h1.48a.66.66,0,0,0,.42.41l-.08,12.59h.41l.08-12.59a.65.65,0,0,0,.43-.41h1.45l0,3.91h0s0,0,0,0q0,.31,0,.63h0a7.8,7.8,0,0,0,1.53,4.68l.53.64a8.27,8.27,0,0,0,1.5,1.27l.21.13,0,0h0l1.13.57h0a7.51,7.51,0,0,0,2,.53h0l1.26.07h0l.34,0a8.57,8.57,0,0,0,2-.4l.73-.29a8.07,8.07,0,0,0,2.11-1.35l.5-.49.14-.12,0,0,1.33.5a9.35,9.35,0,0,0,.83-1.22l-1-1,.19-.5Zm-9.46-22.4a.66.66,0,0,1,.68.62v.64h-.68Zm-1.07,0h.69v1.25h-.68Zm-1,0h.68v1.25h-.68Zm-1.06,0h.68v1.25h-.68Zm-15.19.66a.1.1,0,0,1-.1-.1.1.1,0,0,1,.11-.1.1.1,0,0,1,.09.1.09.09,0,0,1-.1.1Zm.6.49a.21.21,0,0,1,0-.41.21.21,0,0,1,.19.21.19.19,0,0,1-.2.19Zm-2.38-.46a.24.24,0,0,1,.22.23.22.22,0,0,1-.23.21.21.21,0,0,1-.21-.22.22.22,0,0,1,.22-.22Zm-1.43,22.34a2.46,2.46,0,0,1,.34-1.24,2.62,2.62,0,0,1,.9-.88l-.57-1s0,0,0-.06h0a.06.06,0,0,1,.07,0l.57,1a2.53,2.53,0,0,1,1.23-.31,2.3,2.3,0,0,1,.64.09,2.27,2.27,0,0,1,.58.23l.59-1a0,0,0,0,1,.06,0,.06.06,0,0,1,0,.07h0l-.59,1a2.47,2.47,0,0,1,1.22,2.14Zm5.16-11.9a2.52,2.52,0,0,1-2.56,2.47,2.56,2.56,0,0,1-1.79-.74,2.42,2.42,0,0,1-.73-1.76v-2.46l5.08,0ZM437.7,321H437v-.64a.65.65,0,0,1,.68-.61Zm6.62,11.63a1,1,0,1,1-.06,2,1,1,0,0,1-1-1A1,1,0,0,1,444.32,332.67ZM443,334.25a1.44,1.44,0,0,0,2.59,0,5.79,5.79,0,0,1,1.44.58,5.48,5.48,0,0,1,1.84,1.71l-1.61.9a3.54,3.54,0,0,0-1.16-1.05,3.71,3.71,0,0,0-4.83,1l-1.59-.91A5.47,5.47,0,0,1,443,334.25Zm1.57,3v1.61a.29.29,0,0,1-.31.26.3.3,0,0,1-.26-.27v-1.61a.29.29,0,0,1,.31-.26A.3.3,0,0,1,444.58,337.23Zm-6.49-17.44h.68V321h-.68Zm1.57,23.32a1,1,0,0,1-1.38-.37,1,1,0,0,1,.36-1.34h0a1,1,0,0,1,1.37.37,1,1,0,0,1-.35,1.33h0Zm.67-.06a1.39,1.39,0,0,0,.07-1.49,1.43,1.43,0,0,0-1.35-.7,5.31,5.31,0,0,1,.39-3.93l1.6.92a3.57,3.57,0,0,0-.36,1.51,3.61,3.61,0,0,0,3.32,3.58v1.8a5.55,5.55,0,0,1-3.65-1.69Zm3.93-1.54a2.09,2.09,0,0,1-2.08-2,2.05,2.05,0,0,1,.82-1.7.33.33,0,0,1,.44.06l0,0v0a.29.29,0,0,1-.08.39,1.41,1.41,0,0,0-.57,1.12,1.47,1.47,0,1,0,2.94,0,1.42,1.42,0,0,0-.55-1.14.29.29,0,0,1-.08-.39v0a.31.31,0,0,1,.43-.11l0,0a2.07,2.07,0,0,1,.81,1.64,2.1,2.1,0,0,1-2.13,2.05Zm2.67,2.52a5.54,5.54,0,0,1-2.44.7v-1.81a3.63,3.63,0,0,0,1.51-.45,3.55,3.55,0,0,0,1.52-4.6l1.6-.89a5.28,5.28,0,0,1,.34,3.94,1.43,1.43,0,0,0-1.36.68,1.38,1.38,0,0,0,.05,1.5,5.31,5.31,0,0,1-1.23.93Zm3.28-1.21a1,1,0,0,1-1.38.35,1,1,0,0,1-.37-1.33v0a1,1,0,0,1,1.38-.35,1,1,0,0,1,.39,1.33l0,0Z" transform="translate(-0.01 0)"/><ellipse class="cls-53" cx="423.46" cy="317.68" rx="0.5" ry="0.51" transform="matrix(0.01, -1, 1, 0.01, 102.97, 739.02)"/><path class="cls-53" d="M448.49,350.56h-1.36a.41.41,0,0,0-.42.41v.82a.41.41,0,0,0,.42.41h1.36a.4.4,0,0,0,.42-.4V351a.41.41,0,0,0-.42-.41Zm-.29,1.15s0,0,.05,0a.06.06,0,0,1,0,.09s0,0-.05,0h-.69a.07.07,0,0,1-.07-.07h0v-.2a.25.25,0,0,1,.09-.2.23.23,0,0,1,.19-.07H448a.13.13,0,0,0,.1,0,.14.14,0,0,0,0-.19h0a.13.13,0,0,0-.1,0h-.48s0,0,0,0,0,0,0-.05a0,0,0,0,1,0,0s0,0,0,0H448a.28.28,0,0,1,.2.08.27.27,0,0,1,0,.38h0a.26.26,0,0,1-.2.07h-.28a.13.13,0,0,0-.1,0,.18.18,0,0,0,0,.1v.13Z" transform="translate(-0.01 0)"/></g></svg>