<svg id="OBJECTS" xmlns="http://www.w3.org/2000/svg" width="50" height="40" viewBox="0 0 677.64 469.98"><defs><style>.cls-1,.cls-21{fill:#ebf2f9;}.cls-2{fill:#dfeafd;}.cls-3{fill:#c7dbff;}.cls-21,.cls-3{opacity:0.5;isolation:isolate;}.cls-4{fill:#afc0ff;}.cls-5{fill:#002150;}.cls-6{fill:#323c66;}.cls-7{fill:#f4ac75;}.cls-8{fill:#3a539c;}.cls-9{fill:#2e4576;}.cls-10{fill:#2c3a64;}.cls-11{fill:#ec9037;}.cls-12{fill:#df750d;}.cls-13{fill:#e19157;}.cls-14{fill:#35488b;}.cls-15{fill:#e19054;}.cls-16{fill:#7a97f3;}.cls-17{fill:#fff;}.cls-18{fill:#354e97;}.cls-19{fill:#012650;}.cls-20{fill:#d4dfff;}.cls-22{fill:#344b7d;}.cls-23{fill:#e17600;}.cls-24{fill:#d88029;}.cls-25{fill:#233862;}.cls-26{fill:#f09e62;}.cls-27{fill:#fcfcfc;}</style></defs><title>create</title><path class="cls-1" d="M64.31,469.76S-24.6,373.48,6.71,261.24c20.42-73.31,88.15-28.89,84.54-147.74S290.77-17.69,347.1,16.79s57.52,56.5,173.83,42.81,166.93,90.8,106.66,178.59c-52.77,76.87,119.13,69.16,17,231.79Z" transform="translate(-0.03 0)"/><path class="cls-2" d="M281,147.25l10.13-1.14a2.26,2.26,0,0,1,2.13,1c.59.91,1.22,1.8,1.89,2.68a37.76,37.76,0,0,0,4,4.48,2.23,2.23,0,0,1,.55,2.45l-3.88,10a2.19,2.19,0,0,0,1.08,2.77l8.73,4.33a2.17,2.17,0,0,0,2.78-.77l5.28-8.27a2.16,2.16,0,0,1,2.43-.94A39.67,39.67,0,0,0,328.48,165a2.21,2.21,0,0,1,2.24,1.55l1.79,5.7a2.27,2.27,0,0,0,2.58,1.53l9.48-1.92a1.78,1.78,0,0,0,.55-.18,2.18,2.18,0,0,0,1.22-2.22l-.85-7.57-.21-1.85a38.6,38.6,0,0,0,4.6-3,39.32,39.32,0,0,0,5.4-5,2.17,2.17,0,0,1,2.42-.59l8,3.14a2.24,2.24,0,0,0,2.84-1.1l3.31-6.67.94-1.92A2.29,2.29,0,0,0,372,142l-6.91-4.42a2.17,2.17,0,0,1-1-2.37,38.66,38.66,0,0,0,1.06-8.29v-.71a.89.89,0,0,1,0-.23,2.22,2.22,0,0,1,1.57-1.91l9.25-2.92.3-.12a2.26,2.26,0,0,0,1.22-2.45l-1.9-9.46a2.26,2.26,0,0,0-2.46-1.79l-10.57,1.19a2.19,2.19,0,0,1-2.18-1.14,39.4,39.4,0,0,0-3.31-5.07c-.66-.86-1.36-1.69-2.08-2.48a2.3,2.3,0,0,1-.43-2.38l3.73-9.54a2.18,2.18,0,0,0-1.06-2.76l-8.65-4.27a2.3,2.3,0,0,0-2.85.81l-4.18,6.55a2.23,2.23,0,0,1-2.61.92A39.42,39.42,0,0,0,327,87a2.23,2.23,0,0,1-2.1-1.57l-2.68-8.36a2.33,2.33,0,0,0-2.65-1.56l-9.42,1.88a2.21,2.21,0,0,0-1.76,2.42v.44l1,8.8a2.27,2.27,0,0,1-1.22,2.27h0A38.77,38.77,0,0,0,302.31,95c-1,.77-1.94,1.57-2.85,2.41a2.22,2.22,0,0,1-2.33.46L289,94.72a2.28,2.28,0,0,0-2.89,1.11l-4.26,8.61a2.55,2.55,0,0,0-.22.76,2.28,2.28,0,0,0,1,2.13l5.52,3.51a2.28,2.28,0,0,1,1,2,2.2,2.2,0,0,1-.12.62,39.28,39.28,0,0,0-2,15.36,2.25,2.25,0,0,1-1.53,2.26L278,133.44a2.24,2.24,0,0,0-1.52,2.57v.22l1.84,9.22A2.29,2.29,0,0,0,281,147.25Zm64.84-28.78a26.19,26.19,0,0,1,1.38,4.68,20.61,20.61,0,0,1-1.5,11.13c-.15.31-.31.62-.47.92-9.92,18.41-35.91,14.75-40.19-6a21.25,21.25,0,0,1,.76-9.7,14.51,14.51,0,0,1,.77-1.92,24.47,24.47,0,0,1,4.84-6.66,21.13,21.13,0,0,1,34.41,7.55Z" transform="translate(-0.03 0)"/><path class="cls-2" d="M602.81,111.75c-9.73-19.61-43.42-6.18-43.42-6.18s-16.54,41-23.28,43.22,7.3-37.8,7.3-37.8c-13.64,1.36-44.49,24.54-44.49,24.54s10.56,41.89,3.48,42.4-7.46-37.57-7.46-37.57c-12.18,6.46-21.27,24-21.27,24-10.22,27.59,25.76,39.32,25.76,39.32s3.35,14.6-2.37,33.24h0a50.68,50.68,0,0,0-2.46,9.21l3.53-.7c.1-1,.24-2,.42-2.93h0c.13-.59.32-1.44.57-2.47h0c.66-2.32,1.08-4,1.32-5.25h0c1.91-7.27,4.86-16.83,7.6-19.26a7.42,7.42,0,0,1-1.08-1.47c.35.47.71,1,1.08,1.47,8.62,11.75,39.27,7.9,55.43,1.1s7.87-10.09-2.73-16-29.2-.11-35.41-2,1.39-6.56,12.79-7.93,19.24,8.75,37.72,6.87,25.53-38.88,25.53-38.88c-11.75,6.37-35.58,3.92-37.3-.22s31.64-10.28,36.54-12.61S612.54,131.36,602.81,111.75Z" transform="translate(-0.03 0)"/><path class="cls-2" d="M47,262.48C43,241,78,231.48,78,231.48s37.8,22.91,44.54,20.66-28.5-25.89-28.5-25.89c11.74-7.09,50.33-7,50.33-7s16.64,39.86,22.61,36-16.53-34.55-16.53-34.55c13.62-2.12,31.39,6.45,31.39,6.45,24.73,16,2.94,46.92,2.94,46.92s6.06,13.69,21.81,25.18h0a50.84,50.84,0,0,1,7.49,5.91l-3.25,1.55c-.68-.74-1.37-1.45-2.08-2.1h0c-.46-.39-1.12-1-1.94-1.63h0c-1.93-1.47-3.28-2.58-4.2-3.42h0c-5.89-4.68-14-10.57-17.63-10.87a6.93,6.93,0,0,0,0-1.82v1.82c.14,14.57-26.71,29.86-43.71,34.1s-12.35-3.37-7.4-14.45S157.2,290.77,161,285.52s-5-4.42-15,1.32-10.16,18.53-26.08,28.1-43.64-15.72-43.64-15.72c13.23-1.94,30.84-18.17,29.73-22.53s-31.49,10.69-36.83,11.77S50.93,284,47,262.48Z" transform="translate(-0.03 0)"/><path class="cls-2" d="M623.58,400.68c17.23-13.51-2.75-43.77-2.75-43.77s-43.49-7.89-47-14,38.5-.52,38.5-.52c-4.11-13.08-33.07-38.59-33.07-38.59s-38.87,18.84-40.8,12,35.25-14.95,35.25-14.95c-8.8-10.62-27.79-16-27.79-16-29.11-4.41-33.27,33.2-33.27,33.2s-13.62,6.24-33,4.41h0a52.29,52.29,0,0,0-9.52-.54l1.4,3.32c1-.1,2-.17,3-.19h.06l2.54.06h0c2.41.17,4.17.24,5.41.22h0c7.51.4,17.47,1.34,20.4,3.54a7.51,7.51,0,0,1,1.23-1.35l-1.23,1.35c-9.76,10.82.23,40.06,10.16,54.5s11.48,5.66,15.11-5.92-5.82-28.6-5.21-35.08,6.7,0,10.35,10.92-4.66,20.61.93,38.33,43.1,17.13,43.1,17.13c-8.62-10.21-11.06-34-7.35-36.57s16.52,28.87,19.79,33.22S606.35,414.18,623.58,400.68Z" transform="translate(-0.03 0)"/><path class="cls-3" d="M467.16,147.21s2-40.34,20.88-65.63a4.49,4.49,0,0,1,8.06,2.49v.21C496.33,91.44,475.45,123.13,467.16,147.21Z" transform="translate(-0.03 0)"/><path class="cls-3" d="M465.46,158.84s17-51.42,50.35-75.94a4.76,4.76,0,0,1,6.52.78c1,1.28,1.59,3.37.77,6.74C520.93,99.41,484.05,131.68,465.46,158.84Z" transform="translate(-0.03 0)"/><path class="cls-3" d="M176.56,212.74s-16.92-29.53-40.75-41.32a3.78,3.78,0,0,0-5.1,5s0,.11.08.16C133.35,182,161.14,197.82,176.56,212.74Z" transform="translate(-0.03 0)"/><path class="cls-3" d="M182.28,220.82s-32.39-32.13-66.82-37.8a4,4,0,0,0-4.6,3.07c-.28,1.36.09,3.14,2,5.36C117.92,197.37,158,207.53,182.28,220.82Z" transform="translate(-0.03 0)"/><path class="cls-4" d="M550.33,148.91V405c0,4.48-3.23,8.11-7.22,8.11H173.59c-4,0-7.22-3.63-7.22-8.11V148.91c0-4.48,3.23-8.11,7.22-8.11H543.11C547.1,140.8,550.33,144.43,550.33,148.91Z" transform="translate(-0.03 0)"/><path class="cls-5" d="M532.07,134.29v20.77H119.71V134.29a7.77,7.77,0,0,1,7.76-7.75H524.31A7.77,7.77,0,0,1,532.07,134.29Z" transform="translate(-0.03 0)"/><path class="cls-2" d="M132.3,140.8a3.61,3.61,0,1,1,3.61,3.61,3.61,3.61,0,0,1-3.61-3.61Z" transform="translate(-0.03 0)"/><path class="cls-2" d="M146.53,140.8a3.61,3.61,0,1,1,3.61,3.61,3.61,3.61,0,0,1-3.61-3.61Z" transform="translate(-0.03 0)"/><path class="cls-2" d="M161.12,140.8a3.61,3.61,0,1,1,3.61,3.61,3.61,3.61,0,0,1-3.61-3.61Z" transform="translate(-0.03 0)"/><path class="cls-2" d="M386.84,104.16l4.94-.55a1.12,1.12,0,0,1,1,.49c.28.45.59.88.91,1.31a18.8,18.8,0,0,0,2,2.18,1.1,1.1,0,0,1,.27,1.2l-1.9,4.83a1.07,1.07,0,0,0,.53,1.35l4.25,2.11a1.05,1.05,0,0,0,1.35-.38l2.58-4a1,1,0,0,1,1.18-.45,19.57,19.57,0,0,0,6,.6,1.1,1.1,0,0,1,1.1.75l.87,2.78a1.1,1.1,0,0,0,1.25.74l4.62-.93a1.08,1.08,0,0,0,.86-1.17l-.41-3.69-.1-.9a19.13,19.13,0,0,0,4.86-3.91,1.09,1.09,0,0,1,1.19-.29l3.89,1.53a1.09,1.09,0,0,0,1.38-.53l1.61-3.25.46-.94a1.11,1.11,0,0,0-.39-1.43l-3.37-2.15a1.06,1.06,0,0,1-.47-1.15,19.22,19.22,0,0,0,.51-4v-.46a1.07,1.07,0,0,1,.76-.93l4.5-1.42.15-.06a1.09,1.09,0,0,0,.59-1.2l-.92-4.6a1.09,1.09,0,0,0-1.18-1l-5.14.58a1.07,1.07,0,0,1-1.07-.56,19,19,0,0,0-1.61-2.47c-.32-.42-.66-.82-1-1.21a1.1,1.1,0,0,1-.21-1.15l1.82-4.65a1.07,1.07,0,0,0-.52-1.34l-4.21-2.08a1.13,1.13,0,0,0-1.44.4l-2,3.18a1.1,1.1,0,0,1-1.28.45,19.42,19.42,0,0,0-5.81-1,1.08,1.08,0,0,1-1-.76L407,70a1.12,1.12,0,0,0-1.29-.76l-4.59.92a1.08,1.08,0,0,0-.86,1.17v.22l.48,4.28a1.09,1.09,0,0,1-.59,1.11h0a18.8,18.8,0,0,0-2.85,1.81,17.33,17.33,0,0,0-1.39,1.18,1.09,1.09,0,0,1-1.13.22l-4-1.56a1.11,1.11,0,0,0-1.4.55l-2.07,4.19a1,1,0,0,0-.11.37,1.09,1.09,0,0,0,.5,1l2.69,1.71a1.08,1.08,0,0,1,.5,1,1.06,1.06,0,0,1-.05.31,19,19,0,0,0-1,7.48,1.1,1.1,0,0,1-.58,1l-.17.07-3.65,1.15a1.09,1.09,0,0,0-.69,1.25v.11l.9,4.49A1.1,1.1,0,0,0,386.84,104.16Zm31.58-14a13,13,0,0,1,.67,2.28,10.07,10.07,0,0,1-.71,5.42c-.08.15-.15.3-.23.44-4.83,9-17.49,7.19-19.58-2.93a10.34,10.34,0,0,1,.38-4.72,6.33,6.33,0,0,1,.37-.94,12.14,12.14,0,0,1,2.36-3.24,10.3,10.3,0,0,1,16.74,3.68Z" transform="translate(-0.03 0)"/><path class="cls-6" d="M158.22,335.89s.55-6-6.15-6a7.87,7.87,0,0,1,3.08,1.65s-4.27-2.51-8.92,1.34-1.76,13.52-3.18,15.36-6.91,2.2-6.24,8.13,17.47,13.36,16.39,18.27c0,0,6.58-9.68,1.88-14.09a8.67,8.67,0,0,1,2.52,4.73s.63-5-2.57-6.62c-2.82-1.42-5.13-6.61-4.89-7.54S158.22,335.89,158.22,335.89Z" transform="translate(-0.03 0)"/><path class="cls-7" d="M151.62,364.68s5,20.7,9.92,24.83c3,2.49,11.73,8.2,11.73,8.2L169.61,399s-12.17-4.12-14.9-7.35-10.19-19.27-10.19-19.27Z" transform="translate(-0.03 0)"/><path class="cls-8" d="M104.6,401l.14.24c1.09,1.91,3.61,6.57,6.37,11.67,1.31,2.42,2.68,4.94,4,7.31,2.24,4.1,4.28,7.74,5.47,9.67s2.09,3.33,2.45,3.88h0a.87.87,0,0,1,.11.57,30.3,30.3,0,0,0,.08,5.13A39.4,39.4,0,0,0,136.09,465l3.32.49s-4.7-17.45-6.1-27.31a19,19,0,0,1-.26-3.91A40.85,40.85,0,0,0,132,423.59a240.25,240.25,0,0,0-6.81-24.71c-.15-.48-4.83-17.42-4.83-17.42-3.93,3.44-18.26,4.86-18.26,4.86S99.65,392.22,104.6,401Z" transform="translate(-0.03 0)"/><path class="cls-9" d="M146.39,469.68H132.5a7.6,7.6,0,0,1,.39-3.72c.7-1.54,1.69-1.59.13-4,.88.91,3.72,1.29,5.73,1,.24.4,1.58,3.07,2.4,3.66S146.11,467.07,146.39,469.68Z" transform="translate(-0.03 0)"/><path class="cls-10" d="M104.6,401l.14.24c1.09,1.91,7,12.84,9.78,17.94-3.2-13.18-1-26.37-1-26.37Z" transform="translate(-0.03 0)"/><path class="cls-6" d="M156.32,335.05c.09-.37-7.93,3.62-8.34,4.08-3.76,4.17-2.69,9.62-.54,9.67,1.38,0,1.12,2.33,1.12,2.33l15.38-6.51S162.09,333.82,156.32,335.05Z" transform="translate(-0.03 0)"/><path class="cls-11" d="M151.15,361.56s2.34,4.68,2,8.47c0,0-2.82,4.46-10.15,5.59C143.05,375.62,149.35,361.56,151.15,361.56Z" transform="translate(-0.03 0)"/><path class="cls-8" d="M115.43,387.35l0-2.6c-5.18.65-17.85-6.18-17.85-6.18s-5.42,3.6-6.16,13.88c-.36,5-2.65,26.26-2.9,32.6-.09,2.29-.12,3.93-.13,4.59h0a1,1,0,0,1-.22.53,29.69,29.69,0,0,0-2.81,4.3c-7.9,14.7-3.77,34.66-3.77,34.66l1.84-.46s6.68-20.7,11-29.66a19.15,19.15,0,0,1,2-3.38,40.82,40.82,0,0,0,5.08-9.45C104.8,418.48,115.43,387.35,115.43,387.35Z" transform="translate(-0.03 0)"/><path class="cls-9" d="M92.71,469.68H78.8a7.72,7.72,0,0,1,.39-3.72c.7-1.54,1.79-2.24,1.53-4.11A5,5,0,0,0,85,463.51a15.57,15.57,0,0,0,2.41,3.12C88.36,467.31,92.41,467.07,92.71,469.68Z" transform="translate(-0.03 0)"/><path class="cls-11" d="M142.12,378.6c-1.87.32.3,1.8-2.27,2.08-3.65.4-7.42.67-9.39,1.46-.72.29-1.21.64-1.36,1.1-.85,2.57-6.28,7-6.28,7-24.18-1.11-25.74-11.89-25.74-11.89,15.7-15.24,29-23.55,40.09-24.58,2.68-.25,6.31.08,8,.84,3.86,1.72,6,6.95,6,6.95S149.21,377.39,142.12,378.6Z" transform="translate(-0.03 0)"/><path class="cls-12" d="M139.85,380.68c-3.65.4-7.42.67-9.39,1.46A38.52,38.52,0,0,1,135.34,361S139.05,376.12,139.85,380.68Z" transform="translate(-0.03 0)"/><path class="cls-7" d="M145,355.61c.69,2.16,3,8.32,6.18,5.95-.11-.46.56-1.8,1.35-3.16,1-1.73,2.22-3.51,2.22-3.51l-5.2-4.55-.31-.27a13.37,13.37,0,0,1-3.87,4.39A1,1,0,0,0,145,355.61Z" transform="translate(-0.03 0)"/><path class="cls-13" d="M154.71,354.9s-1.21,1.77-2.22,3.5c-3.23-2-3.23-6-3-8.06Z" transform="translate(-0.03 0)"/><path class="cls-7" d="M154.86,357.18s-7.85-4.37-5.05-9.21,3.66-8.67,8.79-6.09,5,5,4.48,6.83S157,358.19,154.86,357.18Z" transform="translate(-0.03 0)"/><path class="cls-6" d="M164.41,345.89c-.36-2.15-1.45-2.36-2.21-2.22a6.28,6.28,0,0,0-7.63-2.92,10.68,10.68,0,0,1-6.19,3.72s.91,1.69,4.66,2.74a6.33,6.33,0,0,0,3.7-.3,20.59,20.59,0,0,1-5.32,2c4.94.45,9.65-4.07,10.13-4.55a7,7,0,0,1,.39,3.24c-.32,1.46-1.62,4.09-.83,4.44C161.11,352.05,165,349.11,164.41,345.89Z" transform="translate(-0.03 0)"/><rect class="cls-14" x="201.03" y="397.47" width="17.08" height="65.13" transform="translate(-268.84 429.96) rotate(-64.01)"/><path class="cls-14" d="M158.24,426.68a19.38,19.38,0,0,1-10.47-13.32,4.4,4.4,0,0,1,8.59-1.89,10.65,10.65,0,1,0,8.08-12.71c-.25.05-.49.12-.73.19a4.4,4.4,0,0,1-2.49-8.44,19.45,19.45,0,1,1-3,36.14Z" transform="translate(-0.03 0)"/><path class="cls-14" d="M241.06,467a19.45,19.45,0,1,1,26.65-24.63,4.4,4.4,0,0,1-8.18,3.23,10.66,10.66,0,1,0-6,13.83c.24-.09.48-.2.71-.31a4.4,4.4,0,0,1,3.81,7.93A19.38,19.38,0,0,1,241.06,467Z" transform="translate(-0.03 0)"/><rect class="cls-10" x="204.58" y="409.5" width="5.37" height="37.89" rx="1.79" transform="translate(-268.7 427) rotate(-64.01)"/><path class="cls-7" d="M150.37,411.05a5.32,5.32,0,0,0,.78,2.22c.62.75,2.42,2.58,2.45,3.65,0,0-.09.48-.47.39s-1.73-1.41-2.42-1.32a13.77,13.77,0,0,0,.73,2.75,8,8,0,0,1,.82,3.4c-.18.52-3.86-2.51-5-4s0-7.49,0-7.49Z" transform="translate(-0.03 0)"/><path class="cls-7" d="M143,359s-9.19-.5-10.82,5.27,3.06,28.78,4.07,31.16c1.84,4.32,10.81,16.67,10.81,16.67l3.3-1s-6-18.86-7.32-20.72C141,387.4,145.76,361.47,143,359Z" transform="translate(-0.03 0)"/><path class="cls-11" d="M130.38,371.94c0,.13,8.69,1.59,14.11-1.16,0,0,4.53-14.19-1.94-13.51s-10.31,2.72-10.47,5.82A59.08,59.08,0,0,1,130.38,371.94Z" transform="translate(-0.03 0)"/><path class="cls-7" d="M168.71,388.47a3.49,3.49,0,0,0-1.52.38c-.5.39-1.06,1.06.06,1.62,1.68.84,5,.47,4.92,0C171.79,388.84,171.19,388.36,168.71,388.47Z" transform="translate(-0.03 0)"/><path class="cls-7" d="M217.15,162.59a1.59,1.59,0,0,0-.28,1.68h0c.41,1.12,1.75,2.37,3.3,3.62l.53.44.12.11.09.08c1.45,1.34.91,1.64,3.51,4.36,3,3.09,5,3.14,5.6,2.86s-.5-1.88-1.61-3.72c-.06-.09-.11-.18-.16-.27-.15-.24-.3-.49-.44-.74-1.3-2.22-1-3.26-.66-6.56.25-2.68,4.17-15,4.17-15l-5.69-1s-1.72,9.8-3.61,11.31c-1,.8-2.14.81-3.11,1.41a1.37,1.37,0,0,0-.2.13A7.15,7.15,0,0,0,217.15,162.59Z" transform="translate(-0.03 0)"/><path class="cls-10" d="M217.15,162.59a1.59,1.59,0,0,0-.28,1.68h0a12.4,12.4,0,0,0,3.31,3.61c.2.16.37.31.52.45l.12.11.09.08c1.45,1.34.91,1.64,3.51,4.36,3,3.09,5,3.14,5.6,2.86s-.5-1.88-1.61-3.72a12.6,12.6,0,0,1-5.3-3.9c-1.79-2.29-3-5.22-4.2-6.92a1.37,1.37,0,0,0-.2.13A7.31,7.31,0,0,0,217.15,162.59Z" transform="translate(-0.03 0)"/><path class="cls-7" d="M263.07,159c.35,1.76,2.85,1.47,5.65.78s2.14.13,6.12-.31,5.19-1.92,5.31-2.52-1.86-.71-4-1l-.8-.1c-2.38-.3-4.13-1.83-6.29-3.1s-5.11-6.07-5.11-6.07l-5.47.43s2.87,4.36,4,6.25a6.69,6.69,0,0,1,.54,3.72A6.5,6.5,0,0,0,263.07,159Z" transform="translate(-0.03 0)"/><path class="cls-10" d="M268.71,159.81c2.8-.68,2.14.13,6.12-.31s5.19-1.92,5.31-2.52-1.86-.71-4-1h0a11.34,11.34,0,0,1-5.7,1.77c-2.71.07-5.57-.71-7.43-.68a6.51,6.51,0,0,0,0,1.87C263.42,160.79,265.92,160.5,268.71,159.81Z" transform="translate(-0.03 0)"/><path class="cls-6" d="M242.13,124.1,237,137.84l-6.67,18a10.82,10.82,0,0,1-3.54-.33,15.52,15.52,0,0,1-3.43-1.66s1.86-19.27,5.31-30.33a19.9,19.9,0,0,1,3-6.43C237,110.68,242.13,124.1,242.13,124.1Z" transform="translate(-0.03 0)"/><path class="cls-8" d="M236.94,102.27c-3.35-1.08-12.89.31-22.48,2.18l-2-3.31-20.75-1.61s-6.83,15.15-3.09,24.8a3.5,3.5,0,0,0,3.51,2.36h16.63c10.29,0,21.79-7.08,23.28-7.38,2.43-.49,3.41,4.38,5.84,9.49s22.88,22.64,22.88,22.64a18.45,18.45,0,0,0,4.44-.45,4.43,4.43,0,0,0,1.91-1.21S244.48,104.68,236.94,102.27Z" transform="translate(-0.03 0)"/><path class="cls-14" d="M205.59,38.1c-2.9-.74-6.87,0-7.53.06-7.88.78-10.53,9.57-9.34,16.39,1.1,6.29-2.09,8-5.79,13-7.41,10-2.57,18.37,3.29,20.54,3.51,1.3,8.38-2,8.38-2s15.32-10,21.57-15.62C226.57,66.42,213,40,205.59,38.1Z" transform="translate(-0.03 0)"/><path class="cls-7" d="M206.71,66.93c.21.73-3.24,2.07-5.87,1.58-2.47-.47-5.25-3.36-4.67-3.64.94-.45,1.58-1.56,1.06-7.62l.47.06,7.92.9s0,2.47.21,4.78A15.62,15.62,0,0,0,206.71,66.93Z" transform="translate(-0.03 0)"/><path class="cls-15" d="M205.71,58.21s0,2.47.21,4.78c-4.37.23-7-3.56-8.13-5.68Z" transform="translate(-0.03 0)"/><path class="cls-7" d="M207.3,60.28s-10.3,1-10.84-5.41-2.22-10.62,4.33-11.54,8,1.42,8.74,3.52S210,59.85,207.3,60.28Z" transform="translate(-0.03 0)"/><path class="cls-14" d="M206.19,42.31S204.9,50.16,199,52c-4.28,1.36-6.22.47-6.22.47A17.39,17.39,0,0,0,195.6,46a3.17,3.17,0,0,1,2.1-2.4C200.71,42.56,204.43,39.82,206.19,42.31Z" transform="translate(-0.03 0)"/><path class="cls-14" d="M204.25,44a6.83,6.83,0,0,1,3.67,2.93,13.29,13.29,0,0,1,1.84,6.35s1.8-7.26-.83-10C206.14,40.44,204.25,44,204.25,44Z" transform="translate(-0.03 0)"/><path class="cls-11" d="M188.2,88c.19.78.34,1.5.47,2.16.21,1.07.35,2,.46,2.8.31,2.54.22,4,.43,5.68a14.27,14.27,0,0,0,.77,3.09c.43,1.18,11.62,2.23,18,1.81,2-.14,3.57-.42,4.11-.89,2.28-2,2.05,2.36,2.36-18.41.15-10.13-8.6-19.15-8.6-19.15s-.69,4.33-9.37-.82c-.31-.18-3.72,4.88-7,11.11C186.19,82.3,187.18,83.75,188.2,88Z" transform="translate(-0.03 0)"/><path class="cls-8" d="M237,137.84l-6.67,18a10.82,10.82,0,0,1-3.54-.33,15.52,15.52,0,0,1-3.43-1.66s1.86-19.27,5.31-30.33Z" transform="translate(-0.03 0)"/><path class="cls-11" d="M206.19,65.13s8.93,1.51,10,5.36,8.29,25.33,8.29,25.33-5.61,1.92-7.71-.18-7.29-19.45-7.29-19.45Z" transform="translate(-0.03 0)"/><path class="cls-12" d="M189.13,93c.31,2.54.22,4,.43,5.68,8.1,0,18.94-6.26,18.94-6.26Z" transform="translate(-0.03 0)"/><path class="cls-12" d="M208.5,87.11s-12.63-.38-14.75-7.56c-2.34-7.88-5,3.25-5,3.25l1.39,7.1H204Z" transform="translate(-0.03 0)"/><path class="cls-16" d="M230.51,67.68,229.83,66a4.8,4.8,0,0,0-4.45-3H212.8v42.08h52.06V70.93H235.4A5.26,5.26,0,0,1,230.51,67.68Z" transform="translate(-0.03 0)"/><path class="cls-17" d="M220.65,88.54v-3l10.64-4.66V84L223.86,87l7.43,3v3.15Z" transform="translate(-0.03 0)"/><path class="cls-17" d="M242.35,77.22h2.83l-9.74,20.35h-2.83Z" transform="translate(-0.03 0)"/><path class="cls-17" d="M257,85.5v3l-10.64,4.66v-3.1L253.8,87l-7.43-3V80.84Z" transform="translate(-0.03 0)"/><path class="cls-7" d="M208.5,88.77l.91-1.43a7.71,7.71,0,0,0,1.74-1c1.2-.85,1-2.12,1.65-2v2.79h-.09c2.59.69,5.61-.06,5.67.58.17,1.77-1.2,2.57-2.35,3.12a4.11,4.11,0,0,1-3.47.57c-1.16-.36-3-.73-3-.73Z" transform="translate(-0.03 0)"/><path class="cls-11" d="M196.82,64.31s-8.2.54-10.24,3.73S182,87.47,183.05,93,210.36,92,210.36,92l-.84-4.84s-15.14.09-16-1.88C192.37,82.68,196.82,64.31,196.82,64.31Z" transform="translate(-0.03 0)"/><path class="cls-7" d="M236.38,70.92c-.07.21,1.23,2.35,3.1,2,1.16-.23,2.66-2.73,1.34-3.28A3.76,3.76,0,0,0,236.38,70.92Z" transform="translate(-0.03 0)"/><rect class="cls-18" x="298.63" y="155.54" width="64.49" height="0.31" transform="translate(37.63 374.2) rotate(-61.89)"/><rect class="cls-18" x="440.97" y="119.8" width="0.31" height="50.33" transform="translate(19.04 338.54) rotate(-42.83)"/><path class="cls-1" d="M479.52,174.23a13.64,13.64,0,0,1-2.56,10,13,13,0,0,1-8.73,5.23l-153,21c-7.81,1.07-15-4.1-16.05-11.5a13.15,13.15,0,0,1,2.87-10.07,14.67,14.67,0,0,1,9.48-5.32l153-21A13.47,13.47,0,0,1,479.52,174.23Z" transform="translate(-0.03 0)"/><path class="cls-5" d="M479.52,174.23a13.64,13.64,0,0,1-2.56,10,13,13,0,0,1-8.73,5.23l-27.68,3.8-3.69-26.89,27.68-3.8A13.46,13.46,0,0,1,479.52,174.23Z" transform="translate(-0.03 0)"/><path class="cls-17" d="M462.71,181.52a6.73,6.73,0,0,1-1,.07,6.93,6.93,0,0,1-4.83-11.91h0a6.92,6.92,0,1,1,5.79,11.8Zm-5-11a5.78,5.78,0,1,0,8.17.09h0A5.8,5.8,0,0,0,457.71,170.52Z" transform="translate(-0.03 0)"/><rect class="cls-17" x="449.09" y="181.83" width="9.44" height="1.14" transform="translate(1.73 369.12) rotate(-44.34)"/><path class="cls-17" d="M448.08,188h0a1,1,0,0,1,0-1.41l0,0,4-3.89a1,1,0,0,1,1.41,0l0,0h0a1,1,0,0,1,0,1.41l0,0-4,3.88a1,1,0,0,1-1.41,0Z" transform="translate(-0.03 0)"/><rect class="cls-5" x="189.43" y="317.41" width="34.37" height="2.92" rx="1.46"/><path class="cls-16" d="M206.22,330.35H190.45a1,1,0,0,1-1-1h0a1,1,0,0,1,1-1h15.77a1,1,0,0,1,1,1h0a1,1,0,0,1-1,1Z" transform="translate(-0.03 0)"/><rect class="cls-16" x="189.43" y="324.19" width="29.77" height="1.99" rx="0.99"/><rect class="cls-16" x="221.9" y="324.19" width="27.8" height="1.99" rx="0.99"/><path class="cls-16" d="M225.89,330.35H210.12a1,1,0,0,1-1-1h0a1,1,0,0,1,1-1h15.77a1,1,0,0,1,1,1h0A1,1,0,0,1,225.89,330.35Z" transform="translate(-0.03 0)"/><rect class="cls-5" x="228.34" y="317.41" width="34.37" height="2.92" rx="1.46"/><rect class="cls-5" x="189.43" y="339.37" width="34.37" height="2.92" rx="1.46"/><path class="cls-16" d="M206.22,352.31H190.45a1,1,0,0,1-1-1h0a1,1,0,0,1,1-1h15.77a1,1,0,0,1,1,1h0a1,1,0,0,1-1,1Z" transform="translate(-0.03 0)"/><path class="cls-16" d="M190.45,346.15h27.78a1,1,0,0,1,1,1h0a1,1,0,0,1-1,1H190.45a1,1,0,0,1-1-1h0A1,1,0,0,1,190.45,346.15Z" transform="translate(-0.03 0)"/><path class="cls-16" d="M222.93,346.15h25.81a1,1,0,0,1,1,1h0a1,1,0,0,1-1,1H222.93a1,1,0,0,1-1-1h0A1,1,0,0,1,222.93,346.15Z" transform="translate(-0.03 0)"/><path class="cls-16" d="M225.89,352.31H210.12a1,1,0,0,1-1-1h0a1,1,0,0,1,1-1h15.77a1,1,0,0,1,1,1h0A1,1,0,0,1,225.89,352.31Z" transform="translate(-0.03 0)"/><rect class="cls-5" x="228.34" y="339.37" width="34.37" height="2.92" rx="1.46"/><polygon class="cls-10" points="388.72 208.84 370.46 213.09 361.44 229.51 354.54 192.08 388.72 208.84"/><rect class="cls-10" x="372.33" y="208.56" width="3.34" height="19.31" transform="translate(-55.91 270.15) rotate(-37.15)"/><rect class="cls-19" x="328.59" y="234.75" width="51.46" height="51.46" rx="11.56"/><rect class="cls-20" x="391.19" y="239.38" width="51.46" height="51.46" rx="3.29" transform="translate(-32.04 58.8) rotate(-7.77)"/><path class="cls-16" d="M400,282.55l7.47-19.21a3.29,3.29,0,0,1,4.26-1.88,3.36,3.36,0,0,1,1.18.79l6.77,7a3.29,3.29,0,0,0,4.65.08,2.79,2.79,0,0,0,.42-.49h0a3.28,3.28,0,0,1,5.2-.28l7.47,8.69a3.29,3.29,0,0,1-2.05,5.4L403.47,287a3.29,3.29,0,0,1-3.51-4.44Z" transform="translate(-0.03 0)"/><path class="cls-16" d="M415.94,253.68a3.94,3.94,0,1,1,4.44,3.37h0a3.92,3.92,0,0,1-4.43-3.34Z" transform="translate(-0.03 0)"/><path class="cls-16" d="M300.65,288.23h-2.83a.48.48,0,0,1-.4-.53.47.47,0,0,1,.4-.4h2.81a.48.48,0,0,1,.47.47A.46.46,0,0,1,300.65,288.23Zm-5.63,0h-2.8a.46.46,0,0,1-.53-.4.47.47,0,0,1,.39-.53H295a.46.46,0,0,1,.53.4.47.47,0,0,1-.39.53Zm-5.6,0h-2.81a.48.48,0,0,1-.4-.53.47.47,0,0,1,.4-.4h2.81a.48.48,0,0,1,.4.53A.47.47,0,0,1,289.42,288.23Zm-5.61,0H281a.46.46,0,0,1-.53-.4.47.47,0,0,1,.39-.53h2.94a.48.48,0,0,1,.4.53A.47.47,0,0,1,283.81,288.23Zm-5.61,0h-2.8a.48.48,0,0,1-.4-.53.47.47,0,0,1,.4-.4h2.8a.46.46,0,0,1,.53.4.47.47,0,0,1-.39.53Zm-5.6,0h-2.81a.48.48,0,0,1-.4-.53.47.47,0,0,1,.4-.4h2.81a.48.48,0,0,1,.4.53A.47.47,0,0,1,272.6,288.23Zm-5.61,0h-2.8a.46.46,0,0,1-.53-.4.47.47,0,0,1,.39-.53H267a.48.48,0,0,1,.4.53A.47.47,0,0,1,267,288.23Zm-5.61,0h-2.8a.48.48,0,0,1-.4-.53.47.47,0,0,1,.4-.4h2.8a.46.46,0,0,1,.53.4.47.47,0,0,1-.39.53Zm-5.6,0H253a.46.46,0,0,1-.53-.4.47.47,0,0,1,.39-.53h2.94a.48.48,0,0,1,.4.53A.47.47,0,0,1,255.78,288.23Zm-5.61,0h-2.8a.48.48,0,0,1-.4-.53.47.47,0,0,1,.4-.4h2.8a.46.46,0,0,1,.53.4.47.47,0,0,1-.39.53Zm-5.6,0h-2.81a.48.48,0,0,1-.4-.53.47.47,0,0,1,.4-.4h2.81a.48.48,0,0,1,.4.53A.47.47,0,0,1,244.57,288.23Zm-5.61,0h-2.8a.46.46,0,0,1-.53-.4.47.47,0,0,1,.39-.53H239a.48.48,0,0,1,.4.53A.47.47,0,0,1,239,288.23Zm-5.61,0h-2.8a.48.48,0,0,1-.4-.53.47.47,0,0,1,.4-.4h2.8a.46.46,0,0,1,.53.4.47.47,0,0,1-.39.53Zm-5.6,0h-2.81a.48.48,0,0,1-.4-.53.47.47,0,0,1,.4-.4h2.77a.48.48,0,0,1,.4.53.47.47,0,0,1-.4.4Zm-5.61,0h-2.8a.46.46,0,0,1-.53-.4.47.47,0,0,1,.39-.53h2.94a.46.46,0,0,1,.53.4.47.47,0,0,1-.39.53Zm-5.6,0h-2.83a.48.48,0,0,1-.4-.53.47.47,0,0,1,.4-.4h2.81a.48.48,0,0,1,.4.53.47.47,0,0,1-.4.4Zm-5.61,0h-2.8a.46.46,0,0,1-.53-.4.47.47,0,0,1,.39-.53h2.94a.48.48,0,0,1,.4.53A.47.47,0,0,1,210.93,288.23Zm-5.61,0h-2.83a.46.46,0,0,1-.43-.49h0a.45.45,0,0,1,.47-.43h2.79a.46.46,0,0,1,.53.4.47.47,0,0,1-.39.53h-.14Zm98-.81a.45.45,0,0,1-.38-.21.46.46,0,0,1,.12-.64h0a4.26,4.26,0,0,0,1.57-1.94.46.46,0,0,1,.6-.26h0a.47.47,0,0,1,.26.61,5.24,5.24,0,0,1-1.9,2.36.48.48,0,0,1-.31.08ZM200,287.25a.43.43,0,0,1-.29-.1,5.2,5.2,0,0,1-1.76-2.47.47.47,0,0,1,.3-.59.46.46,0,0,1,.58.3,4.33,4.33,0,0,0,1.45,2,.46.46,0,0,1,.08.65h0a.43.43,0,0,1-.4.21Zm105.42-4.74a.47.47,0,0,1-.46-.46v-2.81a.46.46,0,1,1,.92,0v2.81a.46.46,0,0,1-.46.46h0Zm-107.27-.29a.47.47,0,0,1-.46-.46V279a.46.46,0,0,1,.4-.53.47.47,0,0,1,.53.39.33.33,0,0,1,0,.14v2.8a.46.46,0,0,1-.46.46h0ZM305.4,276.9a.47.47,0,0,1-.46-.46v-2.76a.46.46,0,0,1,.92,0v2.8a.46.46,0,0,1-.5.42h0Zm-107.27-.28a.47.47,0,0,1-.46-.47v-2.8a.48.48,0,0,1,.53-.4.47.47,0,0,1,.4.4v2.8a.47.47,0,0,1-.47.47h0ZM305.4,271.3a.47.47,0,0,1-.46-.46h0V268a.46.46,0,0,1,.92,0v2.8a.45.45,0,0,1-.45.47h0ZM198.13,271a.48.48,0,0,1-.46-.46v-2.81a.48.48,0,0,1,.53-.4.47.47,0,0,1,.4.4v2.81a.46.46,0,0,1-.48.46h0Zm107.23-5.33a.47.47,0,0,1-.46-.46v-2.81a.46.46,0,1,1,.92,0v2.81a.47.47,0,0,1-.46.46Zm-107.27-.28a.47.47,0,0,1-.46-.47v-2.8a.46.46,0,0,1,.4-.53.47.47,0,0,1,.53.39.33.33,0,0,1,0,.14v2.8a.47.47,0,0,1-.46.48h0Zm107.27-5.33a.45.45,0,0,1-.46-.44v-2.82a.46.46,0,1,1,.92,0v2.8a.45.45,0,0,1-.43.47h0Zm-107.27-.28a.48.48,0,0,1-.46-.46v-2.81a.48.48,0,0,1,.53-.4.47.47,0,0,1,.4.4v2.81a.47.47,0,0,1-.47.47Zm107.27-5.32a.47.47,0,0,1-.46-.46h0v-2.8a.46.46,0,1,1,.92,0V254a.47.47,0,0,1-.44.48h0Zm-107.27-.29a.47.47,0,0,1-.46-.46v-2.8a.46.46,0,0,1,.4-.53.47.47,0,0,1,.53.39.33.33,0,0,1,0,.14v2.8a.47.47,0,0,1-.45.47h0Zm107.27-5.32a.47.47,0,0,1-.46-.46v-2.8a.46.46,0,0,1,.92,0v2.8a.47.47,0,0,1-.45.47h0Zm-107.27-.28a.47.47,0,0,1-.46-.47v-2.8a.48.48,0,0,1,.53-.4.47.47,0,0,1,.4.4v2.8a.47.47,0,0,1-.46.48h0Zm107.27-5.32a.47.47,0,0,1-.46-.46h0V240a.46.46,0,0,1,.92,0v2.8a.47.47,0,0,1-.44.48h0ZM198.09,243a.48.48,0,0,1-.46-.46v-2.83a.48.48,0,0,1,.53-.4.47.47,0,0,1,.4.4v2.81a.47.47,0,0,1-.45.49h0Zm107.27-5.29a.47.47,0,0,1-.46-.46v-2.81a.46.46,0,0,1,.92,0v2.81a.47.47,0,0,1-.46.46Zm-107.27-.28a.47.47,0,0,1-.46-.47v-2.8a.46.46,0,0,1,.4-.53.47.47,0,0,1,.53.39.33.33,0,0,1,0,.14v2.8a.47.47,0,0,1-.47.45Zm107.27-5.33a.45.45,0,0,1-.46-.44v-1.28a4.52,4.52,0,0,0-.22-1.37.46.46,0,0,1,.24-.6.47.47,0,0,1,.61.24s0,0,0,.07a5.2,5.2,0,0,1,.27,1.66v1.26a.45.45,0,0,1-.46.44h0Zm-107.27-.28a.48.48,0,0,1-.46-.46v-1a5,5,0,0,1,.38-2,.46.46,0,0,1,.86.35h0a4.23,4.23,0,0,0-.31,1.61v1a.47.47,0,0,1-.46.48h0Zm105.42-4.74a.52.52,0,0,1-.29-.09,4.28,4.28,0,0,0-2.33-.88.45.45,0,0,1-.43-.47v0a.46.46,0,0,1,.49-.43h0a5.16,5.16,0,0,1,2.84,1.06.46.46,0,0,1,.1.64A.47.47,0,0,1,303.51,227.05Zm-103.33-.16a.47.47,0,0,1-.39-.21.47.47,0,0,1,.13-.64h0a5.13,5.13,0,0,1,2.89-.89h0a.47.47,0,0,1,.46.46h0a.47.47,0,0,1-.46.47,4.2,4.2,0,0,0-2.38.73.54.54,0,0,1-.25.06Zm97.94-.81h-2.8a.46.46,0,0,1-.53-.4.47.47,0,0,1,.39-.53.33.33,0,0,1,.14,0h2.8a.48.48,0,0,1,.4.53A.47.47,0,0,1,298.12,226.08Zm-5.61,0h-2.8a.48.48,0,0,1-.4-.53.47.47,0,0,1,.4-.4h2.8a.46.46,0,0,1,.53.4.47.47,0,0,1-.39.53Zm-5.6,0H284.1a.48.48,0,0,1-.4-.53.47.47,0,0,1,.4-.4h2.81a.48.48,0,0,1,.4.53A.47.47,0,0,1,286.91,226.08Zm-5.61,0h-2.8a.46.46,0,0,1-.53-.4.47.47,0,0,1,.39-.53.33.33,0,0,1,.14,0h2.8a.48.48,0,0,1,.4.53A.47.47,0,0,1,281.3,226.08Zm-5.61,0h-2.8a.48.48,0,0,1-.4-.53.47.47,0,0,1,.4-.4h2.82a.46.46,0,0,1,.53.4.47.47,0,0,1-.39.53h-.16Zm-5.6,0h-2.8a.46.46,0,0,1-.53-.4.47.47,0,0,1,.39-.53.33.33,0,0,1,.14,0h2.8a.48.48,0,0,1,.4.53A.47.47,0,0,1,270.09,226.08Zm-5.61,0h-2.77a.48.48,0,0,1-.4-.53.47.47,0,0,1,.4-.4h2.8a.46.46,0,0,1,.53.4.47.47,0,0,1-.39.53h-.17Zm-5.6,0h-2.81a.48.48,0,0,1-.4-.53.47.47,0,0,1,.4-.4h2.81a.48.48,0,0,1,.4.53A.47.47,0,0,1,258.88,226.08Zm-5.61,0h-2.8a.46.46,0,0,1-.53-.4.47.47,0,0,1,.39-.53.33.33,0,0,1,.14,0h2.8a.48.48,0,0,1,.4.53A.47.47,0,0,1,253.27,226.08Zm-5.61,0h-2.8a.48.48,0,0,1-.4-.53.47.47,0,0,1,.4-.4h2.85a.46.46,0,0,1,.53.4.47.47,0,0,1-.39.53h-.19Zm-5.6,0h-2.81a.48.48,0,0,1-.4-.53.47.47,0,0,1,.4-.4h2.81a.48.48,0,0,1,.4.53A.47.47,0,0,1,242.06,226.08Zm-5.61,0h-2.8a.46.46,0,0,1-.53-.4.47.47,0,0,1,.39-.53.33.33,0,0,1,.14,0h2.8a.46.46,0,0,1,.53.4.47.47,0,0,1-.39.53Zm-5.6,0H228a.48.48,0,0,1-.4-.53.47.47,0,0,1,.4-.4h2.81a.48.48,0,0,1,.4.53A.47.47,0,0,1,230.85,226.08Zm-5.61,0h-2.8a.46.46,0,0,1-.53-.4.47.47,0,0,1,.39-.53.33.33,0,0,1,.14,0h2.8a.48.48,0,0,1,.4.53A.47.47,0,0,1,225.24,226.08Zm-5.61,0h-2.8a.48.48,0,0,1-.4-.53.47.47,0,0,1,.4-.4h2.8a.46.46,0,0,1,.53.4.47.47,0,0,1-.39.53Zm-5.6,0h-2.81a.48.48,0,0,1-.4-.53.47.47,0,0,1,.4-.4H214a.48.48,0,0,1,.4.53A.47.47,0,0,1,214,226.08Zm-5.61,0h-2.8a.46.46,0,0,1-.53-.4.47.47,0,0,1,.39-.53.33.33,0,0,1,.14,0h2.8a.46.46,0,0,1,.53.4.47.47,0,0,1-.39.53Z" transform="translate(-0.03 0)"/><path class="cls-16" d="M460,366h-2.51a.41.41,0,0,1-.41-.41h0a.43.43,0,0,1,.41-.41H460a.42.42,0,0,1,.42.41.4.4,0,0,1-.39.41Zm-5,0h-2.48a.41.41,0,0,1-.41-.41h0a.41.41,0,0,1,.41-.41H455a.41.41,0,0,1,.41.41h0a.42.42,0,0,1-.4.41Zm-5,0H447.5a.41.41,0,0,1-.41-.41h0a.43.43,0,0,1,.41-.41H450a.43.43,0,0,1,.41.41.41.41,0,0,1-.36.41Zm-5,0h-2.48a.41.41,0,0,1-.41-.41h0a.41.41,0,0,1,.41-.41H445a.41.41,0,0,1,.41.41h0a.42.42,0,0,1-.33.41Zm-5,0h-2.48a.41.41,0,0,1-.41-.41h0a.41.41,0,0,1,.41-.41H440a.41.41,0,0,1,.41.41h0a.41.41,0,0,1-.3.41Zm-5,0H432.5a.41.41,0,0,1-.41-.41h0a.43.43,0,0,1,.41-.41H435a.43.43,0,0,1,.41.41.41.41,0,0,1-.26.41Zm-5,0h-2.28a.41.41,0,0,1-.41-.41h0a.41.41,0,0,1,.41-.41h2.48a.41.41,0,0,1,.41.41h0a.41.41,0,0,1-.41.41H430Zm-5,0h-2.28a.41.41,0,0,1-.41-.41h0a.41.41,0,0,1,.41-.41h2.48a.42.42,0,0,1,.42.41.41.41,0,0,1-.41.41H425Zm-5,0h-2.48a.41.41,0,0,1-.42-.4h0a.42.42,0,0,1,.42-.41H420a.41.41,0,0,1,.41.41h0a.4.4,0,0,1-.16.41Zm-5,0h-2.5a.41.41,0,0,1,0-.82H415a.41.41,0,0,1,.41.41h0a.41.41,0,0,1-.09.41Zm46.32-1.57h0a.41.41,0,0,1-.4-.42h0v-2.47a.41.41,0,0,1,.41-.41h0a.41.41,0,0,1,.41.41h0v2.49a.41.41,0,0,1-.14.4ZM411,364.39a.41.41,0,0,1-.41-.41h0v-2.48a.41.41,0,1,1,.82,0V364a.42.42,0,0,1-.13.42Zm50.34-4.9a.42.42,0,0,1-.41-.42v-2.48a.41.41,0,0,1,.41-.41h0a.41.41,0,0,1,.41.41h0v2.48a.42.42,0,0,1-.13.42ZM411,359.42a.41.41,0,0,1-.41-.41h0v-2.49a.41.41,0,0,1,.82,0h0V359a.4.4,0,0,1-.13.41Zm50.34-4.9a.41.41,0,0,1-.41-.41h0v-2.43a.42.42,0,0,1,.41-.42.41.41,0,0,1,.41.41h0v2.48a.41.41,0,0,1-.13.36ZM411,354.45a.41.41,0,0,1-.41-.41h0v-2.5a.41.41,0,0,1,.43-.39h0a.41.41,0,0,1,.39.43h0V354a.4.4,0,0,1-.13.41Zm48.79-4h-2.48a.42.42,0,0,1-.35-.48.42.42,0,0,1,.35-.35h2.5a.4.4,0,0,1,.39.41h0a.42.42,0,0,1-.13.37Zm-5,0h-2.49a.42.42,0,0,1-.35-.48.42.42,0,0,1,.35-.35h2.49a.42.42,0,0,1,.35.48A.42.42,0,0,1,454.76,350.45Zm-5,0h-2.48a.42.42,0,0,1-.35-.48.42.42,0,0,1,.35-.35h2.48a.42.42,0,0,1,.35.48A.42.42,0,0,1,449.76,350.45Zm-5,0h-2.05a.42.42,0,0,1-.35-.48.42.42,0,0,1,.35-.35h2.49a.42.42,0,0,1,.35.48.42.42,0,0,1-.35.35Zm-5,0h-2.05a.42.42,0,1,1-.13-.83h2.61a.42.42,0,0,1,.35.48.42.42,0,0,1-.35.35Zm-5,0h-2.05a.42.42,0,0,1-.35-.48.42.42,0,0,1,.35-.35h2.48a.42.42,0,0,1,.35.48.42.42,0,0,1-.35.35Zm-5,0h-2.49a.42.42,0,0,1-.35-.48.42.42,0,0,1,.35-.35h2.49a.42.42,0,0,1,.35.48A.42.42,0,0,1,429.76,350.45Zm-5,0h-2.48a.42.42,0,0,1-.35-.48.42.42,0,0,1,.35-.35h2.48a.42.42,0,0,1,.35.48A.42.42,0,0,1,424.76,350.45Zm-5,0h-2.48a.42.42,0,0,1-.35-.48.42.42,0,0,1,.35-.35h2.48a.42.42,0,0,1,.35.48A.42.42,0,0,1,419.76,350.45Zm-5,0h-2.48a.42.42,0,0,1,0-.83h2.49a.42.42,0,0,1,.35.48.42.42,0,0,1-.35.35Z" transform="translate(-0.03 0)"/><path class="cls-16" d="M282.62,217.84h-2.76a.46.46,0,0,1-.53-.4.47.47,0,0,1,.39-.53h2.89a.47.47,0,0,1,0,.93Zm-5.51,0h-2.75a.48.48,0,0,1-.4-.53.47.47,0,0,1,.4-.4h2.75a.48.48,0,0,1,.4.53A.47.47,0,0,1,277.11,217.84Zm-5.49,0h-2.75a.46.46,0,0,1-.53-.4.47.47,0,0,1,.39-.53h2.89a.48.48,0,0,1,.4.53A.47.47,0,0,1,271.62,217.84Zm-5.5,0h-2.75a.48.48,0,0,1-.4-.53.47.47,0,0,1,.4-.4h2.75a.48.48,0,0,1,.4.53A.47.47,0,0,1,266.12,217.84Zm-5.5,0h-2.74a.46.46,0,0,1-.53-.4.47.47,0,0,1,.39-.53h2.88a.46.46,0,0,1,.53.4.47.47,0,0,1-.39.53Zm-5.49,0h-2.75a.48.48,0,0,1-.4-.53.47.47,0,0,1,.4-.4h2.75a.48.48,0,0,1,.4.53A.47.47,0,0,1,255.13,217.84Zm-5.5,0h-2.74a.46.46,0,0,1-.53-.4.47.47,0,0,1,.39-.53h2.88a.46.46,0,0,1,.53.4.47.47,0,0,1-.39.53Zm-5.44-.3a.46.46,0,0,1-.23-.06,2.75,2.75,0,0,1-1.39-2.39v-.34a.47.47,0,0,1,.93,0v.34a1.78,1.78,0,0,0,.92,1.58.47.47,0,0,1,.17.64A.46.46,0,0,1,244.19,217.54Zm40.52-1.18h-.16a.47.47,0,0,1-.27-.6,1.72,1.72,0,0,0,.11-.64V213.2a.46.46,0,0,1,.4-.53.47.47,0,0,1,.53.39.33.33,0,0,1,0,.14v1.92a3.09,3.09,0,0,1-.17,1A.47.47,0,0,1,284.71,216.36ZM243,212.47a.47.47,0,0,1-.46-.46v-2.75a.47.47,0,0,1,.45-.47h0a.47.47,0,0,1,.47.47h0V212a.48.48,0,0,1-.44.46Zm41.86-1.59a.47.47,0,0,1-.47-.46v-2.74a.48.48,0,0,1,.53-.4.47.47,0,0,1,.4.4v2.75a.47.47,0,0,1-.43.45ZM243,207a.47.47,0,0,1-.46-.46h0v-2.75a.47.47,0,0,1,.93,0v2.75a.47.47,0,0,1-.44.47Zm41.86-1.59a.47.47,0,0,1-.47-.47h0v-2.75a.48.48,0,0,1,.53-.4.47.47,0,0,1,.4.4v2.75a.48.48,0,0,1-.43.47ZM243,201.48a.47.47,0,0,1-.46-.46v-2.75a.47.47,0,0,1,.45-.47h0a.47.47,0,0,1,.47.47h0V201a.48.48,0,0,1-.44.46Zm41.86-1.59a.47.47,0,0,1-.47-.46v-2.75a.46.46,0,0,1,.4-.53.47.47,0,0,1,.53.39.33.33,0,0,1,0,.14v2.75a.47.47,0,0,1-.43.46ZM243,196a.45.45,0,0,1-.46-.44v-2.77a.47.47,0,0,1,.93,0v2.75a.45.45,0,0,1-.44.46Zm41.86-1.58a.47.47,0,0,1-.47-.47h0v-2.75a.48.48,0,0,1,.53-.4.47.47,0,0,1,.4.4v2.75a.48.48,0,0,1-.43.47ZM243,190.49a.47.47,0,0,1-.46-.46h0v-2.74a.47.47,0,0,1,.45-.47h0a.47.47,0,0,1,.47.47h0V190a.47.47,0,0,1-.44.47Zm41.86-1.59a.47.47,0,0,1-.47-.46v-2.76a.46.46,0,0,1,.4-.53.47.47,0,0,1,.53.39.33.33,0,0,1,0,.14v2.75a.48.48,0,0,1-.43.47ZM243,185a.45.45,0,0,1-.46-.44v-1.94a2.85,2.85,0,0,1,.18-1,.45.45,0,0,1,.58-.26h0a.46.46,0,0,1,.27.59,1.81,1.81,0,0,0-.11.65v1.92a.47.47,0,0,1-.44.48h0Zm41.86-1.59a.47.47,0,0,1-.47-.45h0v-.33a1.82,1.82,0,0,0-.92-1.58.46.46,0,0,1-.19-.62v0a.46.46,0,0,1,.63-.17h0a2.72,2.72,0,0,1,1.4,2.39v.33a.47.47,0,0,1-.43.46ZM281,180.79h-2.75a.47.47,0,0,1-.46-.46.46.46,0,0,1,.46-.46H281a.46.46,0,0,1,0,.92Zm-5.5,0h-2.75a.47.47,0,0,1-.46-.46.46.46,0,0,1,.46-.46h2.75a.46.46,0,0,1,0,.92Zm-5.5,0h-2.74a.47.47,0,0,1-.46-.46.46.46,0,0,1,.46-.46H270a.47.47,0,0,1,.46.46.46.46,0,0,1-.46.46Zm-5.49,0h-2.75a.47.47,0,0,1-.46-.46.46.46,0,0,1,.46-.46h2.75a.47.47,0,0,1,.46.46.46.46,0,0,1-.46.46Zm-5.5,0h-2.74a.47.47,0,0,1-.46-.46.46.46,0,0,1,.46-.46H259a.47.47,0,0,1,.46.46.46.46,0,0,1-.46.46Zm-5.49,0h-2.75a.47.47,0,0,1-.46-.46.46.46,0,0,1,.46-.46h2.75a.47.47,0,0,1,.46.46.46.46,0,0,1-.46.46Zm-5.5,0h-2.71a.47.47,0,0,1-.46-.46.45.45,0,0,1,.44-.46h2.76a.47.47,0,0,1,.46.46.46.46,0,0,1-.46.46h0Z" transform="translate(-0.03 0)"/><path class="cls-16" d="M460,388.94h-2.51a.41.41,0,1,1,0-.82H460a.42.42,0,0,1,.42.41.4.4,0,0,1-.39.41Zm-5,0h-2.48a.41.41,0,1,1,0-.82H455a.41.41,0,1,1,0,.82Zm-5,0H447.5a.41.41,0,1,1,0-.82H450a.41.41,0,1,1,0,.82Zm-5,0h-2.48a.41.41,0,1,1,0-.82H445a.41.41,0,1,1,0,.82Zm-5,0h-2.48a.41.41,0,1,1,0-.82H440a.41.41,0,1,1,0,.82Zm-5,0H432.5a.41.41,0,1,1,0-.82H435a.41.41,0,1,1,0,.82Zm-5,0h-2.28a.41.41,0,1,1,0-.82h2.48a.41.41,0,1,1,0,.82Zm-5,0h-2.28a.41.41,0,1,1,0-.82h2.48a.41.41,0,1,1,0,.82Zm-5,0h-2.48a.41.41,0,1,1,0-.82H420a.41.41,0,0,1,0,.82Zm-5,0h-2.5a.41.41,0,0,1-.39-.43h0a.38.38,0,0,1,.39-.39H415a.41.41,0,0,1,0,.82Zm46.32-1.57h0a.41.41,0,0,1-.4-.42h0v-2.47a.43.43,0,0,1,.41-.41.41.41,0,0,1,.41.41h0V387a.41.41,0,0,1-.14.4ZM411,387.3a.41.41,0,0,1-.41-.41h0v-2.48a.41.41,0,1,1,.82,0v2.48a.4.4,0,0,1-.13.41Zm50.34-4.9a.41.41,0,0,1-.41-.41h0v-2.48a.41.41,0,0,1,.41-.41h0a.41.41,0,0,1,.41.41h0V382a.4.4,0,0,1-.13.41ZM411,382.34a.41.41,0,0,1-.41-.41h0v-2.49a.41.41,0,1,1,.82,0v2.49a.4.4,0,0,1-.13.41Zm50.34-4.9a.43.43,0,0,1-.41-.41v-2.49a.43.43,0,0,1,.41-.41.41.41,0,0,1,.41.41h0V377a.4.4,0,0,1-.13.41ZM411,377.37a.41.41,0,0,1-.41-.41h0v-2.5a.38.38,0,0,1,.39-.39h0a.4.4,0,0,1,.39.41h0V377a.4.4,0,0,1-.13.41Zm48.79-4.05h-2.48a.41.41,0,0,1-.41-.41h0a.41.41,0,0,1,.41-.41h2.5a.41.41,0,0,1,.39.43h0a.41.41,0,0,1-.13.39Zm-5,0h-2.49a.41.41,0,0,1-.41-.41h0a.43.43,0,0,1,.41-.41h2.49a.43.43,0,0,1,.41.41.41.41,0,0,1-.09.41Zm-5,0h-2.48a.41.41,0,0,1-.41-.41h0a.41.41,0,0,1,.41-.41h2.48a.41.41,0,0,1,.41.41h0a.41.41,0,0,1-.06.41Zm-5,0h-2.05a.41.41,0,0,1-.41-.41h0a.41.41,0,0,1,.41-.41h2.49a.43.43,0,0,1,.41.41.41.41,0,0,1-.41.41h-.44Zm-5,0h-2.05a.41.41,0,0,1-.42-.4h0a.42.42,0,0,1,.42-.41h2.48a.41.41,0,0,1,.41.41h0a.41.41,0,0,1-.41.41h-.43Zm-5,0h-2.05a.41.41,0,0,1-.41-.41h0a.41.41,0,0,1,.41-.41h2.48a.41.41,0,0,1,.41.41h0a.41.41,0,0,1-.39.41Zm-5,0h-2.49a.41.41,0,0,1-.41-.41h0a.43.43,0,0,1,.41-.41h2.49a.43.43,0,0,1,.41.41.41.41,0,0,1,.08.41Zm-5,0h-2.48a.41.41,0,0,1-.41-.41h0a.41.41,0,0,1,.41-.41h2.48a.41.41,0,0,1,.41.41h0a.42.42,0,0,1,.11.41Zm-5,0h-2.48a.41.41,0,0,1-.41-.41h0a.41.41,0,0,1,.41-.41h2.48a.41.41,0,0,1,.41.41h0a.4.4,0,0,1,.14.41Zm-5,0h-2.48a.41.41,0,0,1,0-.82h2.49a.43.43,0,0,1,.41.41.41.41,0,0,1,.17.41Z" transform="translate(-0.03 0)"/><path class="cls-16" d="M264,371.68h-2.48a.42.42,0,0,1-.35-.48.42.42,0,0,1,.35-.35H264a.42.42,0,0,1,.42.42h0A.42.42,0,0,1,264,371.68Zm-4.94,0h-2.47a.42.42,0,0,1-.35-.48.42.42,0,0,1,.35-.35h2.47a.42.42,0,0,1,.35.48A.42.42,0,0,1,259.09,371.68Zm-4.93,0h-2.45a.42.42,0,0,1-.35-.48.42.42,0,0,1,.35-.35h2.46a.42.42,0,0,1,.35.48.42.42,0,0,1-.35.35Zm-4.92,0h-2.46a.42.42,0,0,1-.35-.48.42.42,0,0,1,.35-.35h2.46a.42.42,0,0,1,.35.48A.42.42,0,0,1,249.24,371.68Zm-4.92,0h-2.47a.42.42,0,0,1-.35-.48.42.42,0,0,1,.35-.35h2.47a.42.42,0,0,1,.35.48A.42.42,0,0,1,244.32,371.68Zm-4.93,0h-2.46a.42.42,0,0,1-.35-.48.42.42,0,0,1,.35-.35h2.46a.42.42,0,0,1,.35.48A.42.42,0,0,1,239.39,371.68Zm-4.92,0H232a.42.42,0,0,1-.35-.48.42.42,0,0,1,.35-.35h2.46a.42.42,0,0,1,.35.48A.42.42,0,0,1,234.47,371.68Zm-4.92,0h-2.47a.42.42,0,0,1-.35-.48.42.42,0,0,1,.35-.35h2.47a.42.42,0,0,1,.35.48A.42.42,0,0,1,229.55,371.68Zm-4.93,0h-2.46a.42.42,0,0,1-.35-.48.42.42,0,0,1,.35-.35h2.46a.42.42,0,0,1,.35.48A.42.42,0,0,1,224.62,371.68Zm-4.91,0h-2.46a.42.42,0,0,1-.35-.48.42.42,0,0,1,.35-.35h2.46a.42.42,0,0,1,.35.48A.42.42,0,0,1,219.71,371.68Zm-4.92,0h-2.48a.42.42,0,0,1-.35-.48.42.42,0,0,1,.35-.35h2.47a.42.42,0,0,1,.35.48.42.42,0,0,1-.35.35Zm-4.93,0H207.4a.42.42,0,0,1-.35-.48.42.42,0,0,1,.35-.35h2.46a.42.42,0,0,1,.35.48A.42.42,0,0,1,209.86,371.68Zm-4.92,0h-2.46a.42.42,0,0,1-.35-.48.42.42,0,0,1,.35-.35h2.46a.42.42,0,0,1,.35.48A.42.42,0,0,1,204.94,371.68Zm-4.92,0h-2.47a.42.42,0,0,1-.35-.48.42.42,0,0,1,.35-.35H200a.42.42,0,0,1,.35.48A.42.42,0,0,1,200,371.68Zm-4.93,0h-2.46a.42.42,0,0,1-.35-.48.42.42,0,0,1,.35-.35h2.46a.42.42,0,0,1,.35.48A.42.42,0,0,1,195.09,371.68Zm-4.92,0h-2.54a.41.41,0,0,1-.36-.45h0a.41.41,0,0,1,.45-.36h2.45a.42.42,0,0,1,.35.48.42.42,0,0,1-.35.35Zm76.19-.71a.41.41,0,0,1-.43-.39.43.43,0,0,1,.2-.37,3.69,3.69,0,0,0,1.38-1.69.41.41,0,1,1,.76.32,4.48,4.48,0,0,1-1.69,2.06.48.48,0,0,1-.23.07Zm-80.88-.29a.45.45,0,0,1-.27-.1,4.63,4.63,0,0,1-1.44-2.24.39.39,0,0,1,.26-.5h0a.41.41,0,0,1,.51.28,3.69,3.69,0,0,0,1.18,1.84.4.4,0,0,1,.06.58.41.41,0,0,1-.32.15Zm82.72-4a.41.41,0,0,1-.41-.41h0v-2.46a.41.41,0,0,1,.41-.41h0a.41.41,0,0,1,.41.41h0v2.46a.41.41,0,0,1-.41.41ZM184,366.2a.41.41,0,0,1-.41-.41h0v-2.46a.41.41,0,1,1,.82,0v2.46a.42.42,0,0,1-.41.4Zm84.2-4.44a.43.43,0,0,1-.41-.41v-2.47a.42.42,0,0,1,.41-.42.41.41,0,0,1,.41.41h0v2.46a.41.41,0,0,1-.41.41h0Zm-84.2-.48a.41.41,0,0,1-.41-.41h0v-2.46a.41.41,0,0,1,.82,0v2.46a.42.42,0,0,1-.41.4Zm84.2-4.45a.41.41,0,0,1-.41-.41h0V354a.43.43,0,0,1,.41-.41.41.41,0,0,1,.41.41h0v2.46a.42.42,0,0,1-.41.4Zm-84.2-.47a.41.41,0,0,1-.41-.41h0v-2.46a.41.41,0,0,1,.82,0v2.46a.41.41,0,0,1-.41.41h0Zm84.2-4.45a.41.41,0,0,1-.41-.41h0V349a.41.41,0,0,1,.41-.41h0a.41.41,0,0,1,.41.41h0v2.46a.42.42,0,0,1-.41.4Zm-84.2-.48a.41.41,0,0,1-.41-.41h0v-2.46a.41.41,0,0,1,.82,0V351a.42.42,0,0,1-.41.4ZM268.2,347a.43.43,0,0,1-.41-.41v-2.46a.42.42,0,0,1,.41-.42.41.41,0,0,1,.41.41h0v2.46a.42.42,0,0,1-.41.4Zm-84.2-.48a.41.41,0,0,1-.41-.41h0v-2.42a.41.41,0,0,1,.82,0v2.46a.41.41,0,0,1-.41.36Zm84.2-4.45a.41.41,0,0,1-.41-.41h0v-2.47a.43.43,0,0,1,.41-.41.41.41,0,0,1,.41.41h0v2.5a.41.41,0,0,1-.41.37Zm-84.2-.47a.41.41,0,0,1-.41-.41h0v-2.49a.41.41,0,0,1,.82,0h0v2.46a.41.41,0,0,1-.38.44h0Zm84.2-4.45a.41.41,0,0,1-.41-.41h0v-2.46a.41.41,0,0,1,.41-.41h0a.41.41,0,0,1,.41.41h0v2.41a.41.41,0,0,1-.37.45h0Zm-84.2-.48a.41.41,0,0,1-.41-.41h0v-2.47a.41.41,0,1,1,.82,0v2.46a.41.41,0,0,1-.38.44h0Zm84.2-4.44a.43.43,0,0,1-.41-.41v-2.46a.42.42,0,0,1,.41-.42.41.41,0,0,1,.41.41h0v2.46a.42.42,0,0,1-.41.4Zm-84.2-.48a.41.41,0,0,1-.41-.41h0v-2.46a.41.41,0,1,1,.82,0v2.46a.42.42,0,0,1-.41.4Zm84.2-4.45a.41.41,0,0,1-.41-.41h0v-2.46a.43.43,0,0,1,.41-.41.41.41,0,0,1,.41.41h0v2.46a.42.42,0,0,1-.41.4Zm-84.2-.47a.41.41,0,0,1-.41-.41h0v-2.46a.41.41,0,1,1,.82,0v2.46a.41.41,0,0,1-.41.41h0Zm84.2-4.45a.41.41,0,0,1-.41-.41h0V319.5a.41.41,0,0,1,.41-.41h0a.41.41,0,0,1,.41.41h0V322a.42.42,0,0,1-.41.4Zm-84.2-.48a.41.41,0,0,1-.41-.41h0V319a.41.41,0,0,1,.82,0v2.46a.42.42,0,0,1-.41.4Zm84.2-4.44a.43.43,0,0,1-.41-.41v-2.46a.42.42,0,0,1,.41-.42.41.41,0,0,1,.41.41h0V317a.42.42,0,0,1-.41.4ZM184,317a.41.41,0,0,1-.41-.41h0V314.1a.41.41,0,1,1,.82,0v2.46a.42.42,0,0,1-.41.4Zm84-4.43a.41.41,0,0,1-.39-.3,3.8,3.8,0,0,0-1.19-1.83.41.41,0,1,1,.53-.63A4.72,4.72,0,0,1,268.4,312a.41.41,0,0,1-.29.5H268Zm-83.72-.45h-.16a.42.42,0,0,1-.22-.54,4.56,4.56,0,0,1,1.7-2.06.41.41,0,1,1,.45.69,3.77,3.77,0,0,0-1.39,1.69.43.43,0,0,1-.34.21Zm80.18-2.55h0a3.23,3.23,0,0,0-.44,0h-2a.41.41,0,1,1,0-.82h2a4.69,4.69,0,0,1,.53,0,.39.39,0,0,1,.36.43v0a.4.4,0,0,1-.36.36Zm-4.93,0h-2.42a.41.41,0,1,1,0-.82h2.46a.41.41,0,1,1,0,.82Zm-4.92,0h-2.46a.41.41,0,0,1,0-.82h2.46a.41.41,0,0,1,0,.82Zm-4.92,0h-2.46a.41.41,0,0,1,0-.82h2.48a.41.41,0,0,1,0,.82Zm-4.93,0H242.3a.41.41,0,1,1,0-.82h2.46a.41.41,0,0,1,0,.82Zm-4.92,0h-2.46a.41.41,0,0,1,0-.82h2.46a.41.41,0,0,1,0,.82Zm-4.92,0h-2.46a.41.41,0,0,1,0-.82h2.46a.41.41,0,1,1,0,.82Zm-4.93,0h-2.46a.41.41,0,0,1,0-.82H230a.41.41,0,0,1,0,.82Zm-4.92,0h-2.46a.41.41,0,1,1,0-.82h2.46a.41.41,0,0,1,0,.82Zm-4.92,0h-2.44a.41.41,0,0,1,0-.82h2.46a.41.41,0,1,1,0,.82Zm-4.93,0h-2.46a.41.41,0,0,1,0-.82h2.46a.41.41,0,0,1,0,.82Zm-4.92,0h-2.46a.41.41,0,0,1,0-.82h2.46a.41.41,0,0,1,0,.82Zm-4.92,0h-2.46a.41.41,0,1,1,0-.82h2.46a.41.41,0,0,1,0,.82Zm-4.93,0H198a.41.41,0,1,1,0-.82h2.46a.41.41,0,1,1,0,.82Zm-4.92,0h-2.42a.41.41,0,1,1,0-.82h2.46a.41.41,0,1,1,0,.82Zm-4.92,0h-2.46a.41.41,0,0,1-.41-.41h0a.41.41,0,0,1,.41-.41h2.46a.41.41,0,1,1,0,.82Z" transform="translate(-0.03 0)"/><rect class="cls-20" x="184.54" y="234.05" width="107.27" height="62.18" rx="13.66"/><path class="cls-5" d="M226.1,252.8v24.67a1.94,1.94,0,0,0,1.94,1.94,2.06,2.06,0,0,0,1.06-.32l18.75-12.34a1.93,1.93,0,0,0,.56-2.67,2.13,2.13,0,0,0-.56-.56L229.1,251.18a1.94,1.94,0,0,0-3,1.62Z" transform="translate(-0.03 0)"/><path class="cls-4" d="M190.15,290.61a1.93,1.93,0,1,1,1.93,1.93h0a1.92,1.92,0,0,1-1.92-1.92Z" transform="translate(-0.03 0)"/><path class="cls-4" d="M279.71,291.13H192.59a.52.52,0,0,1-.52-.52h0a.51.51,0,0,1,.51-.51h87.13a.51.51,0,0,1,.51.51h0a.51.51,0,0,1-.5.52Z" transform="translate(-0.03 0)"/><rect class="cls-21" x="284.86" y="309.09" width="55.5" height="82.84"/><path class="cls-14" d="M318,335.68h-.75v-3.41a2.21,2.21,0,0,1,2.22-2.22h9.38a1.47,1.47,0,0,0,1.42-1.09l1.48-5.64a1.45,1.45,0,0,0-.25-1.27,1.47,1.47,0,0,0-1.16-.57H318.05v-.76H330.3a2.23,2.23,0,0,1,2.22,2.24,2.08,2.08,0,0,1-.07.55L331,329.15a2.22,2.22,0,0,1-2.15,1.66h-9.38a1.47,1.47,0,0,0-1.47,1.46Z" transform="translate(-0.03 0)"/><rect class="cls-5" x="308.16" y="317.92" width="21.07" height="6.41" rx="3.2"/><path class="cls-14" d="M317.58,349.88h0a2.09,2.09,0,0,1-2.08-2.09V335.14a2.08,2.08,0,0,1,2.07-2.09h0a2.08,2.08,0,0,1,2.09,2.07v12.67a2.1,2.1,0,0,1-2.09,2.09Z" transform="translate(-0.03 0)"/><path class="cls-7" d="M397.48,377.31s1.43,4.42,1.31,5.44a19.8,19.8,0,0,1-1.67,5.35c-.64.88-1-3.6-1.47-4.28s-.11,1.69-.47,1.91-1.1-1.74-1.43-2.43.79-3.24.79-5S397.48,377.31,397.48,377.31Z" transform="translate(-0.03 0)"/><path class="cls-10" d="M363.71,342.17a6.28,6.28,0,0,1,9.46-5.91l.26.17C380,340.62,394,360.18,395,362.14s3.81,17.54,3.81,17.54-3.53,1.29-5.18-.05c0,0-5.72-14.78-6.56-15.52S364.15,351,364,346.37C363.91,345.15,363.81,343.68,363.71,342.17Z" transform="translate(-0.03 0)"/><path class="cls-22" d="M403,456.68s2.62,2.39,2.11,4.1-2.88,2.83-3.2,4.92-1.61,3.21-2.76,3.21h-5.47s-.85-1.46,1.2-1.9,2.82-2.89,2.69-5.16a40.77,40.77,0,0,1,.19-5.3l4.36-1Z" transform="translate(-0.03 0)"/><path class="cls-22" d="M370.81,462.88s.47,5.45-.68,6H355.37s0-1.71,2.37-2.08,6.53-1.77,7.24-4.86S370.81,462.88,370.81,462.88Z" transform="translate(-0.03 0)"/><path class="cls-11" d="M358.35,385.83s.78,9.56,1.69,21.05c1.25,15.61,2.74,34.79,2.89,38.42.25,6.31,1.28,16.4,1.28,16.4s2.43,2.4,7.3,1.39a163.36,163.36,0,0,0,5.58-29.65l.06-.75c1.15-15.51,2.94-48.18,2.94-48.18Z" transform="translate(-0.03 0)"/><path class="cls-23" d="M358.35,385.83s.78,9.56,1.69,21.05l17,26.56.06-.75c1.15-15.51,2.94-48.18,2.94-48.18Z" transform="translate(-0.03 0)"/><path class="cls-11" d="M361.9,387s14,34.62,23.25,50.89,12.11,20.82,12.11,20.82,5.28-2.08,5.77-3.5c0,0-3.53-31.41-9.71-39.07-3.49-4.32-7.59-17.31-7.78-21.85s-1.25-13.58-1.25-13.58Z" transform="translate(-0.03 0)"/><path class="cls-7" d="M374,335s-9.4,4.76-14.9,3.17a12.84,12.84,0,0,1,3.64-3c-.21-1.1-.38-2.05-.48-2.85a26,26,0,0,1-.29-2.92l3.61-3L369,323.6A14,14,0,0,0,374,335Z" transform="translate(-0.03 0)"/><path class="cls-14" d="M383.33,383.46a38.63,38.63,0,0,1-11.59,5c-5,1.18-11,.83-13.09,1.14a.78.78,0,0,1-.59-.15c-.16-.08-1.06-6.13-2-13.76,0-.31-.08-.62-.09-.93v-.1c-.35-3-.66-6.12-.92-9.26-.22-2.45-.4-4.87-.52-7.14-.16-2.84-.22-5.45-.16-7.6a24.37,24.37,0,0,1,.17-2.63,18.79,18.79,0,0,1,4.67-10l1.66-1.89a9.07,9.07,0,0,0,5.75-1.47c2-1.33,4.22-2.77,4.64-2.53,3.11,1.7,5.64,6.11,7.45,11.94a66.51,66.51,0,0,1,2.34,11.18c.16,1.25.3,2.53.41,3.81l.06.71c.24,3.49.64,6.76,1.08,9.68.6,3.94,1.27,7.24,1.75,9.57.24,1.18.42,2.1.53,2.75S383.84,383.14,383.33,383.46Z" transform="translate(-0.03 0)"/><path class="cls-13" d="M369.12,326.58s-2.32,4.42-6.86,5.74a26,26,0,0,1-.29-2.92l3.61-3Z" transform="translate(-0.03 0)"/><path class="cls-7" d="M360.3,329.31s9.08,1.3,9.82-4.28,2.41-9.18-3.35-10.24-7.18.91-7.89,2.72S358,328.82,360.3,329.31Z" transform="translate(-0.03 0)"/><path class="cls-6" d="M373.2,314c.08-.09.26-.17.69-.21a1.72,1.72,0,0,0-.8-.2,2.11,2.11,0,0,0-1.44-1.85,1.31,1.31,0,0,1,.63.9c-1.2-1.18-3.72-2-10.64-1.32-9.13.91-6,6.7-4.81,7.37s4.14-1.29,6.35-1.16,2.69,3.31,3.45,3.73.45-.35,1.45-.82,1.13,1.2.86,2.29,1.15,2.51,1.15,2.51l1.38-1.54c1.37-1.54,2.57-8,1.9-9.34Z" transform="translate(-0.03 0)"/><path class="cls-10" d="M370.31,351.15s-7.66,5.82-15.77,7.1c-.16-2.84-.22-5.45-.16-7.6Z" transform="translate(-0.03 0)"/><path class="cls-7" d="M323.29,343.68c-.12-.13-1.69-5.35-4.38-5-1.77.25-4.65,1.27-3.88,3.59.3.91,5.67,4.06,5.67,4.06Z" transform="translate(-0.03 0)"/><path class="cls-14" d="M371.26,339.89A6.28,6.28,0,0,1,370.6,351l-.29.12c-7.19,2.88-31.27,3-33.43,2.67s-16.52-7-16.52-7,1-3.63,3-4.2c0,0,15.37,3.9,16.46,3.63s24-11.11,27.89-8.57C368.71,338.34,370,339.11,371.26,339.89Z" transform="translate(-0.03 0)"/><path class="cls-1" d="M533.3,168.52H514.12a1.48,1.48,0,0,1-1.46-1.46h0a1.47,1.47,0,0,1,1.46-1.47H533.3a1.47,1.47,0,0,1,1.46,1.47h0A1.48,1.48,0,0,1,533.3,168.52Z" transform="translate(-0.03 0)"/><path class="cls-1" d="M533.3,174.25H514.12a1.47,1.47,0,0,1-1.41-1.47h0a1.48,1.48,0,0,1,1.46-1.46h19.18a1.48,1.48,0,0,1,1.46,1.46h0a1.47,1.47,0,0,1-1.47,1.47Z" transform="translate(-0.03 0)"/><path class="cls-1" d="M533.3,180.12H514.12a1.47,1.47,0,0,1-1.41-1.44h0a1.48,1.48,0,0,1,1.46-1.46h19.18a1.48,1.48,0,0,1,1.46,1.46h0a1.47,1.47,0,0,1-1.5,1.44Z" transform="translate(-0.03 0)"/><path class="cls-1" d="M458.21,318.37H412.57a2,2,0,0,1-1.95-1.94h0a2,2,0,0,1,1.95-1.94h45.64a2,2,0,0,1,2,1.94h0A2,2,0,0,1,458.21,318.37Z" transform="translate(-0.03 0)"/><path class="cls-1" d="M235.08,185H189.43a2,2,0,0,1-1.94-2h0a1.94,1.94,0,0,1,1.94-1.94h45.65A1.94,1.94,0,0,1,237,183h0A2,2,0,0,1,235.08,185Z" transform="translate(-0.03 0)"/><path class="cls-1" d="M458.21,337.68H412.57a2,2,0,0,1-1.95-2h0a2,2,0,0,1,1.95-1.94h45.64a2,2,0,0,1,2,1.94h0A2,2,0,0,1,458.21,337.68Z" transform="translate(-0.03 0)"/><path class="cls-1" d="M458.21,328H403.62a1.94,1.94,0,0,1-1.94-1.94h0a2,2,0,0,1,1.94-1.95h54.59a2,2,0,0,1,2,1.95h0A2,2,0,0,1,458.21,328Z" transform="translate(-0.03 0)"/><rect class="cls-1" x="194.26" y="193.34" width="28.71" height="3.89" rx="1.94"/><path class="cls-1" d="M185.77,195.28a1.94,1.94,0,1,1,1.94,1.94,1.94,1.94,0,0,1-1.94-1.94Z" transform="translate(-0.03 0)"/><rect class="cls-1" x="194.26" y="201.07" width="33.73" height="3.89" rx="1.94"/><path class="cls-1" d="M185.77,203a1.94,1.94,0,1,1,1.94,2,1.94,1.94,0,0,1-1.94-2Z" transform="translate(-0.03 0)"/><rect class="cls-1" x="194.26" y="209.47" width="28.71" height="3.89" rx="1.94"/><path class="cls-1" d="M185.77,211.41a1.94,1.94,0,1,1,1.94,1.94,1.94,1.94,0,0,1-1.94-1.94Z" transform="translate(-0.03 0)"/><path class="cls-16" d="M268.38,201.58a8.39,8.39,0,0,1-1,.06,6.86,6.86,0,0,1-4.72-11.76h0a6.86,6.86,0,1,1,5.74,11.7Zm-4.95-10.9a5.73,5.73,0,1,0,8.1.09h0A5.74,5.74,0,0,0,263.43,190.68Z" transform="translate(-0.03 0)"/><rect class="cls-16" x="254.93" y="201.88" width="9.36" height="1.13" transform="translate(-67.59 239.1) rotate(-44.34)"/><path class="cls-16" d="M253.92,208h0a1,1,0,0,1,0-1.41h0l3.94-3.86a1,1,0,0,1,1.41,0h0a1,1,0,0,1,0,1.41l0,0L255.33,208A1,1,0,0,1,253.92,208Z" transform="translate(-0.03 0)"/><path class="cls-18" d="M517.92,469h0a2.24,2.24,0,0,1-2-1.41L463.2,307.26a1,1,0,0,1,.59-1.36,1,1,0,0,1,.52-.07h0a2.24,2.24,0,0,1,2,1.41L519,467.61a1,1,0,0,1-.59,1.36A1.08,1.08,0,0,1,517.92,469Z" transform="translate(-0.03 0)"/><path class="cls-18" d="M560.36,468.8h0a2.27,2.27,0,0,1-2-1.42L505.64,307a1.06,1.06,0,0,1,.61-1.37,1.11,1.11,0,0,1,.51-.06h0a2.26,2.26,0,0,1,2.05,1.42l52.67,160.37a1.06,1.06,0,0,1-.61,1.37A1.11,1.11,0,0,1,560.36,468.8Z" transform="translate(-0.03 0)"/><path class="cls-18" d="M514.71,329.36l-42.63.25a2.14,2.14,0,0,1-1.93-1.34h0a1,1,0,0,1,.58-1.29.94.94,0,0,1,.47-.06l42.63-.24a2.12,2.12,0,0,1,1.93,1.33h0a1,1,0,0,1-.58,1.29A.94.94,0,0,1,514.71,329.36Z" transform="translate(-0.03 0)"/><path class="cls-18" d="M523.85,357.36l-42.62.25a2.16,2.16,0,0,1-1.94-1.34h0a1,1,0,0,1,.58-1.29,1,1,0,0,1,.48-.06l42.62-.24a2.11,2.11,0,0,1,1.94,1.33h0a1,1,0,0,1-.58,1.29A1,1,0,0,1,523.85,357.36Z" transform="translate(-0.03 0)"/><path class="cls-18" d="M532.71,384.33l-42.63.24a2.12,2.12,0,0,1-1.93-1.33h0a1,1,0,0,1,.58-1.29,1,1,0,0,1,.42-.06l42.63-.25a2.16,2.16,0,0,1,1.94,1.34h0a1,1,0,0,1-.58,1.29A1,1,0,0,1,532.71,384.33Z" transform="translate(-0.03 0)"/><path class="cls-18" d="M542.71,414.68l-42.62.24a2.11,2.11,0,0,1-1.94-1.33h0a1,1,0,0,1,.58-1.29.94.94,0,0,1,.47-.06l42.63-.25a2.16,2.16,0,0,1,1.94,1.34h0a1,1,0,0,1-.58,1.29A1,1,0,0,1,542.71,414.68Z" transform="translate(-0.03 0)"/><path class="cls-18" d="M553.12,446.46l-42.63.25a2.13,2.13,0,0,1-1.93-1.33h0a1,1,0,0,1,.58-1.29,1,1,0,0,1,.42-.06l42.63-.25a2.13,2.13,0,0,1,1.93,1.33h0a1,1,0,0,1-.58,1.29A1,1,0,0,1,553.12,446.46Z" transform="translate(-0.03 0)"/><path class="cls-18" d="M461.36,233.81h0a.63.63,0,0,1-.73-.49L460,229.8a.62.62,0,0,1,.49-.73h0a.63.63,0,0,1,.72.49l.69,3.52A.63.63,0,0,1,461.36,233.81Z" transform="translate(-0.03 0)"/><rect class="cls-18" x="459.55" y="223.13" width="0.43" height="5.19" transform="translate(-34.53 91.44) rotate(-10.95)"/><path class="cls-7" d="M459.5,194.42s-.4-3.51-1.25-4.85-4.07-2.2-4.27-2c-.63.61,1.86,2.76,2,3.56s-1.27.24-.61,1.79a11.85,11.85,0,0,0,2.37,3Z" transform="translate(-0.03 0)"/><path class="cls-24" d="M458,194c1.17-.92,1.42-.9,1.42-.9s10.84,9.39,11.89,10.22,17.34,5.56,17.34,5.56l2.59,13.24s-22-10.64-24.66-12.82c-4.35-3.58-9.82-13.65-9.82-13.65A4.12,4.12,0,0,1,458,194Z" transform="translate(-0.03 0)"/><path class="cls-25" d="M489,321.22s-.19,4.52-1.06,5.62l-12.08.07a1.9,1.9,0,0,1,1.81-1.84,8.13,8.13,0,0,0,5.87-4.63C484.83,317.51,489,321.22,489,321.22Z" transform="translate(-0.03 0)"/><path class="cls-25" d="M512.71,320.56s.84,6-.3,6.12l-6.91.12h-6.35a.63.63,0,0,1-.66-.6.73.73,0,0,1,.09-.35,2.51,2.51,0,0,1,1.81-1.16c2.11-.41,5.61-2,6.84-4.76S512.71,320.56,512.71,320.56Z" transform="translate(-0.03 0)"/><path class="cls-10" d="M482.71,259s3.36,11.75,13,32.17,10,30.25,10,30.25a8.45,8.45,0,0,0,3.39.31,9,9,0,0,0,3.57-1.16s-.62-24.29-5.17-34.6S502,247.47,502,247.47Z" transform="translate(-0.03 0)"/><path class="cls-18" d="M477.27,248.87a295.94,295.94,0,0,0,2.88,40.56c3.15,22.35,1.68,32.74,1.68,32.74s.84.61,3.4.6a7.65,7.65,0,0,0,4.55-1.25S494.29,299.16,493,288s6.17-38.39,6.17-38.39Z" transform="translate(-0.03 0)"/><path class="cls-7" d="M492.16,206.28l-3.56,2.63-5.14-1.08c.07-.47.41-2.41.72-4.17v-.31l.5-2.79,4.8-2.39,1.79-.89-.16,1.9A15.24,15.24,0,0,0,492.16,206.28Z" transform="translate(-0.03 0)"/><path class="cls-11" d="M502.35,251.12c-1.17,5.32-26.06,3-25.74-.26,0-.11.08-1.61.17-3.64.19-4.38.48-11.23.51-11.76h0c.44-4.52.87-9,.9-11.84a40.8,40.8,0,0,1,.83-7.39,57.47,57.47,0,0,1,1.4-5.61,6.18,6.18,0,0,1,3.63-4,6.26,6.26,0,0,1,.61-.21c2.93-.85,7-1.9,8.08-1.58,3,.87,5.19,6.11,6.75,12.79C502.43,230.1,503.11,247.68,502.35,251.12Z" transform="translate(-0.03 0)"/><path class="cls-26" d="M490.8,199.25c-1.05,2-5,3.77-6.62,4.41v-.31l.5-2.79,4.8-2.39C490.59,198.15,491.24,198.42,490.8,199.25Z" transform="translate(-0.03 0)"/><path class="cls-7" d="M482.39,200.28s8.67,2.7,10.27-2.72,3.79-8.72-1.67-10.68-7.16-.2-8.13,1.48S480.18,199.44,482.39,200.28Z" transform="translate(-0.03 0)"/><path class="cls-25" d="M483.2,187.84s.55,6.31,1.86,6,2.48-.47,2.29,1.43-2,4.09,2,4.43,9.81-10,8.7-12C494.88,182.07,478.59,180.93,483.2,187.84Z" transform="translate(-0.03 0)"/><path class="cls-24" d="M476.78,247.22c.19-4.38.48-11.23.51-11.76h0l14.7-8.8S492.57,247.16,476.78,247.22Z" transform="translate(-0.03 0)"/><path class="cls-7" d="M465.09,228.82a39.64,39.64,0,0,0-3.56-2.2,7.34,7.34,0,0,0-2.51-.22c-.09.15-.34.6,0,.75s.73.1.61.2-1.34-.47-1.62.15-.53,2.76.9,3.4,5,.07,5.23.14C466.28,231.68,465.09,228.82,465.09,228.82Z" transform="translate(-0.03 0)"/><path class="cls-11" d="M465.06,228.27s14.59,2.48,15.88,1.85c2.07-1-.8-15.8-.8-15.8a4.26,4.26,0,0,1,3.8-4.15c3.4-.69,6.69,1.86,6.69,1.86s3,2.68,2.6,5.64c-.84,6.58-2.16,20-6.56,22-5.67,2.65-22.07-7.33-22.07-7.33a2.82,2.82,0,0,1-.47-1.91A4.45,4.45,0,0,1,465.06,228.27Z" transform="translate(-0.03 0)"/><path class="cls-7" d="M455.26,192.74s-.94-1.85-1.09-2.2.22-.28.58-.08.85,1.27,1.4,1.14S455.26,192.74,455.26,192.74Z" transform="translate(-0.03 0)"/><g id="logo"><path class="cls-27" d="M375.74,281.28l-28.16-.22,0-5.52,28.16.21Zm-27.86-.5,27.57.21,0-5-27.57-.21Z" transform="translate(-0.03 0)"/><path class="cls-27" d="M374.48,276.61H373a.44.44,0,0,0-.44.43h0v.87a.44.44,0,0,0,.44.43h1.43a.43.43,0,0,0,.45-.43V277a.44.44,0,0,0-.44-.43Zm-.34,1.2a.52.52,0,0,1-.72,0,.48.48,0,0,1,0-.69v0a.53.53,0,0,1,.73,0,.5.5,0,0,1,0,.7Z" transform="translate(-0.03 0)"/><path class="cls-27" d="M373.78,277.09a.38.38,0,0,0-.26.11.35.35,0,0,0,0,.49h0a.37.37,0,0,0,.52,0,.34.34,0,0,0,0-.49h0A.35.35,0,0,0,373.78,277.09Z" transform="translate(-0.03 0)"/><path class="cls-27" d="M374.52,278.85h-1.43a.44.44,0,0,0-.45.42h0v.87a.44.44,0,0,0,.43.44h1.44a.44.44,0,0,0,.44-.43h0v-.87a.43.43,0,0,0-.43-.43Zm-.56,1.38a.06.06,0,0,1,0,0l-.05,0-.05,0,0,0v-.79h-.14l-.05,0a.07.07,0,0,1,0-.1s0,0,.05,0h.22l.05,0a.08.08,0,0,1,0,.05Z" transform="translate(-0.03 0)"/><rect class="cls-27" x="366.84" y="278.5" width="1.73" height="2.32" rx="0.44" transform="translate(85.23 645.23) rotate(-89.56)"/><path class="cls-27" d="M350.82,278h-1.16l-.19.41H349l1-2.16h.45l1,2.18H351Zm-.57-1.31-.42.92h.83Z" transform="translate(-0.03 0)"/><path class="cls-27" d="M354.72,276.9a.44.44,0,0,1-.29.42.5.5,0,0,1,.35.48c0,.49-.37.64-.83.64H352.9v-2.17h1C354.4,276.27,354.73,276.46,354.72,276.9Zm-1.4.23H354c.26,0,.35-.11.35-.23s-.08-.26-.35-.27h-.64Zm0,.92H354c.17,0,.42-.05.42-.26s-.24-.3-.41-.3h-.64Z" transform="translate(-0.03 0)"/><path class="cls-27" d="M357.94,278.06h-1.16l-.19.41h-.45l1-2.16h.46l1,2.18h-.45Zm-.57-1.31-.42.92h.83Z" transform="translate(-0.03 0)"/><path class="cls-27" d="M361.89,278.22a1.16,1.16,0,0,1-.85.32,1.07,1.07,0,0,1-1.16-1.13,1.1,1.1,0,0,1,1.18-1.13,1.11,1.11,0,0,1,.81.34l-.28.25a.73.73,0,0,0-.53-.2.72.72,0,0,0-.77.66v.08a.7.7,0,0,0,.76.74.85.85,0,0,0,.56-.21Z" transform="translate(-0.03 0)"/><path class="cls-27" d="M365.35,276.36v1.24a.89.89,0,0,1-1,1,.91.91,0,0,1-1-1v-1.24h.41v1.25a.53.53,0,0,0,.56.6.52.52,0,0,0,.55-.59v-1.25Z" transform="translate(-0.03 0)"/><path class="cls-27" d="M368.41,276.9a.65.65,0,0,0-.52-.25c-.31,0-.46.13-.46.29s.23.24.49.28c.46,0,.89.18.89.69s-.44.69-.94.69a.93.93,0,0,1-1-.54l.35-.18a.63.63,0,0,0,.62.35c.27,0,.51-.08.51-.32s-.21-.29-.51-.32-.87-.18-.86-.66.45-.63.86-.63a.9.9,0,0,1,.87.44Z" transform="translate(-0.03 0)"/><path class="cls-27" d="M371.6,276.59h-1.44a.42.42,0,0,0-.44.42h0v.88a.44.44,0,0,0,.44.43h1.43a.45.45,0,0,0,.45-.43V277a.43.43,0,0,0-.43-.43Zm-.31,1.21,0,0a.07.07,0,0,1,0,.1s0,0,0,0h-.73l-.05,0a.09.09,0,0,1,0-.05v-.22a.28.28,0,0,1,.08-.2.25.25,0,0,1,.21-.08h.29a.21.21,0,0,0,.11,0,.15.15,0,0,0,0-.11.14.14,0,0,0,0-.1.21.21,0,0,0-.1,0h-.52l-.05,0a.08.08,0,0,1,0-.11l.05,0h.52a.3.3,0,0,1,.2.08.28.28,0,0,1,0,.4h0a.32.32,0,0,1-.21.08h-.29a.12.12,0,0,0-.1,0,.12.12,0,0,0-.05.1v.14Z" transform="translate(-0.03 0)"/><path class="cls-27" d="M351.1,278.67h-1.44a.42.42,0,0,0-.44.42h0V280a.44.44,0,0,0,.44.43h1.43a.45.45,0,0,0,.45-.43h0v-.87a.43.43,0,0,0-.43-.43Zm-.88,1.25h-.4v-.32h.4v.32Zm0-.41h-.4v-.31h0l.4-.05h0A2.28,2.28,0,0,1,350.22,279.51Zm.59.5h0l-.54-.08v-.39h.54V280Zm0-.51h-.54v-.38h0l.53-.07h0v.44Z" transform="translate(-0.03 0)"/><path class="cls-27" d="M365.68,278.78l-13.3-.1a.44.44,0,0,0-.45.43h0V280a.43.43,0,0,0,.43.43h0l13.31.1a.43.43,0,0,0,.44-.43h0v-.87a.44.44,0,0,0-.44-.43Zm-1.6,1.21-10.25-.08a.08.08,0,0,1-.08-.08.09.09,0,0,1,.08-.09l10.25.08a.09.09,0,0,1,.09.08.09.09,0,0,1-.09.09Z" transform="translate(-0.03 0)"/><rect class="cls-27" x="341.79" y="242.28" width="2.97" height="0.2" transform="translate(98.26 583.8) rotate(-89.56)"/><ellipse class="cls-27" cx="344.59" cy="268.65" rx="0.21" ry="0.21" transform="translate(73.29 611.19) rotate(-89.56)"/><ellipse class="cls-27" cx="341.55" cy="268.63" rx="0.21" ry="0.21" transform="translate(70.3 608.13) rotate(-89.56)"/><path class="cls-27" d="M343.31,250.6h-.2a.72.72,0,0,0-.66.7v.78a.72.72,0,0,0,.65.71h.2a.72.72,0,0,0,.66-.7v-.78A.72.72,0,0,0,343.31,250.6Zm.28,1.51a.39.39,0,0,1-.4.39.4.4,0,0,1-.39-.39v-.83a.39.39,0,0,1,.4-.39.38.38,0,0,1,.38.39Z" transform="translate(-0.03 0)"/><path class="cls-27" d="M343.31,250v.73h-.2V250a.06.06,0,0,0,.06.06h.07A.06.06,0,0,0,343.31,250Z" transform="translate(-0.03 0)"/><path class="cls-27" d="M343.27,252.58l-.18.06v.15h.2v-.22Z" transform="translate(-0.03 0)"/><path class="cls-27" d="M345.76,239.72a.75.75,0,0,1,.15.16,2.94,2.94,0,0,1,.41,1.71,3,3,0,0,1-.46,1.35.2.2,0,0,1-.27.07h0a.2.2,0,0,1-.07-.27h0a2.6,2.6,0,0,0,.35-.8,2.51,2.51,0,0,0-.26-1.8l-.06-.1a.19.19,0,0,1,0-.27l.06,0,0,0Z" transform="translate(-0.03 0)"/><path class="cls-27" d="M340.94,239.68a.22.22,0,0,1,.12.27.43.43,0,0,1,0,.07,2.44,2.44,0,0,0-.24,2.15,3.65,3.65,0,0,0,.25.53.18.18,0,0,1,0,.22.19.19,0,0,1-.22.07.52.52,0,0,1-.11-.1,2.88,2.88,0,0,1-.12-2.84,1.71,1.71,0,0,1,.13-.23.57.57,0,0,1,.14-.13Z" transform="translate(-0.03 0)"/><path class="cls-27" d="M341.39,241.35a2,2,0,0,1,.18-.83.2.2,0,0,1,.26-.12h0a.18.18,0,0,1,.1.24v0a1.72,1.72,0,0,0,0,1.37.28.28,0,0,1,0,.18.15.15,0,0,1-.16.1.21.21,0,0,1-.2-.13,2.05,2.05,0,0,1-.17-.74Z" transform="translate(-0.03 0)"/><path class="cls-27" d="M345.17,241.35a2.11,2.11,0,0,1-.18.86.21.21,0,0,1-.25.12l-.05,0a.18.18,0,0,1-.07-.25h0a1.74,1.74,0,0,0,.15-.71,2.1,2.1,0,0,0-.14-.65.18.18,0,0,1,.07-.26.22.22,0,0,1,.14,0,.18.18,0,0,1,.15.13A2.06,2.06,0,0,1,345.17,241.35Z" transform="translate(-0.03 0)"/><path class="cls-27" d="M340.16,274.75l-.05,5.57a.7.7,0,0,0,.7.69h0l4.37,0a.71.71,0,0,0,.71-.69l0-5.57Zm2.33,4.12h-1.68v-1h1.68Zm2.78,0H343.6v-1l1.68,0Z" transform="translate(-0.03 0)"/><path class="cls-27" d="M357.76,265.77" transform="translate(-0.03 0)"/><path class="cls-27" d="M361.81,273.57a8.85,8.85,0,0,1-4.06-7.47v0h0a8.75,8.75,0,0,0,1.73,5.31l.6.73A9.12,9.12,0,0,0,361.81,273.57Z" transform="translate(-0.03 0)"/><path class="cls-27" d="M363.38,274.38v0a10.64,10.64,0,0,1-1.31-.65h0Z" transform="translate(-0.03 0)"/><path class="cls-27" d="M367.12,275.07h-.32a8.44,8.44,0,0,1-1.12-.08h0l1.43.08Z" transform="translate(-0.03 0)"/><path class="cls-27" d="M373.73,272a9.2,9.2,0,0,1-6.22,3,9.18,9.18,0,0,0,2.26-.47l.84-.32a9.59,9.59,0,0,0,2.4-1.53l.57-.56Z" transform="translate(-0.03 0)"/><path class="cls-27" d="M357.76,265.32v.76c0-.24,0-.48,0-.72C357.77,265.36,357.76,265.34,357.76,265.32Zm5.61,9.08h0a9.1,9.1,0,0,0,1.91.56l.39.06v0a9.1,9.1,0,0,1-2.29-.6Zm3.75.68h0a2.34,2.34,0,0,0,.38,0l-.38,0Z" transform="translate(-0.03 0)"/><path class="cls-27" d="M375.42,269.26l.2-.52,1.63-.08a11.24,11.24,0,0,0,.28-1.64l-1.49-.56-.07-1.41,1.44-.72a10.14,10.14,0,0,0-.43-1.64l-1.68.08-.65-1.26,1.06-1.28a9.58,9.58,0,0,0-1-1.25l-1.49.73-1.12-.89.43-1.59a10.52,10.52,0,0,0-1.46-.74L370,257.77l-1.39-.38-.27-1.62a9.58,9.58,0,0,0-1.69-.09l-.42,1.49-1.43.21-.85-1.29a9.26,9.26,0,0,0-1.62.6l.24,1.52-1.21.77-.35-.22,5.65-11.84c.89-1.86-.64-3.94-2.92-4l-4,0a1.65,1.65,0,0,0-1.75,1.54l-.12,16h-1.67a.75.75,0,0,0-.95-.47.77.77,0,0,0-.47.46H353l.05-6.79a9.78,9.78,0,0,0-9.72-9.75l-.05,6.13a2.86,2.86,0,0,1,2.77,2.84v.6l-2.82,0a0,0,0,0,0,0,0h0v-.57h-.2v.57s0,0,0,0l-2.82,0v-.58a2.85,2.85,0,0,1,2.82-2.81l0-6.13a9.79,9.79,0,0,0-9.87,9.61l-.12,16.5a4.77,4.77,0,0,0,4.79,4.76l2.18,0,0-4.62,5.77.05,0,4.61,2.18,0a4.77,4.77,0,0,0,4.86-4.69l.07-9.27h1.69a.75.75,0,0,0,.47.48l-.11,14.31h.47l.11-14.31a.75.75,0,0,0,.48-.47l1.65,0,0,4.44h0s0,0,0,0c0,.23,0,.47,0,.71h0a8.75,8.75,0,0,0,1.73,5.31l.6.73a9.06,9.06,0,0,0,1.7,1.45l.24.15,0,0h0l1.28.64h0a9.19,9.19,0,0,0,2.3.61h0l1.44.08h0l.38,0a9.65,9.65,0,0,0,2.26-.46l.84-.33a9.32,9.32,0,0,0,2.4-1.53l.57-.55.15-.15.05,0,1.51.56a10.82,10.82,0,0,0,.94-1.38l-1.12-1.11.22-.56ZM364.69,243.8a.75.75,0,0,1,.77.7v.73h-.78Zm-1.21,0h.78v1.42h-.78Zm-1.16,0h.77v1.42h-.77Zm-1.2,0h.77v1.42h-.77Zm-17.27.73a.11.11,0,0,1-.11-.12.1.1,0,0,1,.12-.11.11.11,0,0,1,.11.11.12.12,0,0,1-.12.12Zm.68.55a.23.23,0,0,1-.23-.23.24.24,0,0,1,.24-.23.23.23,0,0,1,0,.46Zm-2.7-.52a.25.25,0,0,1,.24.26.24.24,0,0,1-.25.24.25.25,0,0,1-.25-.25.26.26,0,0,1,.26-.25Zm-1.66,25.38a2.77,2.77,0,0,1,.4-1.4,2.93,2.93,0,0,1,1-1l-.64-1.12s0-.06,0-.07h0a0,0,0,0,1,.07,0l.65,1.13a2.88,2.88,0,0,1,2.13-.25,2.7,2.7,0,0,1,.66.27l.66-1.12a.07.07,0,0,1,.07,0,.06.06,0,0,1,0,.07h0l-.66,1.11a2.82,2.82,0,0,1,1.38,2.43Zm5.88-13.51a2.9,2.9,0,0,1-4.94,2,2.75,2.75,0,0,1-.83-2l0-2.79,5.77,0Zm13.4-11.22h-.77v-.73a.74.74,0,0,1,.78-.69ZM367,258.41a1.13,1.13,0,1,1-1.16,1.11A1.14,1.14,0,0,1,367,258.41Zm-1.48,1.8a1.65,1.65,0,0,0,2.2.75,1.68,1.68,0,0,0,.74-.73,6.27,6.27,0,0,1,1.64.66,6.13,6.13,0,0,1,2.08,1.94l-1.83,1a4.07,4.07,0,0,0-1.31-1.2,4.22,4.22,0,0,0-5.49,1.15l-1.81-1A6.2,6.2,0,0,1,365.48,260.21Zm1.78,3.39,0,1.82a.32.32,0,0,1-.36.3.33.33,0,0,1-.29-.3v-1.83a.33.33,0,0,1,.36-.29A.33.33,0,0,1,367.26,263.6Zm-7.36-19.83h.77v1.43h-.78Zm1.75,26.5a1.15,1.15,0,0,1-1.56-.42,1.11,1.11,0,0,1,.4-1.52l0,0a1.17,1.17,0,0,1,1.56.43,1.11,1.11,0,0,1-.4,1.52h0Zm.77-.06a1.57,1.57,0,0,0,.08-1.7,1.64,1.64,0,0,0-1.53-.8,6,6,0,0,1,.45-4.46l1.81,1a4,4,0,0,0,3.36,5.8l0,2a6.32,6.32,0,0,1-4.15-1.92Zm4.47-1.75a2.39,2.39,0,0,1-2.37-2.29,2.31,2.31,0,0,1,.94-1.92.35.35,0,0,1,.5.07s0,0,0,0l0,0a.34.34,0,0,1-.1.44,1.63,1.63,0,0,0-.65,1.28,1.67,1.67,0,0,0,3.34,0,1.61,1.61,0,0,0-.63-1.31.34.34,0,0,1-.08-.44v0a.35.35,0,0,1,.49-.12l0,0a2.35,2.35,0,0,1,.91,1.86,2.38,2.38,0,0,1-2.42,2.33Zm3,2.87a6.11,6.11,0,0,1-2.77.79l0-2.05a4.2,4.2,0,0,0,1.72-.52,4,4,0,0,0,1.72-5.22l1.83-1a6,6,0,0,1,.38,4.49,1.64,1.64,0,0,0-1.55.77,1.56,1.56,0,0,0,.06,1.7,6.23,6.23,0,0,1-1.4,1.06Zm3.74-1.38a1.16,1.16,0,0,1-1.57.4,1.11,1.11,0,0,1-.42-1.51v0a1.17,1.17,0,0,1,1.57-.4,1.12,1.12,0,0,1,.44,1.51l0,0Z" transform="translate(-0.03 0)"/><ellipse class="cls-27" cx="343.28" cy="241.36" rx="0.57" ry="0.58" transform="translate(99.29 582.79) rotate(-89.56)"/><path class="cls-27" d="M371.69,278.75h-1.56a.46.46,0,0,0-.47.46v.94a.47.47,0,0,0,.47.47h1.55a.47.47,0,0,0,.48-.46v-.94a.47.47,0,0,0-.47-.47Zm-.34,1.3a.06.06,0,0,1,.06,0,.08.08,0,0,1,0,.05.14.14,0,0,1,0,.06l-.06,0h-.78a.08.08,0,0,1-.08-.08h0v-.23a.28.28,0,0,1,.1-.21.27.27,0,0,1,.22-.09h.32a.16.16,0,0,0,.11,0,.14.14,0,0,0,0-.21h0a.16.16,0,0,0-.11-.05h-.55l-.06,0a.08.08,0,0,1,0-.05.14.14,0,0,1,0-.06l.06,0h.55a.27.27,0,0,1,.22.09.31.31,0,0,1,0,.43h0a.31.31,0,0,1-.23.08h-.31a.21.21,0,0,0-.11,0,.16.16,0,0,0-.05.11v.16Z" transform="translate(-0.03 0)"/></g></svg>