<svg id="Layer_1" data-name="Layer 1" xmlns="http://www.w3.org/2000/svg" width="50" height="40" viewBox="0 0 2815.88 1670.69"><defs><style>.cls-1{fill:#e8f2fa;}.cls-2{fill:#c8dffd;}.cls-3{fill:#dceaff;}.cls-4{fill:#012650;}.cls-5{fill:#a9c2ff;}.cls-40,.cls-41,.cls-43,.cls-44,.cls-45,.cls-46,.cls-6{fill:#a8ccff;}.cls-7{fill:#ffae73;}.cls-8{fill:#1e3865;}.cls-9{fill:#25468f;}.cls-10{fill:#f9924f;}.cls-11{fill:#8eb2f3;}.cls-12{fill:#ff912b;}.cls-13{fill:#fc7600;}.cls-14{fill:#fff;}.cls-15{fill:#fddcc3;}.cls-16{fill:#143674;}.cls-17{fill:#eec09d;}.cls-18{fill:#ff7b35;}.cls-19{fill:#5c9cf4;}.cls-20{fill:#3986e3;}.cls-21{fill:#fddbba;}.cls-22{fill:#154079;}.cls-23{fill:#f70;}.cls-24{fill:#f99352;}.cls-25{fill:#2a3967;}.cls-26{fill:#fff6ee;}.cls-27{fill:#fb5910;}.cls-28{fill:#fd801a;}.cls-29{fill:#9ec6f0;}.cls-30{fill:#dfefff;}.cls-31{fill:#fcfcfc;}.cls-32{fill:#123d76;}.cls-33{fill:#ffa05e;}.cls-34{fill:#0b3563;}.cls-35{fill:#0b4d87;}.cls-36{opacity:0.5;}.cls-37{fill:#accefc;}.cls-38{fill:#dedede;}.cls-39,.cls-40,.cls-41,.cls-43,.cls-44,.cls-45,.cls-46{isolation:isolate;}.cls-40,.cls-41,.cls-43{font-size:155.01px;}.cls-40,.cls-41,.cls-43,.cls-44,.cls-45,.cls-46{font-family:ArialRoundedMTBold, Arial Rounded MT Bold;}.cls-40{letter-spacing:-0.02em;}.cls-41{letter-spacing:-0.1em;}.cls-42{letter-spacing:-0.05em;}.cls-44{font-size:151.17px;}.cls-45{font-size:132.16px;}.cls-46{font-size:132.68px;}.cls-47{opacity:0.54;}</style></defs><title>learn</title><path class="cls-1" d="M196.83,1670.69s-297.42-83.84-161-467.79S431.6,984.58,356.63,648.82C257.78,206,676.34-95.1,1136.57,27.55s336.86,259,877.67,121.67c659.3-167.35,714.92,528.91,562,760.18s417.41,264.62,181.84,761.29Z" transform="translate(-0.03 0)"/><path class="cls-2" d="M2275.82,799.67S2352,644.29,2394.65,658.08,2275.82,799.67,2275.82,799.67Z" transform="translate(-0.03 0)"/><path class="cls-2" d="M2221,870S2403.57,691,2474.5,723.66s-43.24,67.62-86.79,77.16S2221,870,2221,870Z" transform="translate(-0.03 0)"/><path class="cls-2" d="M2678.5,1544.44c65.21-42.84,3.26-156.28,3.26-156.28s-152.12-41-162.92-63.82,136.89,9.61,136.89,9.61c-10.67-47.68-105.93-146.89-105.93-146.89s-143.67,55.34-148.51,30.51S2531,1175.05,2531,1175.05c-28.08-40.32-93.94-65-93.94-65-102.09-24.32-128,108-128,108s-50.21,18.11-118.62,5.86h0s-13.05-3.55-33.65-4.75l4,12.2c3.59-.08,7.11,0,10.55.2h.21c2.15.21,5.23.54,9,1h0c8.51,1.33,14.73,2.08,19.14,2.4h0c26.55,3.66,61.65,10,71.42,18.64a25,25,0,0,1,4.74-4.45l-4.74,4.45c-37.89,35.53-11.13,142.34,19.86,196.57s39.07,23.52,55.43-16.52-12.17-103.33-8.08-126.13,23.8,2.1,33.53,41.84-22.69,71.83-8.13,136.4,148,73.68,148,73.68c-27.6-38.84-29.15-124.19-15.22-132.06s50.07,107.42,60.41,123.85S2613.34,1587.27,2678.5,1544.44Z" transform="translate(-0.03 0)"/><path class="cls-3" d="M619,973.71s-96.11-196-149.87-178.58S619,973.71,619,973.71Z" transform="translate(-0.03 0)"/><path class="cls-3" d="M688.15,1062.37S457.9,836.7,368.43,877.82,423,963.11,477.9,975.13,688.15,1062.37,688.15,1062.37Z" transform="translate(-0.03 0)"/><path class="cls-2" d="M254.05,1191.94c1.18-68.58,114.56-75.86,114.56-75.86s101.89,93.77,124,91-71.46-97.17-71.46-97.17c40.44-14.48,158.9,9.67,158.9,9.67s26.39,132.73,47.11,124.66-29.36-116.33-29.36-116.33c43.15,1.91,92.41,39.26,92.41,39.26,66,64.4-20.08,145.88-20.08,145.88s10.14,45.8,51.38,90.86h0s8.77,8,19.34,22.77l-10.93,2.76c-1.64-2.7-3.34-5.29-5.12-7.74h0a.44.44,0,0,0-.08-.11c-1.17-1.5-2.86-3.63-4.94-6.22h0c-5-5.7-8.46-10-10.77-13.09h0c-15.2-18-147.92,30.85-202.77,33.31s-35.83-18-13.77-48.94,82.48-39.52,97.5-53.26-12.75-16.7-46.84-5.25-42.7,50.6-97.51,70.13S321.35,1323,321.35,1323c41.82,2.25,106-36.69,105.25-50.74s-103.32,13.28-120.38,13.32S252.87,1260.51,254.05,1191.94Z" transform="translate(-0.03 0)"/><path class="cls-4" d="M1406.76,1665.75H597.16a31.89,31.89,0,0,1-31.82-31.93V552.18a31.89,31.89,0,0,1,31.85-31.93l1.15,0L1438.6,559v1074.8A31.89,31.89,0,0,1,1406.76,1665.75Z" transform="translate(-0.03 0)"/><path class="cls-4" d="M1470.45,1665.75h809.61a31.89,31.89,0,0,0,31.84-31.93V552.18a31.88,31.88,0,0,0-31.83-31.93l-1.17,0L1438.61,559v1074.8a31.88,31.88,0,0,0,31.83,31.93Z" transform="translate(-0.03 0)"/><path class="cls-5" d="M626.62,567.19l-26.28,21.32A16,16,0,0,0,594.47,601V1649.58A15.71,15.71,0,0,0,610,1665.47h65.35a15.75,15.75,0,0,0,15.54-15.94c0-.3,0-.61,0-.91Z" transform="translate(-0.03 0)"/><path class="cls-5" d="M2252.2,567.19l26.25,21.32a16,16,0,0,1,5.87,12.45V1649.58a15.71,15.71,0,0,1-15.53,15.89h-65.35a15.75,15.75,0,0,1-15.54-15.94c0-.3,0-.61,0-.91Z" transform="translate(-0.03 0)"/><path class="cls-1" d="M1408.64,1665.75H646.91c-16.55,0-30-13.81-30-30.85V589.9c0-17.5,14.11-31.49,31.08-30.83l664.9,25.69c70.16,2.71,125.68,62.07,125.68,134.36v915.8C1438.61,1651.94,1425.19,1665.75,1408.64,1665.75Z" transform="translate(-0.03 0)"/><path class="cls-1" d="M1466.1,1665.75h766.67c15.19,0,27.5-12.68,27.5-28.31V587.24c0-16-12.95-28.9-28.53-28.29l-681.56,26.34c-62.29,2.4-111.57,55.09-111.57,119.27v932.88C1438.61,1653.07,1450.92,1665.75,1466.1,1665.75Z" transform="translate(-0.03 0)"/><rect class="cls-6" x="1436.51" y="767.02" width="4.13" height="678.56"/><path class="cls-7" d="M1837.27,699.29a5.44,5.44,0,0,1,.93,5.85h0c-1.44,3.88-6.13,8.2-11.57,12.51-.7.55-1.32,1.06-1.85,1.52l-.42.37-.32.29c-5.08,4.61-3.19,5.69-12.32,15.07-10.41,10.68-17.53,10.82-19.55,9.83-1.71-.85,1.81-6.53,5.71-12.91l.57-.93,1.56-2.57c4.57-7.68,3.43-11.31,2.44-22.8-.8-9.34-14.15-52.24-14.15-52.24l19.84-3.27s5.72,34.12,12.26,39.42c3.49,2.82,7.43,2.89,10.79,5l.7.45A26.2,26.2,0,0,1,1837.27,699.29Z" transform="translate(-0.03 0)"/><path class="cls-8" d="M1837.27,699.29a5.44,5.44,0,0,1,.93,5.85h0c-1.76,3.88-6.33,8.18-11.59,12.47-.69.56-1.29,1.08-1.83,1.56l-.42.37-.32.29c-5.08,4.61-3.19,5.69-12.32,15.07-10.41,10.68-17.53,10.82-19.55,9.83-1.71-.85,1.81-6.53,5.71-12.91a44.26,44.26,0,0,0,18.53-13.45c6.28-7.9,10.5-18.08,14.78-24l.7.45A26.22,26.22,0,0,1,1837.27,699.29Z" transform="translate(-0.03 0)"/><path class="cls-7" d="M1677.62,685.82c-1.26,6.1-10,5-19.69,2.57s-7.43.4-21.28-1.23-18-6.83-18.42-8.89c-.36-1.84,6.49-2.43,13.84-3.23.93-.09,1.85-.2,2.78-.31,8.3-1,14.41-6.29,22-10.63,7.16-4.11,17.93-21,17.93-21l19,1.64s-10.08,15.08-14,21.64c-2.29,3.85-2.21,9-2,12.94A24.4,24.4,0,0,1,1677.62,685.82Z" transform="translate(-0.03 0)"/><path class="cls-8" d="M1657.93,688.36c-9.72-2.45-7.43.4-21.28-1.23s-18-6.83-18.42-8.89c-.36-1.84,6.49-2.43,13.84-3.23l.07.14a38.92,38.92,0,0,0,19.8,6.31c9.4.3,19.38-2.32,25.88-2.17a24.4,24.4,0,0,1-.2,6.5C1676.34,691.89,1667.65,690.82,1657.93,688.36Z" transform="translate(-0.03 0)"/><path class="cls-8" d="M1815.8,668.54s-1.33.86-3.3,2a43.51,43.51,0,0,1-8.66,3.77,35.71,35.71,0,0,1-8.91,1.16c-2.07,0-3.42-.12-3.42-.12l-22.76-62.6-4.12-11.32-4.37-12-1.53-4.19-7.39-20.37s18.12-46.45,36.59-24.31a45.23,45.23,0,0,1,6.33,11.44c1.34,3.29,2.62,7,3.85,11,.91,3,1.79,6.2,2.64,9.51,2.3,9,4.34,19,6.12,29C1812.79,634.82,1815.8,668.54,1815.8,668.54Z" transform="translate(-0.03 0)"/><path class="cls-9" d="M1938.1,570l-92.29,3.84c-20.21-4.18-37.28-14.88-48.87-20.62l-2.7-1.34c-4-2-6.69-3.31-7.8-3.54-7-1.46-10.64,10-16.59,24-1.21,2.87-2.51,5.83-4,8.83a45.23,45.23,0,0,1-5.62,8.1c-.49.59-1,1.19-1.53,1.81-20.42,23.86-73,68.28-73,68.28h-1.62c-3.22-.06-10.39-.36-13.82-1.67a21.67,21.67,0,0,1-4.48-2.33,9.69,9.69,0,0,1-2.13-1.91s62.93-123,95.5-156.53h0c.47-.49.94-.95,1.4-1.4,3.56-3.47,6.72-5.77,9.34-6.59,11.1-3.5,82.91.4,82.91.4l2.29-3.73,3.83-.27h.66l3.2-.23h0l4.41-.31,6.56-.46,17.75-1.26,2.85-.21,32.8-2.33s1.5,3.38,3.52,9c.79,2.19,1.66,4.7,2.55,7.49C1939.11,515.3,1946.7,548.25,1938.1,570Z" transform="translate(-0.03 0)"/><path class="cls-8" d="M1959.1,358.23c-16.4-14-28.09-17.46-29.72-39.62-.88-12-17-51.81-44.35-48.33a41.68,41.68,0,0,1-6.88.4,25.51,25.51,0,0,0-13.88,3.48c-13.16,7.7-37.37,78.9-21,103.91a18.13,18.13,0,0,0,13,8.37l2.11,1.19h0c2.93,1.65,6.16,3.46,9.58,5.4,19.3,10.88,44.57,25.27,57.51,32.54h0l2.21,1.25,3.76,2.09c1.52.83,2.4,1.29,2.47,1.29a55.61,55.61,0,0,0,8,2.26c6.51,1.35,15.62,2.11,22-2a34.89,34.89,0,0,0,7-6C1984,409.7,1987.44,382.41,1959.1,358.23Z" transform="translate(-0.03 0)"/><path class="cls-7" d="M1877.83,374.57c-.11.07,12.59,4.51,21.13.8,8-3.48,14.2-16.62,14.08-16.63-3.64-.19-7.62-3.41-10.55-24.33l-1.56.54-26.16,9.21s1.84,8.38,3,16.36C1878.76,367.22,1879.26,373.63,1877.83,374.57Z" transform="translate(-0.03 0)"/><path class="cls-10" d="M1874.77,344.16s1.12,5.87,2.67,14.27c15-2.59,21.32-15.39,23.49-23.48Z" transform="translate(-0.03 0)"/><path class="cls-7" d="M1870.83,352.44s35.73-4.54,32.56-26.75-.69-37.74-23.64-35.79-26.16,11.07-26.9,18.74S1861.46,353.05,1870.83,352.44Z" transform="translate(-0.03 0)"/><path class="cls-8" d="M1854.23,296.49S1877,316.34,1892.48,318s21.45-3.25,21.45-3.25a60.68,60.68,0,0,1-14.54-20,10.89,10.89,0,0,0-9-6.5C1879.34,287.26,1858.34,286.67,1854.23,296.49Z" transform="translate(-0.03 0)"/><path class="cls-8" d="M1868.53,294.82s-7.69,7.34-10.14,12.81c-2.36,5.27-3.15,17.92-1.33,23,0,0-11.75-23.25-4.93-34.45C1859.34,284.26,1868.53,294.82,1868.53,294.82Z" transform="translate(-0.03 0)"/><path class="cls-5" d="M1847.4,426.94c.57,72.26-.1,57.16,7.75,64.07,1.89,1.66,7.24,2.69,14.28,3.2,22.15,1.63,61.12-1.75,62.63-5.83,5.21-14.13,1.64-18.56,6-40.22q.69-3.45,1.7-7.51c3.66-14.87,7.15-19.92-5.29-43.94-11.29-21.76-23-39.44-24.12-38.81-30.3,17.7-32.63,2.62-32.63,2.62S1847.12,391.69,1847.4,426.94Z" transform="translate(-0.03 0)"/><path class="cls-9" d="M1815.8,668.54s-1.33.86-3.3,2a43.51,43.51,0,0,1-8.66,3.77,35.71,35.71,0,0,1-8.91,1.16c-2.07,0-3.42-.12-3.42-.12l-22.76-62.6,6.67-11.32,17.07-29,5.6-9.51c.91,3,1.79,6.2,2.64,9.51,2.3,9,4.34,19,6.12,29C1812.79,634.82,1815.8,668.54,1815.8,668.54Z" transform="translate(-0.03 0)"/><path class="cls-5" d="M1877.77,360.52s-31.09,5.05-34.83,18.39l-25.75,91.78s15.77,3,23.11-4.29,25.85-67.48,25.85-67.48Z" transform="translate(-0.03 0)"/><path class="cls-11" d="M1869.43,494.21c22.15,1.63,61.12-1.75,62.63-5.83,5.21-14.13,1.64-18.56,6-40.22L1927.59,418s1.53,33.52-8.41,42.27-40.59,16.73-45.44,24.06A27,27,0,0,0,1869.43,494.21Z" transform="translate(-0.03 0)"/><path class="cls-7" d="M1894.92,480.3s-21.83-5-25.37-3.11-12.21,8.92-13.3,11.37,7.86-1.81,10.77-2.57c1.89-.49,6.83,1.26,9.27,2.1,10.3,3.51,16.63,1.79,16.63,1.79Z" transform="translate(-0.03 0)"/><path class="cls-5" d="M1910.42,357.88s29.34,2,39.4,16.26c14.16,20.05,41.93,105.26,25.59,116.49-18.4,12.63-83.36,2.75-83.36,2.75s-2.09-10.13,1-15,52-12.43,54.3-14.68-27.91-44.23-27.86-51S1910.42,357.88,1910.42,357.88Z" transform="translate(-0.03 0)"/><path class="cls-7" d="M1868.45,483.27s-4.62,5.87-6.12,6.57a4.54,4.54,0,0,1-2.48.51l3.13-5.53Z" transform="translate(-0.03 0)"/><path class="cls-7" d="M1869.55,477.19l-13.36,6.37a2.38,2.38,0,0,0,2.2.87,31.53,31.53,0,0,0,5.79-1.55Z" transform="translate(-0.03 0)"/><polygon class="cls-12" points="1865.14 496.07 1759.81 495.33 1728.68 416.31 1833.85 417.06 1865.14 496.07"/><polygon class="cls-13" points="1758.6 492.25 1897.69 493.23 1897.66 496.3 1759.81 495.33 1758.6 492.25"/><path class="cls-14" d="M1786.71,456.12c-.77-2.77.84-5,3.61-5a7.19,7.19,0,0,1,6.42,5.07c.77,2.77-.84,5-3.61,5A7.17,7.17,0,0,1,1786.71,456.12Z" transform="translate(-0.03 0)"/><rect class="cls-9" x="654.66" y="1520.48" width="703.87" height="144.58" rx="70.81"/><path class="cls-15" d="M1044.16,1573.54l-.5,31.59a50.61,50.61,0,0,0,49.79,51.42h0l373.68,6,.1-6.29a64.44,64.44,0,0,1-34.72-58.21l.18-11.12a64.43,64.43,0,0,1,36.56-57.07v-.13l-373.68-6A50.63,50.63,0,0,0,1044.16,1573.54Z" transform="translate(-0.03 0)"/><path class="cls-16" d="M1476.92,1665.06H1083.24c-25.39,0-45.28-31.78-45.28-72.34s19.89-72.33,45.28-72.33h393.68a5.92,5.92,0,0,1,0,11.84H1083.24c-18.12,0-33.44,27.7-33.44,60.49s15.32,60.5,33.44,60.5h393.68a5.92,5.92,0,0,1,0,11.84Z" transform="translate(-0.03 0)"/><rect class="cls-17" x="1100.78" y="1558.9" width="338.55" height="0.93"/><rect class="cls-17" x="1306" y="1572.1" width="128.52" height="0.85"/><rect class="cls-17" x="1210.32" y="1617" width="224.2" height="0.85"/><path class="cls-18" d="M1142.86,1559.37s17.37,7.27,19.43,31.8,0,37.61,0,37.61l-21-10-21.17,10v-38.35s-.77-31.06-29.67-31.06Z" transform="translate(-0.03 0)"/><rect class="cls-19" x="634.05" y="1411.64" width="525.3" height="108.83" rx="46.35"/><path class="cls-15" d="M924.74,1451.54l-.38,23.75a37.94,37.94,0,0,0,37.17,38.65l278.88,4.48.07-4.73a48.48,48.48,0,0,1-25.91-43.75l.14-8.36a48.45,48.45,0,0,1,27.28-42.9v-.09l-278.88-4.49a37.9,37.9,0,0,0-38.37,37.42Z" transform="translate(-0.03 0)"/><path class="cls-20" d="M1247.71,1520.33H953.9c-18.95,0-33.79-23.88-33.79-54.37s14.84-54.38,33.79-54.38h293.81a4.45,4.45,0,0,1,0,8.9H953.9c-13.52,0-24.95,20.83-24.95,45.48s11.43,45.47,24.95,45.47h293.81a4.45,4.45,0,0,1,0,8.9Z" transform="translate(-0.03 0)"/><rect class="cls-17" x="1007.5" y="1440.56" width="212.14" height="0.64"/><rect class="cls-17" x="1120.14" y="1450.46" width="95.92" height="0.64"/><rect class="cls-17" x="1048.73" y="1484.21" width="167.32" height="0.64"/><path class="cls-7" d="M2163.08,1321.43s5.4,16.64,4.94,20.45-3.86,16.82-6.28,20.15-3.62-13.57-5.54-16.11-.4,6.36-1.75,7.19-4.17-6.55-5.38-9.15,3-12.19,3-18.88S2163.08,1321.43,2163.08,1321.43Z" transform="translate(-0.03 0)"/><path class="cls-8" d="M2036,1189.19c-1.5-19.09,19.23-32.17,35.61-22.25l1,.63c24.52,15.77,77.41,89.4,81,96.77s14.39,66,14.39,66-13.28,4.86-19.49-.18c0,0-21.53-55.65-24.71-58.43s-86.13-49.32-86.83-66.77C2036.77,1200.4,2036.4,1194.82,2036,1189.19Z" transform="translate(-0.03 0)"/><rect class="cls-12" x="1822.84" y="1175.88" width="110.31" height="21.93" transform="translate(-285.88 683.62) rotate(-19.2)"/><polygon class="cls-21" points="1801.82 1213.45 1829.64 1215.38 1822.43 1194.67 1801.82 1213.45"/><path class="cls-21" d="M1933.67,1179.06l-7.21-20.71h0l5.28-1.84A7.27,7.27,0,0,1,1941,1161h0l2.28,6.54a7.72,7.72,0,0,1-4.76,9.83l-4.81,1.68h0Z" transform="translate(-0.03 0)"/><path class="cls-22" d="M2184,1620.11s9.88,9,8,15.42-10.85,10.69-12.06,18.52-6,12.1-10.36,12.1h-20.69s-3.19-5.51,4.52-7.17,10.62-10.87,10.14-19.41a150.82,150.82,0,0,1,.72-19.94l16.4-3.8Z" transform="translate(-0.03 0)"/><path class="cls-22" d="M2062.71,1643.43s1.78,20.53-2.56,22.67l-55.53-.12s0-6.41,8.92-7.83,24.59-6.65,27.24-18.28S2062.71,1643.43,2062.71,1643.43Z" transform="translate(-0.03 0)"/><path class="cls-12" d="M2015.83,1353.49s2.93,36,6.37,79.23c4.68,58.75,10.31,130.91,10.87,144.58,1,23.74,4.82,61.72,4.82,61.72s9.15,9,27.48,5.22c0,0,16.33-54.21,21-111.57.07-.94.15-1.88.22-2.83,4.34-58.39,11.08-181.34,11.08-181.34Z" transform="translate(-0.03 0)"/><path class="cls-23" d="M2015.83,1353.49s2.93,36,6.37,79.23l64.16,100c.07-.94.15-1.88.22-2.83,4.34-58.39,11.08-181.34,11.08-181.34Z" transform="translate(-0.03 0)"/><path class="cls-12" d="M2029.21,1357.76s52.79,130.3,87.5,191.54,45.56,78.33,45.56,78.33,19.88-7.84,21.69-13.18c0,0-13.27-118.22-36.52-147-13.13-16.28-28.56-65.15-29.29-82.24s-4.7-50.91-4.7-50.91Z" transform="translate(-0.03 0)"/><path class="cls-7" d="M2074.73,1162.29s-35.37,17.94-56.09,12a48.46,48.46,0,0,1,13.7-11.47c-.8-4.12-1.42-7.69-1.8-10.73a99,99,0,0,1-1.09-11L2043,1130l12.86-10.63C2055.44,1148.56,2074.73,1162.29,2074.73,1162.29Z" transform="translate(-0.03 0)"/><path class="cls-9" d="M2109.86,1344.57c-14.28,8.64-27.8,15.14-43.62,18.79-18.67,4.43-41.6,3.12-49.28,4.29a3.16,3.16,0,0,1-2.23-.56c-.61-.31-4-23.08-7.39-51.81-.15-1.15-.3-2.32-.37-3.49l0-.39c-1.32-11.23-2.47-23-3.48-34.86-.81-9.2-1.49-18.3-2-26.85-.59-10.69-.84-20.52-.59-28.6.11-3.69.32-7,.65-9.9,2-16.78,10-28.77,17.56-37.7l6.26-7.12a34.29,34.29,0,0,0,21.64-5.52c7.64-5,15.91-11,17.47-10.08,11.7,6.4,21.2,23.55,28,45.47a249.7,249.7,0,0,1,8.81,42.09c.62,4.71,1.14,9.53,1.54,14.34.08.89.15,1.78.22,2.65.92,13.14,2.42,25.46,4.08,36.45,2.24,14.83,4.78,27.25,6.58,36,.91,4.46,1.6,7.9,2,10.37C2116.09,1340.29,2111.78,1343.37,2109.86,1344.57Z" transform="translate(-0.03 0)"/><path class="cls-24" d="M2056.34,1130.52s-8.7,16.63-25.79,21.57a99,99,0,0,1-1.09-11L2043,1130Z" transform="translate(-0.03 0)"/><path class="cls-7" d="M2023.18,1140.82s34.18,4.89,37-16.11,9.07-34.53-12.64-38.54-27,3.46-29.67,10.25S2014.34,1139,2023.18,1140.82Z" transform="translate(-0.03 0)"/><path class="cls-25" d="M2071.7,1083.13c.31-.36,1-.66,2.6-.78a6.4,6.4,0,0,0-3-.77c-.38-2.21-1.63-6.09-5.45-7a4.76,4.76,0,0,1,2.38,3.39c-4.49-4.44-14-7.54-40.06-5-34.35,3.4-22.57,25.2-18.07,27.74s15.58-4.88,23.89-4.39,10.13,12.46,13,14,1.69-1.3,5.46-3.1,4.26,4.51,3.24,8.64,4.33,9.43,4.33,9.43l5.17-5.8c5.18-5.8,9.69-30,7.18-35.12C2072.15,1084.05,2071.93,1083.59,2071.7,1083.13Z" transform="translate(-0.03 0)"/><path class="cls-8" d="M2060.85,1223s-28.82,21.93-59.36,26.73c-.59-10.69-.84-20.52-.59-28.6Z" transform="translate(-0.03 0)"/><path class="cls-7" d="M1883.88,1194.67c-.46-.49-6.33-20.14-16.49-18.7-6.63.93-17.47,4.77-14.59,13.51,1.13,3.43,21.33,15.26,21.33,15.26Z" transform="translate(-0.03 0)"/><path class="cls-9" d="M2064.41,1180.59c16.43,9.83,15.1,34.32-2.47,41.92-.36.16-.72.31-1.09.45-27,10.86-107.55,12.06-125.82,10.06-19.82-2.17-62.18-26.51-62.18-26.51s3.72-13.64,11.43-15.78c0,0,44.75,12.68,61.94,13.67,10.89.62,90.08-41.67,104.71-32.15C2054.8,1174.82,2059.54,1177.68,2064.41,1180.59Z" transform="translate(-0.03 0)"/><polygon class="cls-6" points="1670.73 1569.61 1487.59 1578.61 1487.59 1395.47 1670.73 1386.47 1670.73 1569.61"/><polygon class="cls-26" points="1501.35 1557.01 1555.44 1456.83 1595.22 1509.13 1615.08 1486.44 1657.17 1549.36 1501.35 1557.01"/><path class="cls-26" d="M1581.25,1441.57a14.86,14.86,0,0,1,14-14.69,13.21,13.21,0,0,1,14,12.38c0,.31,0,.62,0,.93a14.88,14.88,0,0,1-14,14.69,13.21,13.21,0,0,1-14-12.37C1581.25,1442.19,1581.25,1441.88,1581.25,1441.57Z" transform="translate(-0.03 0)"/><polygon class="cls-6" points="2214.95 869.34 1951.11 882.31 1951.11 618.47 2214.95 605.5 2214.95 869.34"/><polygon class="cls-4" points="1745.59 1068.41 1487.59 1081.09 1487.59 1066.06 1745.59 1053.38 1745.59 1068.41"/><polygon class="cls-6" points="1625.91 1104.71 1487.59 1111.51 1487.59 1103.99 1625.91 1097.19 1625.91 1104.71"/><polygon class="cls-6" points="1585.37 1131.7 1487.59 1136.51 1487.59 1128.99 1585.37 1124.19 1585.37 1131.7"/><polygon class="cls-6" points="1702.12 1125.96 1604.35 1130.77 1604.35 1123.25 1702.12 1118.45 1702.12 1125.96"/><polygon class="cls-6" points="1835.19 1119.42 1716.06 1125.28 1716.06 1117.76 1835.19 1111.91 1835.19 1119.42"/><polygon class="cls-6" points="1572.48 1156.82 1487.59 1160.99 1487.59 1153.48 1572.48 1149.31 1572.48 1156.82"/><polygon class="cls-6" points="1673.84 1151.84 1588.96 1156.01 1588.96 1148.5 1673.84 1144.33 1673.84 1151.84"/><polygon class="cls-6" points="1789.36 1146.16 1685.93 1151.24 1685.93 1143.73 1789.36 1138.65 1789.36 1146.16"/><polygon class="cls-4" points="1745.59 898.82 1487.59 911.5 1487.59 896.48 1745.59 883.8 1745.59 898.82"/><polygon class="cls-6" points="1625.91 935.13 1487.59 941.92 1487.59 934.41 1625.91 927.61 1625.91 935.13"/><polygon class="cls-6" points="1791.08 927.01 1652.76 933.8 1652.76 926.29 1791.08 919.49 1791.08 927.01"/><polygon class="cls-6" points="1585.37 962.12 1487.59 966.92 1487.59 959.41 1585.37 954.6 1585.37 962.12"/><polygon class="cls-6" points="1702.12 956.38 1604.35 961.18 1604.35 953.67 1702.12 948.87 1702.12 956.38"/><polygon class="cls-6" points="1835.19 949.84 1716.06 955.69 1716.06 948.18 1835.19 942.33 1835.19 949.84"/><polygon class="cls-6" points="1572.48 987.24 1487.59 991.41 1487.59 983.9 1572.48 979.72 1572.48 987.24"/><polygon class="cls-6" points="1673.84 982.26 1588.96 986.43 1588.96 978.91 1673.84 974.74 1673.84 982.26"/><polygon class="cls-6" points="1789.36 976.58 1685.93 981.66 1685.93 974.15 1789.36 969.07 1789.36 976.58"/><polygon class="cls-4" points="2131.12 919.74 1949.63 928.66 1949.63 918.09 2131.12 909.17 2131.12 919.74"/><polygon class="cls-6" points="2046.92 945.27 1949.63 950.05 1949.63 944.77 2046.92 939.99 2046.92 945.27"/><polygon class="cls-6" points="2163.11 939.56 2065.81 944.35 2065.81 939.06 2163.11 934.28 2163.11 939.56"/><polygon class="cls-6" points="2018.41 964.26 1949.63 967.64 1949.63 962.36 2018.41 958.98 2018.41 964.26"/><polygon class="cls-6" points="2100.54 960.23 2031.76 963.61 2031.76 958.32 2100.54 954.94 2100.54 960.23"/><polygon class="cls-6" points="2194.15 955.63 2110.34 959.74 2110.34 954.46 2194.15 950.34 2194.15 955.63"/><polygon class="cls-6" points="2009.34 981.93 1949.63 984.87 1949.63 979.58 2009.34 976.65 2009.34 981.93"/><polygon class="cls-6" points="2080.64 978.43 2020.93 981.36 2020.93 976.08 2080.64 973.14 2080.64 978.43"/><polygon class="cls-6" points="2161.91 974.43 2089.15 978.01 2089.15 972.73 2161.91 969.15 2161.91 974.43"/><polygon class="cls-4" points="1745.59 1245.31 1487.59 1257.99 1487.59 1242.96 1745.59 1230.28 1745.59 1245.31"/><polygon class="cls-6" points="1625.91 1281.61 1487.59 1288.41 1487.59 1280.89 1625.91 1274.09 1625.91 1281.61"/><polygon class="cls-6" points="1791.08 1273.49 1652.76 1280.29 1652.76 1272.78 1791.08 1265.98 1791.08 1273.49"/><polygon class="cls-6" points="1585.37 1308.6 1487.59 1313.41 1487.59 1305.89 1585.37 1301.09 1585.37 1308.6"/><polygon class="cls-6" points="1702.12 1302.86 1604.35 1307.67 1604.35 1300.15 1702.12 1295.35 1702.12 1302.86"/><polygon class="cls-6" points="1835.19 1296.32 1716.06 1302.18 1716.06 1294.66 1835.19 1288.81 1835.19 1296.32"/><polygon class="cls-6" points="1572.48 1333.72 1487.59 1337.89 1487.59 1330.38 1572.48 1326.21 1572.48 1333.72"/><polygon class="cls-6" points="1673.84 1328.74 1588.96 1332.91 1588.96 1325.4 1673.84 1321.23 1673.84 1328.74"/><polygon class="cls-6" points="1789.36 1323.06 1685.93 1328.15 1685.93 1320.63 1789.36 1315.55 1789.36 1323.06"/><polygon class="cls-4" points="1917.24 1480.95 1717.96 1490.75 1717.96 1475.72 1917.24 1465.93 1917.24 1480.95"/><polygon class="cls-6" points="1814.08 1515.92 1707.25 1521.17 1707.25 1513.65 1814.08 1508.4 1814.08 1515.92"/><polygon class="cls-6" points="1952.37 1509.65 1845.54 1514.9 1834.83 1507.38 1941.66 1502.13 1952.37 1509.65"/><polygon class="cls-6" points="1793.48 1542.46 1717.96 1546.17 1717.96 1538.65 1793.48 1534.94 1793.48 1542.46"/><polygon class="cls-6" points="1883.67 1538.02 1808.15 1541.74 1797.43 1534.22 1872.95 1530.51 1883.67 1538.02"/><polygon class="cls-6" points="1975.73 1532.97 1883.71 1537.5 1894.43 1529.98 1986.45 1525.46 1975.73 1532.97"/><polygon class="cls-6" points="1783.53 1567.43 1717.96 1570.66 1717.96 1563.14 1783.53 1559.92 1783.53 1567.43"/><polygon class="cls-6" points="1861.82 1563.59 1796.26 1566.81 1796.26 1559.29 1861.82 1556.07 1861.82 1563.59"/><polygon class="cls-6" points="1940.34 1559.2 1860.45 1563.13 1871.16 1555.61 1951.05 1551.69 1940.34 1559.2"/><polygon class="cls-4" points="1344 959.55 1056.5 949.11 1056.5 661.6 1344 672.04 1344 959.55"/><polygon class="cls-4" points="1309.65 1072.92 1051.66 1063.56 1051.66 1048.53 1309.65 1057.89 1309.65 1072.92"/><polygon class="cls-6" points="1189.97 1099 1051.66 1093.98 1051.66 1086.46 1189.97 1091.48 1189.97 1099"/><polygon class="cls-6" points="1149.43 1122.53 1051.66 1118.98 1051.66 1111.46 1149.43 1115.01 1149.43 1122.53"/><polygon class="cls-6" points="1266.19 1126.77 1168.41 1123.21 1168.41 1115.7 1266.19 1119.25 1266.19 1126.77"/><polygon class="cls-6" points="1399.26 1131.6 1280.12 1127.27 1280.12 1119.76 1399.26 1124.08 1399.26 1131.6"/><polygon class="cls-6" points="1136.54 1146.55 1051.66 1143.46 1051.66 1135.95 1136.54 1139.03 1136.54 1146.55"/><polygon class="cls-6" points="1237.9 1150.22 1153.02 1147.14 1153.02 1139.63 1237.9 1142.71 1237.9 1150.22"/><polygon class="cls-6" points="1353.43 1154.42 1250 1150.66 1250 1143.15 1353.43 1146.91 1353.43 1154.42"/><polygon class="cls-4" points="1309.65 1249.83 1051.66 1240.46 1051.66 1225.43 1309.65 1234.8 1309.65 1249.83"/><polygon class="cls-6" points="1189.97 1275.9 1051.66 1270.88 1051.66 1263.36 1189.97 1268.38 1189.97 1275.9"/><polygon class="cls-6" points="1355.14 1281.89 1216.83 1276.87 1216.83 1269.36 1355.14 1274.38 1355.14 1281.89"/><polygon class="cls-6" points="1149.43 1299.43 1051.66 1295.88 1051.66 1288.36 1149.43 1291.91 1149.43 1299.43"/><polygon class="cls-6" points="1266.19 1303.67 1168.41 1300.12 1168.41 1292.6 1266.19 1296.15 1266.19 1303.67"/><polygon class="cls-6" points="1399.26 1308.5 1280.12 1304.17 1280.12 1296.66 1399.26 1300.98 1399.26 1308.5"/><polygon class="cls-6" points="1136.54 1323.45 1051.66 1320.37 1051.66 1312.85 1136.54 1315.93 1136.54 1323.45"/><polygon class="cls-6" points="1237.9 1327.13 1153.02 1324.05 1153.02 1316.53 1237.9 1319.61 1237.9 1327.13"/><polygon class="cls-6" points="1353.43 1331.32 1250 1327.57 1250 1320.05 1353.43 1323.81 1353.43 1331.32"/><polygon class="cls-4" points="943.07 633.76 685.07 624.39 685.07 609.36 943.07 618.73 943.07 633.76"/><polygon class="cls-6" points="823.39 659.83 685.07 654.81 685.07 647.3 823.39 652.32 823.39 659.83"/><polygon class="cls-6" points="988.55 665.83 850.24 660.81 850.24 653.29 988.55 658.31 988.55 665.83"/><polygon class="cls-6" points="782.85 683.36 685.07 679.81 685.07 672.3 782.85 675.85 782.85 683.36"/><polygon class="cls-6" points="899.6 687.6 801.83 684.05 801.83 676.53 899.6 680.09 899.6 687.6"/><polygon class="cls-6" points="1032.67 692.43 913.54 688.1 913.54 680.59 1032.67 684.92 1032.67 692.43"/><polygon class="cls-6" points="769.96 707.38 685.07 704.3 685.07 696.78 769.96 699.87 769.96 707.38"/><polygon class="cls-6" points="871.32 711.06 786.44 707.98 786.44 700.46 871.32 703.55 871.32 711.06"/><polygon class="cls-6" points="986.84 715.25 883.41 711.5 883.41 703.98 986.84 707.74 986.84 715.25"/><path class="cls-18" d="M294.16,1632a32.91,32.91,0,0,0,.26,4.09,33.52,33.52,0,0,0,33.3,29.46H799.6a33.56,33.56,0,0,0,0-67.11H327.72A33.57,33.57,0,0,0,294.16,1632Z" transform="translate(-0.03 0)"/><path class="cls-18" d="M330.16,1592.41H492a5.17,5.17,0,0,0,5.15-5.15h0a5.17,5.17,0,0,0-5.15-5.15H330.16a5.17,5.17,0,0,0-5.15,5.15h0A5.17,5.17,0,0,0,330.16,1592.41Z" transform="translate(-0.03 0)"/><rect class="cls-27" x="339.06" y="1592.41" width="17.54" height="6.07"/><path class="cls-27" d="M298.23,1648.09a34.08,34.08,0,0,0,5.76,7.68,33.48,33.48,0,0,0,23.73,9.82h99.95v-17.5Z" transform="translate(-0.03 0)"/><path class="cls-12" d="M895.62,1622.21v19.61a23.72,23.72,0,0,1-23.71,23.73H380.34a23.72,23.72,0,0,1-23.71-23.73v-19.65a23.73,23.73,0,0,1,23.71-23.69H871.9a23.72,23.72,0,0,1,23.72,23.72Z" transform="translate(-0.03 0)"/><path class="cls-28" d="M894.79,1648.09a23.71,23.71,0,0,1-22.89,17.5H380.34a23.71,23.71,0,0,1-22.89-17.5Z" transform="translate(-0.03 0)"/><path class="cls-2" d="M846.8,1632.16c0,10.42,3.79,19.74,9.76,25.91l.4.41a23.85,23.85,0,0,0,16.84,7.35c10,0,34.61-15,49.9-25,7.61-5,12.9-8.69,12.9-8.69s-5.29-3.72-12.9-8.69c-15.29-10-40-25-49.9-25a22.08,22.08,0,0,0-8.26,1.6,27.06,27.06,0,0,0-11.38,9,37,37,0,0,0-6.84,16.42v.22A41.21,41.21,0,0,0,846.8,1632.16Z" transform="translate(-0.03 0)"/><path class="cls-29" d="M846.8,1632.16c0,10.42,3.79,19.74,9.76,25.91l75.65-26-84.87-6.37A41.2,41.2,0,0,0,846.8,1632.16Z" transform="translate(-0.03 0)"/><path class="cls-30" d="M854.16,1609.06l75.47,20.61-64.09-29.59A27,27,0,0,0,854.16,1609.06Z" transform="translate(-0.03 0)"/><path class="cls-12" d="M918.77,1632.16c0,4,2.05,7.42,4.93,8.69,7.61-5,12.9-8.69,12.9-8.69s-5.29-3.72-12.9-8.69C920.82,1624.73,918.77,1628.14,918.77,1632.16Z" transform="translate(-0.03 0)"/><path class="cls-8" d="M699.58,1667.82h0a8.72,8.72,0,0,0,7.91-5.5L910.87,1037.5c1-3.06-.94-5.56-4.31-5.58h0a8.7,8.7,0,0,0-7.92,5.5L695.27,1662.23C694.27,1665.29,696.2,1667.82,699.58,1667.82Z" transform="translate(-0.03 0)"/><path class="cls-8" d="M535.67,1666.82h0a8.68,8.68,0,0,0,7.91-5.5L747,1036.5c1-3.06-.94-5.55-4.31-5.57h0a8.7,8.7,0,0,0-7.92,5.5L531.34,1661.28C530.34,1664.33,532.34,1666.82,535.67,1666.82Z" transform="translate(-0.03 0)"/><path class="cls-8" d="M712.15,1123.59l164.6,1a8.27,8.27,0,0,0,7.47-5.19h0c.93-2.87-.9-5.24-4.07-5.26l-164.59-1a8.25,8.25,0,0,0-7.48,5.19h0C707.15,1121.2,709,1123.57,712.15,1123.59Z" transform="translate(-0.03 0)"/><path class="cls-8" d="M676.64,1232.68l164.6,1a8.23,8.23,0,0,0,7.47-5.19h0c.93-2.87-.9-5.24-4.07-5.26l-164.59-1a8.23,8.23,0,0,0-7.47,5.19h0C671.64,1230.3,673.47,1232.66,676.64,1232.68Z" transform="translate(-0.03 0)"/><path class="cls-8" d="M642.45,1337.75l164.59,1a8.27,8.27,0,0,0,7.47-5.19h0c.94-2.87-.9-5.24-4.07-5.26l-164.59-1a8.23,8.23,0,0,0-7.47,5.19h0C637.44,1335.36,639.27,1337.73,642.45,1337.75Z" transform="translate(-0.03 0)"/><path class="cls-8" d="M604,1456l164.59,1a8.25,8.25,0,0,0,7.47-5.2h0c.93-2.87-.9-5.24-4.07-5.26l-164.59-1a8.22,8.22,0,0,0-7.47,5.2h0C598.94,1453.65,600.77,1456,604,1456Z" transform="translate(-0.03 0)"/><g id="logo"><path class="cls-31" d="M1320.9,937.14,1153,931.54l1.1-32.93L1322,904.2Zm-166.07-7.23,164.4,5.48,1-29.59-164.39-5.48Z" transform="translate(-0.03 0)"/><path class="cls-31" d="M1314.09,909.11l-8.56-.29a2.6,2.6,0,0,0-2.71,2.48h0l-.18,5.19a2.6,2.6,0,0,0,2.54,2.66l8.57.29a2.61,2.61,0,0,0,2.71-2.49l.17-5.19a2.59,2.59,0,0,0-2.54-2.65Zm-2.2,7.08a3.12,3.12,0,0,1-4.31-.15,2.92,2.92,0,0,1,.06-4.14l.08-.07a3.12,3.12,0,0,1,4.31.14,2.94,2.94,0,0,1-.09,4.17Z" transform="translate(-0.03 0)"/><path class="cls-31" d="M1309.88,911.88a2.13,2.13,0,0,0-1.73,3.53l0,.05a2.22,2.22,0,0,0,3.11.11,2.09,2.09,0,0,0,.15-3l0-.06A2.12,2.12,0,0,0,1309.88,911.88Z" transform="translate(-0.03 0)"/><path class="cls-31" d="M1314,922.45l-8.56-.28a2.58,2.58,0,0,0-2.7,2.47h0l-.18,5.2a2.6,2.6,0,0,0,2.53,2.65h0l8.57.28a2.58,2.58,0,0,0,2.71-2.46h0l.17-5.2a2.59,2.59,0,0,0-2.52-2.65Zm-3.53,8.14a.4.4,0,0,1-.15.29.43.43,0,0,1-.3.13.46.46,0,0,1-.31-.15.39.39,0,0,1-.12-.3l.16-4.67-.87,0a.43.43,0,0,1-.29-.74.42.42,0,0,1,.32-.11l1.3,0a.42.42,0,0,1,.3.13.43.43,0,0,1,.13.31Z" transform="translate(-0.03 0)"/><rect class="cls-31" x="1268.09" y="919.35" width="10.33" height="13.83" rx="2.64" transform="translate(305.07 2167.97) rotate(-88.09)"/><path class="cls-31" d="M1172.81,913.79l-6.92-.23-1.21,2.4-2.7-.09,6.36-12.74,2.72.09,5.5,13.13-2.72-.09Zm-3.2-7.9-2.64,5.42,4.92.16Z" transform="translate(-0.03 0)"/><path class="cls-31" d="M1196.24,907.82a2.61,2.61,0,0,1-1.79,2.43,3.18,3.18,0,0,1,2,3c-.09,2.89-2.34,3.74-5.07,3.65l-6.28-.21.44-12.94,6.27.21C1194.42,904,1196.33,905.21,1196.24,907.82Zm-8.41,1.16,3.82.13c1.56,0,2.1-.58,2.12-1.32,0-.59-.44-1.57-2-1.63l-3.82-.12Zm-.18,5.45,3.82.13c1,0,2.48-.25,2.52-1.48s-1.39-1.82-2.41-1.85l-3.82-.13Z" transform="translate(-0.03 0)"/><path class="cls-31" d="M1215.27,915.2l-6.91-.23-1.22,2.4-2.7-.09,6.36-12.73,2.73.09,5.49,13.13-2.72-.09Zm-3.2-7.9-2.63,5.43,4.9.16Z" transform="translate(-0.03 0)"/><path class="cls-31" d="M1238.78,916.8a7.08,7.08,0,0,1-5.09,1.75c-4.91-.16-6.9-3.54-6.79-6.9a6.6,6.6,0,0,1,7.24-6.58,6.85,6.85,0,0,1,4.79,2.14l-1.72,1.5a4.59,4.59,0,0,0-3.15-1.32,4.28,4.28,0,0,0-4.68,3.86,2.47,2.47,0,0,0,0,.47,4.19,4.19,0,0,0,4.41,4.54,5,5,0,0,0,3.37-1.21Z" transform="translate(-0.03 0)"/><path class="cls-31" d="M1259.67,906.19l-.24,7.41c-.13,3.83-2.6,5.7-5.93,5.59-3.17-.1-5.81-2.08-5.68-6l.25-7.42,2.48.09-.25,7.41c-.08,2.34,1.23,3.61,3.3,3.68s3.28-1.25,3.35-3.46l.25-7.41Z" transform="translate(-0.03 0)"/><path class="cls-31" d="M1277.87,909.91a3.83,3.83,0,0,0-3.07-1.55c-1.85-.06-2.77.69-2.8,1.62,0,1.13,1.32,1.5,2.9,1.73,2.75.43,5.29,1.21,5.19,4.3-.1,2.88-2.75,4-5.69,3.93-2.7-.09-4.75-.94-5.66-3.37l2.12-1a3.76,3.76,0,0,0,3.65,2.17c1.61.06,3.06-.43,3.1-1.84,0-1.21-1.24-1.75-3-2-2.69-.4-5.16-1.18-5.07-4.06.09-2.67,2.81-3.67,5.25-3.6,2.06.07,4.17.71,5.11,2.74Z" transform="translate(-0.03 0)"/><path class="cls-31" d="M1296.91,908.54l-8.56-.29a2.6,2.6,0,0,0-2.71,2.48h0l-.18,5.19a2.61,2.61,0,0,0,2.54,2.66l8.57.28a2.61,2.61,0,0,0,2.71-2.48l.17-5.19a2.59,2.59,0,0,0-2.54-2.65Zm-2,7.17a.49.49,0,0,1,.3.14.39.39,0,0,1,.11.31.41.41,0,0,1-.13.29.47.47,0,0,1-.31.12l-4.36-.15a.41.41,0,0,1-.31-.14.38.38,0,0,1-.11-.3l0-1.29a1.62,1.62,0,0,1,.54-1.19,1.73,1.73,0,0,1,1.26-.46l1.74.06a.87.87,0,0,0,.63-.23.8.8,0,0,0,.27-.6.77.77,0,0,0-.23-.61.88.88,0,0,0-.61-.27l-3-.1a.43.43,0,0,1-.29-.74.42.42,0,0,1,.32-.11l3,.1a1.71,1.71,0,0,1,1.16,2.93l0,0a1.67,1.67,0,0,1-1.24.46l-1.75-.06a.84.84,0,0,0-.62.23.81.81,0,0,0-.28.6l0,.85Z" transform="translate(-0.03 0)"/><path class="cls-31" d="M1174.35,917.8l-8.57-.28a2.59,2.59,0,0,0-2.71,2.47h0l-.17,5.19a2.59,2.59,0,0,0,2.54,2.65h0l8.56.29a2.59,2.59,0,0,0,2.71-2.48h0l.18-5.19a2.6,2.6,0,0,0-2.54-2.65Zm-5.41,7.34v.06h-.25l-.3-.06h-.89l-.29-.05h-.67l.06-1.91h0l2.41.08-.07,2.21Zm.08-2.48-2.41-.08.06-1.87h0l2.41-.26h0C1169.09,920.66,1169,922.62,1169,922.66Zm3.39,3.07v.07l-3.19-.55.08-2.33,3.2.1-.09,2.68Zm.1-3v0l-3.2-.11.07-2.29h0l3.2-.36h0l-.09,2.67Z" transform="translate(-0.03 0)"/><path class="cls-31" d="M1261.3,920.7,1182,918.05a2.61,2.61,0,0,0-2.71,2.48h0l-.17,5.19a2.59,2.59,0,0,0,2.54,2.65h0L1261,931a2.61,2.61,0,0,0,2.71-2.48h0l.17-5.19a2.59,2.59,0,0,0-2.54-2.65Zm-9.72,6.95-61.12-2a.49.49,0,1,1,0-1l61.13,2a.5.5,0,0,1,.48.5.51.51,0,0,1-.52.48Z" transform="translate(-0.03 0)"/><rect class="cls-31" x="1124.39" y="699.59" width="17.7" height="1.19" transform="translate(395.68 1809.48) rotate(-88.09)"/><ellipse class="cls-31" cx="1137.08" cy="857.08" rx="1.22" ry="1.25" transform="matrix(0.03, -1, 1, 0.03, 242.58, 1964.98)"/><ellipse class="cls-31" cx="1118.94" cy="856.47" rx="1.22" ry="1.25" transform="translate(225.65 1946.27) rotate(-88.09)"/><path class="cls-31" d="M1132.21,749.21a3.69,3.69,0,0,0-.47,0h-.26l-.46,0a4.28,4.28,0,0,0-4,4.07l-.15,4.67a4.25,4.25,0,0,0,3.75,4.33l.47,0h.26a3.54,3.54,0,0,0,.46,0,4.28,4.28,0,0,0,4-4.07l.15-4.67A4.27,4.27,0,0,0,1132.21,749.21Zm1.43,9.08a2.34,2.34,0,1,1-4.67-.16l.17-4.93a2.34,2.34,0,0,1,4.67.15Z" transform="translate(-0.03 0)"/><path class="cls-31" d="M1132.33,745.54l-.14,4.33-1.18,0,.15-4.34a.37.37,0,0,0,.35.38h.46A.36.36,0,0,0,1132.33,745.54Z" transform="translate(-0.03 0)"/><path class="cls-31" d="M1131.67,761.05l-1.06.29,0,.94a3.69,3.69,0,0,0,.47,0h.25a3.77,3.77,0,0,0,.47,0l0-1.31Z" transform="translate(-0.03 0)"/><path class="cls-31" d="M1148.52,684.71a7.1,7.1,0,0,1,.87,1,17.11,17.11,0,0,1,2.13,10.2,17.31,17.31,0,0,1-2.91,8,1.21,1.21,0,0,1-1.66.42l0,0a1.17,1.17,0,0,1-.38-1.63l0,0a15.87,15.87,0,0,0,2.18-4.77,14.69,14.69,0,0,0-1.25-10.72l-.35-.63a1.14,1.14,0,0,1,.25-1.59,1,1,0,0,1,.38-.18l.15-.1Z" transform="translate(-0.03 0)"/><path class="cls-31" d="M1119.73,683.76a1.25,1.25,0,0,1,.69,1.64,1.14,1.14,0,0,1-.25.39,14.61,14.61,0,0,0-1.76,12.79,24.69,24.69,0,0,0,1.4,3.16,1.22,1.22,0,0,1-1.52,1.69,1.59,1.59,0,0,1-.6-.58,17.09,17.09,0,0,1-.32-17,8.51,8.51,0,0,1,.83-1.39,6.8,6.8,0,0,1,.85-.75Z" transform="translate(-0.03 0)"/><path class="cls-31" d="M1122.19,693.79a11.88,11.88,0,0,1,1.19-4.93,1.19,1.19,0,0,1,1.56-.67l.08,0a1.11,1.11,0,0,1,.59,1.45.75.75,0,0,1-.07.12,10,10,0,0,0-.31,8.14,1.75,1.75,0,0,1,0,1.13.92.92,0,0,1-1,.57,1.28,1.28,0,0,1-1.15-.82,11.8,11.8,0,0,1-.9-4.43C1122.17,694.2,1122.18,694,1122.19,693.79Z" transform="translate(-0.03 0)"/><path class="cls-31" d="M1144.73,694.36a12,12,0,0,1-1.22,5.07,1.17,1.17,0,0,1-1.8.51,1.07,1.07,0,0,1-.35-1.47l0,0a9.58,9.58,0,0,0,1-4.2,10.52,10.52,0,0,0-.73-3.88,1.16,1.16,0,0,1,1.31-1.66,1.11,1.11,0,0,1,.89.81A11.91,11.91,0,0,1,1144.73,694.36Z" transform="translate(-0.03 0)"/><path class="cls-31" d="M1109.71,892.73l-1.11,33.21a4.17,4.17,0,0,0,4.07,4.26h0l26,.87a4.17,4.17,0,0,0,4.34-4l1.11-33.22Zm13.26,25-10-.34.19-5.82,10,.33Zm16.6.55-10-.33.19-5.83,10,.33Z" transform="translate(-0.03 0)"/><path class="cls-31" d="M1216,841.9" transform="translate(-0.03 0)"/><path class="cls-31" d="M1239,889a52.79,52.79,0,0,1-23-45.2v-.1h.08a52.39,52.39,0,0,0,9.53,32l3.45,4.43A54.42,54.42,0,0,0,1239,889Z" transform="translate(-0.03 0)"/><path class="cls-31" d="M1248.23,894.12v.08a54,54,0,0,1-7.66-4.07l.07,0Z" transform="translate(-0.03 0)"/><path class="cls-31" d="M1270.47,898.82l-1.91-.07a53.82,53.82,0,0,1-6.71-.63v-.06l8.56.69Z" transform="translate(-0.03 0)"/><path class="cls-31" d="M1310.3,881.74a54.64,54.64,0,0,1-37.54,17,55.79,55.79,0,0,0,13.56-2.41l5.06-1.81a55.79,55.79,0,0,0,14.52-8.75l3.49-3.23Z" transform="translate(-0.03 0)"/><path class="cls-31" d="M1216.13,839.25l-.15,4.47c0-1.43.15-2.85.32-4.24A.26.26,0,0,1,1216.13,839.25Zm32.08,55v0a54.89,54.89,0,0,0,11.26,3.59c.77.15,1.55.29,2.32.41l0-.1a53.79,53.79,0,0,1-13.61-3.95Zm22.25,4.64h0a21.15,21.15,0,0,0,2.28-.08c-.75,0-1.5,0-2.27.06Z" transform="translate(-0.03 0)"/><path class="cls-31" d="M1320.83,865.44l1.31-3.07,9.67-.24a60.6,60.6,0,0,0,1.94-9.72l-8.8-3.61-.21-8.41,8.71-4.06a60.51,60.51,0,0,0-2.32-9.85l-10,.2-3.68-7.61,6.52-7.46a61.25,61.25,0,0,0-6-7.63l-9.06,4.16-6.53-5.49,2.84-9.4a63.85,63.85,0,0,0-8.58-4.62l-6.55,7.41-8.24-2.43-1.32-9.75a65.91,65.91,0,0,0-10.11-.78l-2.71,8.81-8.54,1.06-4.92-7.85a64.05,64.05,0,0,0-9.72,3.33l1.18,9.13-7.34,4.37-2-1.35,35.45-69.71c5.59-11-3.2-23.63-16.75-24.08l-24.14-.81c-5.72-.19-10.5,3.79-10.67,8.91l-3.17,95.19-9.91-.33a4.48,4.48,0,0,0-5.63-2.94,4.53,4.53,0,0,0-2.85,2.66l-10-.34,1.35-40.44c1-31.68-24.19-58.26-56.48-59.65l-1.22,36.54A17,17,0,0,1,1148.39,763l-.12,3.57-16.82-.56a.21.21,0,0,0,.21-.18h0l.11-3.42a3.7,3.7,0,0,1-.47,0h-.25l-.47,0-.11,3.42a.18.18,0,0,0,.18.2l-16.81-.56.12-3.51a17,17,0,0,1,17.19-16.29l1.22-36.55c-32.33-.76-59.27,24.08-60.33,55.76l-3.28,98.42c-.51,15.54,12,28.56,27.83,29.09l13,.43.91-27.49,34.43,1.14-.91,27.5,13,.44c15.89.52,29.19-11.64,29.71-27.17l1.84-55.29,10,.33a4.43,4.43,0,0,0,2.76,2.88l-2.85,85.32,2.78.09,2.84-85.31a4.42,4.42,0,0,0,3-2.7l9.87.33-.89,26.48h0a.27.27,0,0,0,.18.23c-.18,1.4-.28,2.81-.33,4.25h.08a52.28,52.28,0,0,0,9.53,31.94l3.44,4.44a55.17,55.17,0,0,0,10,8.91c.46.32.93.64,1.41,1l.19.13h0l.07,0,7.55,4v.07a54.42,54.42,0,0,0,13.62,4v-.06l8.55.69h0c.78,0,1.56,0,2.29,0a55.79,55.79,0,0,0,13.56-2.41l5.06-1.81a55.79,55.79,0,0,0,14.52-8.75l3.49-3.23.91-.83.3-.27,8.93,3.61a61.79,61.79,0,0,0,5.83-8.1l-6.54-6.81,1.41-3.3ZM1260.77,712a4.38,4.38,0,0,1,4.48,4.25l-.15,4.38-4.61-.15Zm-7.21-.25,4.61.16-.28,8.48-4.61-.15Zm-7-.23,4.6.16-.28,8.48-4.6-.16Zm-7.15-.24,4.61.16-.28,8.48-4.61-.15ZM1136.36,713a.69.69,0,0,1-.64-.74.69.69,0,0,1,1.38.07.7.7,0,0,1-.73.67Zm4,3.39a1.37,1.37,0,1,1,1.44-1.31,1.39,1.39,0,0,1-1.44,1.29Zm-16-3.5a1.49,1.49,0,1,1-1.57,1.43,1.49,1.49,0,0,1,1.57-1.43ZM1110.56,864a16.32,16.32,0,0,1,2.56-8.3,17,17,0,0,1,6.22-5.82l-3.68-6.8a.29.29,0,0,1,.11-.4h0a.31.31,0,0,1,.43.12l3.67,6.8a17.59,17.59,0,0,1,12.76-1.15,16.79,16.79,0,0,1,3.89,1.69l4.11-6.53a.32.32,0,0,1,.44-.1.3.3,0,0,1,.12.41v0l-4.16,6.52a16.79,16.79,0,0,1,7.89,14.72Zm37.12-79.68a17,17,0,0,1-17.78,16.26,17.31,17.31,0,0,1-12-5.34,16.56,16.56,0,0,1-4.65-12.07l.55-16.63,34.43,1.14Zm81.61-64.87-4.61-.16.15-4.37a4.38,4.38,0,0,1,4.75-3.95Zm42.77,80a6.71,6.71,0,1,1-7.07,6.47A6.72,6.72,0,0,1,1272.06,799.42Zm-9.12,10.48a9.8,9.8,0,0,0,17.52.59,37.52,37.52,0,0,1,9.67,4.17,36.56,36.56,0,0,1,12.14,11.94l-11,5.78a24.5,24.5,0,0,0-7.68-7.35,25.13,25.13,0,0,0-32.9,6L1240,824.57A37.23,37.23,0,0,1,1262.94,809.9ZM1273,830.39l-.37,10.9a2,2,0,0,1-3.89-.13l.36-10.9a2,2,0,0,1,3.9.13ZM1232.17,711l4.59.16-.28,8.48-4.61-.16Zm6.42,158.32a6.94,6.94,0,0,1-9.26-2.77,6.62,6.62,0,0,1,2.65-9l.15-.08a6.94,6.94,0,0,1,9.26,2.76,6.62,6.62,0,0,1-2.66,9l-.12.07Zm4.57-.27a9.37,9.37,0,0,0,.76-10.11,9.74,9.74,0,0,0-9-5,35.7,35.7,0,0,1,3.34-26.52l10.64,6.48a23.79,23.79,0,0,0-2.68,10.17A24.5,24.5,0,0,0,1268,869l-.41,12.19a37.55,37.55,0,0,1-24.43-12.13Zm26.91-9.73a14.21,14.21,0,0,1-13.75-14,13.85,13.85,0,0,1,5.9-11.35,2.13,2.13,0,0,1,3,.48,2.53,2.53,0,0,1,.13.22l.08.15a2,2,0,0,1-.62,2.62,9.67,9.67,0,0,0-4.07,7.55,10,10,0,1,0,19.91.73,9.68,9.68,0,0,0-3.55-7.87,2,2,0,0,1-.46-2.65l.1-.15a2.13,2.13,0,0,1,2.94-.63l.19.14a13.88,13.88,0,0,1,5.16,11.23,14.18,14.18,0,0,1-14.8,13.53h-.12Zm17.61,17.6a37.55,37.55,0,0,1-16.64,4.28l.41-12.25a24.91,24.91,0,0,0,10.34-2.82,24,24,0,0,0,11.07-30.88l11.05-5.77a35.65,35.65,0,0,1,1.56,26.79,9.78,9.78,0,0,0-9.33,4.37,9.36,9.36,0,0,0,.07,10.14,37.28,37.28,0,0,1-8.5,6.14Zm22.51-7.66a7,7,0,0,1-9.43,2.13,6.62,6.62,0,0,1-2.3-9.07,1.4,1.4,0,0,1,.1-.16A6.94,6.94,0,0,1,1308,860a6.62,6.62,0,0,1,2.35,9.07l-.1.18Z" transform="translate(-0.03 0)"/><ellipse class="cls-31" cx="1133.44" cy="694.11" rx="3.37" ry="3.44" transform="translate(401.94 1803.81) rotate(-88.09)"/><path class="cls-31" d="M1297.11,921.44l-9.25-.31a2.81,2.81,0,0,0-2.92,2.68l-.18,5.61a2.79,2.79,0,0,0,2.73,2.85h0l9.25.31a2.8,2.8,0,0,0,2.93-2.67l.19-5.6a2.81,2.81,0,0,0-2.74-2.87Zm-2.17,7.72a.48.48,0,0,1,.32.15.42.42,0,0,1,.13.33.44.44,0,0,1-.15.32.45.45,0,0,1-.33.12l-4.67-.15a.47.47,0,0,1-.46-.48h0l0-1.38a1.77,1.77,0,0,1,.6-1.28,1.81,1.81,0,0,1,1.35-.49l1.88.06a.92.92,0,0,0,.67-.25.91.91,0,0,0,.06-1.29h0a1,1,0,0,0-.66-.3l-3.29-.11a.43.43,0,0,1-.33-.14.42.42,0,0,1-.13-.33.44.44,0,0,1,.15-.32.47.47,0,0,1,.34-.12l3.29.11a1.77,1.77,0,0,1,1.31.58,1.8,1.8,0,0,1,0,2.56l0,0a1.85,1.85,0,0,1-1.35.49l-1.87-.06a.89.89,0,0,0-.68.24.87.87,0,0,0-.29.64l0,.92Z" transform="translate(-0.03 0)"/></g><path class="cls-8" d="M563.65,1579.82l164.59,1a8.23,8.23,0,0,0,7.47-5.19h0c.94-2.88-.89-5.24-4.07-5.26l-164.59-1a8.21,8.21,0,0,0-7.47,5.19h0C558.64,1577.45,560.47,1579.82,563.65,1579.82Z" transform="translate(-0.03 0)"/><path class="cls-7" d="M868.06,896s2-4.38,3.21-6.45,6.64-8.15,7.56-6.77,4.58,10.63,2.64,13.22.12,7.1-9.56,9.83Z" transform="translate(-0.03 0)"/><path class="cls-23" d="M760.41,868.37s49.59,41.39,68.93,37.56c15.12-3,38.32-11,38.32-11l4.68,11.89S851.53,935,829.83,935.23c-33.91.29-59-14.68-59-14.68Z" transform="translate(-0.03 0)"/><path class="cls-32" d="M673.45,1305s1.43,23.22,5.93,23.55h22.78l28.33-.17s-.19-6.82-8.47-8.26-22.13-7.27-27.15-18.21C689.59,1290.43,673.45,1305,673.45,1305Z" transform="translate(-0.03 0)"/><path class="cls-9" d="M671.81,1306.59s8.61,2.88,15.34,2.88a56.22,56.22,0,0,0,14.31-2s1.62-15.68,10.54-50.22c4.68-18.11,11.36-41.39,20.86-70.31,26.27-80,34.26-126.71,35-131.14l.06-.35h-.09L687.06,1020s10,110.18-2.76,152.48a180,180,0,0,0-4.62,20.26C671.63,1238.58,671.81,1306.59,671.81,1306.59Z" transform="translate(-0.03 0)"/><path class="cls-8" d="M712,1257.21c4.68-18.11,11.36-41.39,20.86-70.31,26.27-80,34.26-126.71,35-131.14a2.54,2.54,0,0,0,0-.39l-80.77-35.47s10,110.18-2.76,152.48C682.51,1178.29,712,1257.21,712,1257.21Z" transform="translate(-0.03 0)"/><path class="cls-32" d="M736.53,1305s1.44,23.22,5.94,23.55h22.78l28.33-.17s-.19-6.82-8.47-8.26S763,1312.83,758,1301.89C752.68,1290.43,736.53,1305,736.53,1305Z" transform="translate(-0.03 0)"/><path class="cls-9" d="M782.34,1022.5s1,71.4-11.3,159.06-8.17,124.88-8.17,124.88-8.49,2.75-11.91,3a54.14,54.14,0,0,1-17.68-2s-17.68-87.7-12.61-131.58-24.21-150.57-24.21-150.57Z" transform="translate(-0.03 0)"/><path class="cls-7" d="M725.05,855.41l15.77,10.34,14.36-4.06c2.63-3.74,3.32-11,3.36-17.22A107,107,0,0,0,758,833l-21.27-9.39-7.94-3.5c0,.12.62,6.52.7,7.45C731,844.15,725.05,855.41,725.05,855.41Z" transform="translate(-0.03 0)"/><path class="cls-12" d="M782.69,1042.35c-19.62,19-93.9,15.76-98.47-5.12s5-177.72,38.51-187.57c7-2,44.15,10,44.15,10a235.48,235.48,0,0,1,9.66,34.7c.75,3.78,2.91,43.86,4.54,81.36.75,17.54,1.39,34.51,1.72,46.94C783.1,1034.29,783.12,1041.93,782.69,1042.35Z" transform="translate(-0.03 0)"/><path class="cls-33" d="M731.06,827.82c4.32,7.3,19.46,13.69,27.48,16.61A107,107,0,0,0,758,833l-21.27-9.39C732,823.56,729.14,824.61,731.06,827.82Z" transform="translate(-0.03 0)"/><path class="cls-7" d="M766,831.71S731.73,842.4,725.4,821s-15-34.52,6.6-42.25,28.3-.81,32.15,5.84S774.76,828.38,766,831.71Z" transform="translate(-0.03 0)"/><path class="cls-34" d="M762.81,782.48s-2.19,25-7.35,23.87-10.84-3.4-10.09,4.13-5,20.42-12.46,20.39c-16-.07-33.3-41-28.93-48.8C716.58,759.66,781,755.14,762.81,782.48Z" transform="translate(-0.03 0)"/><path class="cls-23" d="M757.77,850.2c-.43-.19-25.52-11.38-28.43-10.46s-6.59,9.92-6.59,9.92l44.15,10S763.41,852.58,757.77,850.2Z" transform="translate(-0.03 0)"/><path class="cls-35" d="M913.87,971.67,773.34,1104c-2.75,2.6-6.23,3.42-7.72,1.84l-4.74-5c-1.49-1.58-.46-5,2.3-7.6L903.73,960.91c2.76-2.59,6.23-3.42,7.72-1.84l4.75,5C917.66,965.66,916.62,969.07,913.87,971.67Z" transform="translate(-0.03 0)"/><path class="cls-18" d="M835,1045.93,773.34,1104c-2.75,2.6-6.23,3.42-7.72,1.84l-4.74-5c-1.49-1.58-.46-5,2.3-7.6l61.67-58.07Z" transform="translate(-0.03 0)"/><path class="cls-35" d="M881.56,921.7A110.17,110.17,0,1,0,1064.16,811c-.56-.56-1.14-1.12-1.73-1.66A110.17,110.17,0,0,0,881.56,921.7ZM913.05,820a101.48,101.48,0,1,1,4.39,143.45l0,0a101.36,101.36,0,0,1-4.52-143.27l.15-.16Z" transform="translate(-0.03 0)"/><g class="cls-36"><path class="cls-37" d="M1060.85,959.08a101.47,101.47,0,1,1-4.38-143.43h0a101.08,101.08,0,0,1,4.89,142.86Z" transform="translate(-0.03 0)"/></g><path class="cls-23" d="M782.8,1022.64c-77.44-55.18-71-128.82-71-128.82,28.3,16,56.39,51.26,69.28,81.88C781.83,993.24,782.47,1010.21,782.8,1022.64Z" transform="translate(-0.03 0)"/><path class="cls-12" d="M859.24,997.51c5.46-1.26,9.13-5.39,9.89-6.11,0,0,2.33.16-.38,5.13-.23.41-.73,1.48-1.11,2.24a.47.47,0,0,0,.22.64.41.41,0,0,0,.18.05c3.16.24,6.32-1,12.4.26.83.17,1.08,2.18,1,3a7.71,7.71,0,0,1-1.63,5.29c-1,1.29-3.71,2.68-9.78,5.13-2.32.93-8.94.23-15.15-1.9l-5-2.3,1.53-9.21,1.25.26C854.73,1000.43,857.18,998,859.24,997.51Z" transform="translate(-0.03 0)"/><path class="cls-12" d="M735.83,859.64s-69.59,13.25,20.47,114c14.41,16.12,92.23,37.1,92.23,37.1s7.89-6.71,3.91-12.15c0,0-53.58-38.91-65.37-45.09-5.3-2.79-20.58-62.11-29.23-76.39S735.83,859.64,735.83,859.64Z" transform="translate(-0.03 0)"/><path class="cls-7" d="M870,897.23a35.59,35.59,0,0,0,2.72-6.65c.44-2.29,3.31-9,4.49-10.16.47-.47,2,.14,2.22,2.17a12,12,0,0,1-1.12,4.4c-1.25,3.11-1,7.33-1.47,8.74C875.71,899.24,870,897.23,870,897.23Z" transform="translate(-0.03 0)"/><path class="cls-38" d="M1039.27,939.35h-4.37a1.33,1.33,0,0,0-1.34,1.31v2.65a1.33,1.33,0,0,0,1.34,1.31h4.37a1.33,1.33,0,0,0,1.34-1.31v-2.65A1.33,1.33,0,0,0,1039.27,939.35Zm-.91,3.69a.24.24,0,0,1,.16.07.22.22,0,0,1-.14.37h-2.24a.21.21,0,0,1-.22-.2v-.67a.82.82,0,0,1,.26-.62.83.83,0,0,1,.63-.25h.88a.42.42,0,0,0,.32-.13.39.39,0,0,0,.13-.3.37.37,0,0,0-.13-.31.42.42,0,0,0-.32-.13h-1.55a.21.21,0,0,1-.22-.2v0a.2.2,0,0,1,.06-.15.23.23,0,0,1,.16-.06h1.55a.83.83,0,0,1,.63.25.86.86,0,0,1,0,1.22h0a.86.86,0,0,1-.63.26h-.88a.47.47,0,0,0-.32.12.44.44,0,0,0-.13.31V943Z" transform="translate(-0.03 0)"/><polygon class="cls-26" points="1976.91 857.34 2054.84 713.01 2112.14 788.35 2140.76 755.67 2201.39 846.31 1976.91 857.34"/><path class="cls-26" d="M2092,691a21.4,21.4,0,0,1,20.17-21.2,19,19,0,0,1,20.13,17.8c0,.47,0,.94,0,1.41a21.4,21.4,0,0,1-20.16,21.16A19,19,0,0,1,2092,692.4Q2092,691.71,2092,691Z" transform="translate(-0.03 0)"/><g class="cls-39"><text class="cls-40" transform="matrix(1.08, -0.16, 0.15, 0.99, 2028.5, 492.13)">J</text><text class="cls-41" transform="matrix(1.08, -0.16, 0.15, 0.99, 2120.18, 478.54)">A<tspan class="cls-42" x="95.87" y="0">V</tspan></text><text class="cls-43" transform="matrix(1.08, -0.16, 0.15, 0.99, 2338.47, 446.21)">A</text></g><text class="cls-44" transform="translate(1359.19 540.4) rotate(-13.34)">Py3</text><text class="cls-45" transform="translate(680.37 456.49) rotate(6.34)">CPP</text><text class="cls-46" transform="translate(796.12 223.77)">C</text><text class="cls-46" transform="translate(1060.49 344.31) rotate(-16.33)">SQL</text><g id="logo-2" data-name="logo" class="cls-47"><path class="cls-31" d="M1051.1,947.78l-86-2.87.56-16.87,86,2.86ZM966,944.07l84.23,2.81.51-15.16-84.23-2.81Z" transform="translate(-0.03 0)"/><path class="cls-31" d="M1047.61,933.42l-4.39-.15a1.34,1.34,0,0,0-1.39,1.27h0l-.09,2.66a1.34,1.34,0,0,0,1.3,1.36l4.39.15a1.33,1.33,0,0,0,1.39-1.27l.09-2.67a1.32,1.32,0,0,0-1.3-1.35Zm-1.13,3.62a1.6,1.6,0,0,1-2.21-.07,1.49,1.49,0,0,1,0-2.12l0,0a1.6,1.6,0,0,1,2.21.07,1.52,1.52,0,0,1,0,2.14Z" transform="translate(-0.03 0)"/><path class="cls-31" d="M1045.45,934.84a1.06,1.06,0,0,0-.81.29,1.07,1.07,0,0,0-.08,1.51l0,0a1.14,1.14,0,0,0,1.6.05,1.06,1.06,0,0,0,.07-1.51l0,0A1.08,1.08,0,0,0,1045.45,934.84Z" transform="translate(-0.03 0)"/><path class="cls-31" d="M1047.57,940.25l-4.39-.14a1.31,1.31,0,0,0-1.38,1.26h0l-.09,2.66a1.31,1.31,0,0,0,1.29,1.35h0l4.39.15a1.32,1.32,0,0,0,1.39-1.26h0l.09-2.66a1.33,1.33,0,0,0-1.29-1.36Zm-1.81,4.17a.18.18,0,0,1-.08.15.21.21,0,0,1-.15.07.25.25,0,0,1-.16-.08.2.2,0,0,1-.06-.15l.08-2.4h-.45a.22.22,0,0,1-.14-.38.23.23,0,0,1,.16-.06l.67,0a.26.26,0,0,1,.15.07.19.19,0,0,1,.06.16Z" transform="translate(-0.03 0)"/><rect class="cls-31" x="1024.04" y="938.66" width="5.29" height="7.09" rx="1.35" transform="translate(50.78 1936.94) rotate(-88.09)"/><path class="cls-31" d="M975.22,935.81l-3.54-.11-.62,1.23-1.38,0,3.26-6.53,1.39,0,2.82,6.73-1.4,0Zm-1.64-4-1.35,2.77,2.52.09Z" transform="translate(-0.03 0)"/><path class="cls-31" d="M987.23,932.76a1.34,1.34,0,0,1-.92,1.24,1.64,1.64,0,0,1,1,1.52c-.05,1.47-1.2,1.91-2.6,1.86l-3.21-.11.22-6.62,3.22.1C986.3,930.8,987.28,931.42,987.23,932.76Zm-4.31.59,2,.07c.79,0,1.07-.3,1.09-.68s-.23-.81-1-.83l-2-.07Zm-.09,2.79,1.95.07c.53,0,1.27-.13,1.29-.76s-.71-.93-1.23-1l-2-.06Z" transform="translate(-0.03 0)"/><path class="cls-31" d="M997,936.54l-3.54-.12-.62,1.23-1.39,0,3.26-6.52,1.39,0,2.82,6.72-1.39,0Zm-1.64-4L994,935.27l2.51.08Z" transform="translate(-0.03 0)"/><path class="cls-31" d="M1009,937.36a3.63,3.63,0,0,1-2.6.9,3.3,3.3,0,0,1-3.48-3.54,3.38,3.38,0,0,1,3.71-3.37,3.5,3.5,0,0,1,2.45,1.09l-.88.77a2.38,2.38,0,0,0-1.61-.68,2.2,2.2,0,0,0-2.4,2,1,1,0,0,0,0,.24,2.15,2.15,0,0,0,2.26,2.33,2.48,2.48,0,0,0,1.72-.62Z" transform="translate(-0.03 0)"/><path class="cls-31" d="M1019.73,931.92l-.13,3.8a2.72,2.72,0,0,1-3,2.86,2.79,2.79,0,0,1-2.91-3.06l.12-3.8,1.27,0-.12,3.79a1.64,1.64,0,0,0,1.69,1.89c1,0,1.67-.64,1.71-1.77l.13-3.8Z" transform="translate(-0.03 0)"/><path class="cls-31" d="M1029.05,933.83a2,2,0,0,0-1.57-.8c-1,0-1.42.36-1.43.84s.67.76,1.48.88c1.41.22,2.71.62,2.66,2.2s-1.41,2.07-2.92,2-2.43-.48-2.89-1.73l1.08-.5a1.92,1.92,0,0,0,1.87,1.11c.83,0,1.57-.22,1.59-.94s-.64-.9-1.54-1c-1.37-.2-2.64-.6-2.59-2.08s1.44-1.88,2.69-1.84a2.75,2.75,0,0,1,2.62,1.4Z" transform="translate(-0.03 0)"/><path class="cls-31" d="M1038.81,933.12l-4.39-.14a1.32,1.32,0,0,0-1.39,1.27h0l-.09,2.66a1.34,1.34,0,0,0,1.3,1.36l4.39.14a1.32,1.32,0,0,0,1.39-1.27l.09-2.66a1.34,1.34,0,0,0-1.3-1.36Zm-1,3.68a.24.24,0,0,1,.16.07.23.23,0,0,1,.06.16.23.23,0,0,1-.07.15.23.23,0,0,1-.16.06l-2.23-.08a.2.2,0,0,1-.16-.07.2.2,0,0,1-.06-.15l0-.66a.85.85,0,0,1,.28-.61.87.87,0,0,1,.64-.24l.9,0a.43.43,0,0,0,.32-.12.42.42,0,0,0,0-.61.41.41,0,0,0-.31-.14l-1.57-.05a.26.26,0,0,1-.15-.07.22.22,0,0,1,0-.32.22.22,0,0,1,.16,0l1.56,0a.85.85,0,0,1,.62.27.88.88,0,0,1,0,1.23h0a.88.88,0,0,1-.64.24l-.89,0a.42.42,0,0,0-.32.11.41.41,0,0,0-.14.31l0,.44Z" transform="translate(-0.03 0)"/><path class="cls-31" d="M976,937.87l-4.39-.15a1.33,1.33,0,0,0-1.38,1.27h0l-.09,2.66a1.32,1.32,0,0,0,1.3,1.36h0l4.39.15a1.33,1.33,0,0,0,1.38-1.27h0l.08-2.66a1.32,1.32,0,0,0-1.3-1.36Zm-2.77,3.76v0h-.13l-.15,0h-.46l-.15,0H972l0-1h0l1.23,0,0,1.13Zm0-1.27-1.23,0,0-1h0l1.23-.13h0C973.32,939.33,973.29,940.34,973.28,940.36Zm1.74,1.57v0l-1.63-.28,0-1.2,1.63.06,0,1.36Zm.05-1.55v0l-1.64,0,0-1.18h0l1.64-.18h0l-.05,1.37Z" transform="translate(-0.03 0)"/><path class="cls-31" d="M1020.56,939.35,979.92,938a1.33,1.33,0,0,0-1.39,1.27h0l-.09,2.66a1.34,1.34,0,0,0,1.3,1.36h0l40.65,1.35a1.32,1.32,0,0,0,1.38-1.27h0l.09-2.66a1.33,1.33,0,0,0-1.3-1.36Zm-5,3.56-31.31-1a.26.26,0,0,1-.25-.26.25.25,0,0,1,.26-.24l31.32,1a.26.26,0,0,1,.25.26.26.26,0,0,1-.27.24Z" transform="translate(-0.03 0)"/><rect class="cls-31" x="950.42" y="826.07" width="9.07" height="0.61" transform="translate(97.2 1753.28) rotate(-88.09)"/><ellipse class="cls-31" cx="956.92" cy="906.76" rx="0.63" ry="0.64" transform="translate(18.77 1832.94) rotate(-88.09)"/><ellipse class="cls-31" cx="947.63" cy="906.45" rx="0.63" ry="0.64" transform="translate(10.09 1823.36) rotate(-88.09)"/><path class="cls-31" d="M954.42,851.49h-.61a2.2,2.2,0,0,0-2.06,2.09l-.08,2.39a2.17,2.17,0,0,0,1.92,2.22h.61a2.2,2.2,0,0,0,2.07-2.08l.08-2.4A2.2,2.2,0,0,0,954.42,851.49Zm.74,4.65a1.2,1.2,0,0,1-2.4-.08l.09-2.52a1.2,1.2,0,1,1,2.39.07Z" transform="translate(-0.03 0)"/><path class="cls-31" d="M954.49,849.61l-.08,2.22-.6,0,.07-2.22a.19.19,0,0,0,.18.19h.24A.19.19,0,0,0,954.49,849.61Z" transform="translate(-0.03 0)"/><path class="cls-31" d="M954.14,857.56l-.54.15v.48h.61l0-.67Z" transform="translate(-0.03 0)"/><path class="cls-31" d="M962.78,818.45a3.67,3.67,0,0,1,.44.52,8.74,8.74,0,0,1,1.1,5.23,8.91,8.91,0,0,1-1.5,4.09.61.61,0,0,1-.84.21h0a.61.61,0,0,1-.19-.84v0a8.08,8.08,0,0,0,1.12-2.44,7.53,7.53,0,0,0-.64-5.49l-.18-.33a.59.59,0,0,1,.12-.81.72.72,0,0,1,.2-.09l.08-.05Z" transform="translate(-0.03 0)"/><path class="cls-31" d="M948,818a.64.64,0,0,1,.35.84.67.67,0,0,1-.12.2,7.47,7.47,0,0,0-.91,6.55,14.75,14.75,0,0,0,.72,1.62.56.56,0,0,1-.09.7.57.57,0,0,1-.69.17.81.81,0,0,1-.31-.3,8.76,8.76,0,0,1-.16-8.68,4.57,4.57,0,0,1,.42-.71,3.23,3.23,0,0,1,.44-.39Z" transform="translate(-0.03 0)"/><path class="cls-31" d="M949.29,823.1a6.15,6.15,0,0,1,.61-2.53.61.61,0,0,1,.8-.34l0,0a.56.56,0,0,1,.3.74l0,.07a5.14,5.14,0,0,0-.16,4.17.86.86,0,0,1,0,.57.49.49,0,0,1-.5.3.68.68,0,0,1-.59-.42,6.09,6.09,0,0,1-.46-2.27C949.28,823.31,949.29,823.2,949.29,823.1Z" transform="translate(-0.03 0)"/><path class="cls-31" d="M960.84,823.39a6.18,6.18,0,0,1-.63,2.6.59.59,0,0,1-.77.34l-.15-.08a.54.54,0,0,1-.18-.75v0a4.89,4.89,0,0,0,.51-2.15,5.17,5.17,0,0,0-.37-2,.59.59,0,0,1,.25-.8.56.56,0,0,1,.42,0,.57.57,0,0,1,.46.41A6.25,6.25,0,0,1,960.84,823.39Z" transform="translate(-0.03 0)"/><path class="cls-31" d="M942.89,925l-.56,17a2.13,2.13,0,0,0,2.08,2.18h0l13.33.45a2.14,2.14,0,0,0,2.22-2l.57-17Zm6.8,12.79-5.13-.17.1-3,5.11.17Zm8.51.28-5.12-.17.1-3,5.11.17Z" transform="translate(-0.03 0)"/><path class="cls-31" d="M997.37,899" transform="translate(-0.03 0)"/><path class="cls-31" d="M1009.13,923.14A27.07,27.07,0,0,1,997.34,900v-.06h0a26.78,26.78,0,0,0,4.89,16.36l1.76,2.27A28.09,28.09,0,0,0,1009.13,923.14Z" transform="translate(-0.03 0)"/><path class="cls-31" d="M1013.87,925.74v0a27.36,27.36,0,0,1-3.93-2.09l0,0Z" transform="translate(-0.03 0)"/><path class="cls-31" d="M1025.26,928.14l-1,0a28.38,28.38,0,0,1-3.44-.32v0l4.38.35Z" transform="translate(-0.03 0)"/><path class="cls-31" d="M1045.67,919.39a28,28,0,0,1-19.24,8.73,28.82,28.82,0,0,0,7-1.24L1036,926a28.34,28.34,0,0,0,7.44-4.49l1.79-1.65Z" transform="translate(-0.03 0)"/><path class="cls-31" d="M997.42,897.62l-.08,2.3c0-.74.08-1.46.17-2.18A.13.13,0,0,1,997.42,897.62Zm16.44,28.16v0a27.8,27.8,0,0,0,5.76,1.84l1.19.21,0-.05a27.31,27.31,0,0,1-7-2Zm11.39,2.37h0a9,9,0,0,0,1.17,0c-.38,0-.77,0-1.16,0Z" transform="translate(-0.03 0)"/><path class="cls-31" d="M1051.06,911.05l.67-1.58,5-.12a32.51,32.51,0,0,0,1-5l-4.51-1.85-.11-4.31,4.47-2.08a32.5,32.5,0,0,0-1.19-5l-5.13.1-1.89-3.89,3.34-3.83a32.92,32.92,0,0,0-3.06-3.91l-4.64,2.13-3.35-2.81,1.45-4.81a32,32,0,0,0-4.39-2.37l-3.36,3.8-4.22-1.25-.68-5a33.2,33.2,0,0,0-5.18-.41l-1.39,4.52-4.37.54-2.52-4a33.64,33.64,0,0,0-5,1.71l.61,4.68-3.77,2.24-1-.7L1026,842.1c2.87-5.64-1.64-12.11-8.58-12.34l-12.37-.41a5,5,0,0,0-5.46,4.56l-1.63,48.77-5.07-.17A2.32,2.32,0,0,0,990,881a2.29,2.29,0,0,0-1.46,1.37l-5.13-.17.69-20.73c.54-16.23-12.4-29.85-28.94-30.56l-.63,18.73a8.7,8.7,0,0,1,8.23,8.89l-.06,1.83-8.62-.29a.09.09,0,0,0,.11-.09h0l.06-1.75h-.61l-.06,1.75a.1.1,0,0,0,.1.1l-8.62-.29.06-1.8a8.71,8.71,0,0,1,8.81-8.34l.63-18.73c-16.57-.39-30.37,12.34-30.91,28.57l-1.68,50.43a14.58,14.58,0,0,0,14.25,14.9l6.68.22.47-14.09,17.64.59-.47,14.09,6.68.22a14.59,14.59,0,0,0,15.22-13.92l.94-28.33,5.14.18a2.27,2.27,0,0,0,1.41,1.47l-1.46,43.71,1.42,0,1.46-43.71a2.22,2.22,0,0,0,1.51-1.38l5.06.17-.45,13.56h0a.11.11,0,0,0,.08.12c-.08.72-.14,1.44-.16,2.18h0a26.82,26.82,0,0,0,4.88,16.37l1.76,2.27a28,28,0,0,0,5.1,4.56l.73.49.09.07h0l0,0,3.87,2.07v0a27.81,27.81,0,0,0,7,2v0l4.38.36h0c.4,0,.8,0,1.17,0a28.8,28.8,0,0,0,6.95-1.23l2.59-.93a28.91,28.91,0,0,0,7.44-4.48l1.79-1.66.47-.42.15-.14,4.57,1.85a31.18,31.18,0,0,0,3-4.15l-3.35-3.49.72-1.69Zm-30.77-78.63a2.24,2.24,0,0,1,2.29,2.18l-.07,2.24-2.36-.08Zm-3.69-.13,2.36.08-.15,4.35-2.36-.08Zm-3.57-.12,2.36.08-.15,4.35-2.35-.08Zm-3.66-.12,2.36.08-.15,4.35-2.36-.08Zm-52.82.89a.37.37,0,0,1-.33-.38.36.36,0,0,1,.71,0,.37.37,0,0,1-.38.35Zm2,1.73a.69.69,0,0,1-.66-.73.7.7,0,1,1,.66.72Zm-8.2-1.79a.76.76,0,0,1-.08,1.52.75.75,0,0,1-.72-.78.77.77,0,0,1,.8-.74Zm-7,77.41a8.42,8.42,0,0,1,1.31-4.25,8.61,8.61,0,0,1,3.19-3L946,899.57a.14.14,0,0,1,0-.2h0a.19.19,0,0,1,.23.06l1.88,3.49a8.83,8.83,0,0,1,4.31-.95,9.27,9.27,0,0,1,2.22.36,8.63,8.63,0,0,1,2,.86l2.11-3.34a.16.16,0,0,1,.22-.06.16.16,0,0,1,.06.22h0l-2.13,3.34a8.58,8.58,0,0,1,4,7.54Zm19-40.82a8.74,8.74,0,0,1-9.11,8.33,8.86,8.86,0,0,1-6.15-2.74,8.45,8.45,0,0,1-2.38-6.18l.28-8.52,17.64.58Zm41.81-33.24-2.36-.08.08-2.24a2.25,2.25,0,0,1,2.43-2Zm21.92,41a3.44,3.44,0,1,1-3.63,3.31A3.48,3.48,0,0,1,1026.08,877.22Zm-4.68,5.37a5,5,0,0,0,6.66,2.47,5.08,5.08,0,0,0,2.32-2.17,19.42,19.42,0,0,1,4.95,2.14,18.73,18.73,0,0,1,6.22,6.11l-5.66,3a12.6,12.6,0,0,0-3.93-3.76,12.87,12.87,0,0,0-16.86,3.09l-5.45-3.32A19.06,19.06,0,0,1,1021.4,882.59Zm5.17,10.5-.19,5.58a1,1,0,0,1-1.11.87,1,1,0,0,1-.88-.94l.18-5.58a1,1,0,0,1,2,.07Zm-20.93-61.16,2.35.08-.14,4.34-2.37-.08Zm3.29,81.11a3.56,3.56,0,0,1-4.75-1.42,3.38,3.38,0,0,1,1.36-4.6l.08,0a3.57,3.57,0,0,1,4.74,1.42A3.4,3.4,0,0,1,1009,913l-.06,0Zm2.34-.14a4.82,4.82,0,0,0,.39-5.18,5,5,0,0,0-4.62-2.55,18.26,18.26,0,0,1,1.71-13.58l5.45,3.32a12.13,12.13,0,0,0-1.37,5.21A12.55,12.55,0,0,0,1024,912.87l-.2,6.25a19.22,19.22,0,0,1-12.52-6.22Zm13.78-5a7.28,7.28,0,0,1-7-7.17,7.12,7.12,0,0,1,3-5.82,1.1,1.1,0,0,1,1.52.25l.07.11,0,.08a1,1,0,0,1-.32,1.35,5,5,0,0,0-2.09,3.86,5.11,5.11,0,0,0,10.21.38,4.94,4.94,0,0,0-1.83-4,1,1,0,0,1-.23-1.37l0-.07a1.09,1.09,0,0,1,1.51-.32l.1.07a7.12,7.12,0,0,1,2.64,5.75,7.26,7.26,0,0,1-7.58,6.93h-.07Zm9,9a19.2,19.2,0,0,1-8.53,2.2l.21-6.28a12.75,12.75,0,0,0,5.3-1.44,12.27,12.27,0,0,0,5.67-15.82l5.66-3a18.25,18.25,0,0,1,.8,13.73,5,5,0,0,0-4.78,2.23,4.8,4.8,0,0,0,0,5.2,18.74,18.74,0,0,1-4.36,3.14Zm11.53-3.92a3.56,3.56,0,0,1-4.83,1.09,3.38,3.38,0,0,1-1.18-4.64l.05-.09a3.56,3.56,0,0,1,4.83-1.1,3.4,3.4,0,0,1,1.21,4.65l-.06.09Z" transform="translate(-0.03 0)"/><ellipse class="cls-31" cx="955.06" cy="823.26" rx="1.73" ry="1.76" transform="translate(100.41 1750.37) rotate(-88.09)"/><path class="cls-31" d="M1038.91,939.73l-4.74-.15a1.42,1.42,0,0,0-1.49,1.37l-.1,2.87a1.44,1.44,0,0,0,1.4,1.47h0l4.74.15a1.43,1.43,0,0,0,1.5-1.36l.1-2.88a1.45,1.45,0,0,0-1.41-1.47Zm-1.11,4a.21.21,0,0,1,.16.08.2.2,0,0,1,.07.16.21.21,0,0,1-.08.17.21.21,0,0,1-.17.06l-2.39-.08a.24.24,0,0,1-.24-.24h0l0-.71a.85.85,0,0,1,.3-.65,1,1,0,0,1,.69-.26l1,0a.48.48,0,0,0,.35-.12.47.47,0,0,0,0-.66h0a.46.46,0,0,0-.33-.15l-1.69-.06a.23.23,0,0,1-.17-.07.22.22,0,0,1-.06-.17.24.24,0,0,1,.07-.16.24.24,0,0,1,.18-.07l1.68.06a.89.89,0,0,1,.67.3.92.92,0,0,1,0,1.31l0,0a1,1,0,0,1-.69.26l-1,0a.49.49,0,0,0-.35.13.45.45,0,0,0-.15.33l0,.47Z" transform="translate(-0.03 0)"/></g></svg>