<svg id="Layer_1" data-name="Layer 1" xmlns="http://www.w3.org/2000/svg" width="50" height="40" xmlns:xlink="http://www.w3.org/1999/xlink" viewBox="0 0 2904 1808"><defs><style>.cls-1,.cls-8{fill:#fff;}.cls-2{fill:url(#linear-gradient);}.cls-3{fill:#91b3fa;}.cls-4{fill:#dce5fe;}.cls-5{fill:#bdd0fb;}.cls-6{fill:#7d97f4;}.cls-7{fill:#012650;}.cls-8{opacity:0.56;}.cls-8,.cls-9{isolation:isolate;}.cls-9{opacity:0.2;fill:url(#linear-gradient-2);}.cls-10{fill:url(#linear-gradient-3);}.cls-11{fill:url(#linear-gradient-4);}.cls-12{fill:#ec9037;}.cls-13{fill:url(#linear-gradient-5);}.cls-14{fill:url(#linear-gradient-6);}.cls-15{fill:url(#linear-gradient-7);}.cls-16{fill:url(#linear-gradient-8);}.cls-17{fill:url(#linear-gradient-9);}.cls-18{fill:#97aeef;}.cls-19{opacity:0.64;}.cls-20{fill:url(#linear-gradient-10);}.cls-21{fill:#6b8cc6;}.cls-22{fill:#7a97ea;}.cls-23{fill:url(#linear-gradient-11);}.cls-24{fill:url(#linear-gradient-12);}.cls-25{fill:url(#linear-gradient-13);}.cls-26{fill:url(#linear-gradient-14);}.cls-27{fill:url(#linear-gradient-15);}.cls-28{fill:#fcfcfc;}.cls-29{fill:url(#linear-gradient-16);}.cls-30{fill:url(#linear-gradient-17);}.cls-31{fill:url(#linear-gradient-18);}.cls-32{fill:url(#linear-gradient-19);}.cls-33{fill:url(#linear-gradient-20);}.cls-34{fill:url(#linear-gradient-21);}.cls-35{fill:url(#linear-gradient-22);}.cls-36{fill:url(#linear-gradient-23);}.cls-37{fill:url(#linear-gradient-24);}</style><linearGradient id="linear-gradient" x1="587.92" y1="951.09" x2="3186.78" y2="951.09" gradientTransform="matrix(-1, 0.09, -0.09, -1, 3448.01, 1654.18)" gradientUnits="userSpaceOnUse"><stop offset="0" stop-color="#dae3fe"/><stop offset="1" stop-color="#e9effd"/></linearGradient><linearGradient id="linear-gradient-2" x1="614.5" y1="866.44" x2="2161.47" y2="866.44" gradientTransform="matrix(1, 0, 0, -1, 0, 1808)" xlink:href="#linear-gradient"/><linearGradient id="linear-gradient-3" x1="2103.44" y1="214.46" x2="2025.99" y2="145.35" gradientTransform="matrix(1, 0, 0, -1, 0, 1808)" gradientUnits="userSpaceOnUse"><stop offset="0" stop-color="#ff928e"/><stop offset="1" stop-color="#feb3b1"/></linearGradient><linearGradient id="linear-gradient-4" x1="5142.5" y1="258.12" x2="5350.44" y2="258.12" gradientTransform="matrix(1, 0, 0, -1, -3144.35, 1808)" xlink:href="#linear-gradient-3"/><linearGradient id="linear-gradient-5" x1="2213.95" y1="657.12" x2="2229.44" y2="558.22" xlink:href="#linear-gradient-3"/><linearGradient id="linear-gradient-6" x1="3516.9" y1="-1257.04" x2="3587.2" y2="-1184.36" gradientTransform="matrix(1, 0, 0, -1, -3144.35, 1808)" xlink:href="#linear-gradient-3"/><linearGradient id="linear-gradient-7" x1="3533.53" y1="-1273.13" x2="3603.83" y2="-1200.44" gradientTransform="matrix(1, 0, 0, -1, -3144.35, 1808)" xlink:href="#linear-gradient-3"/><linearGradient id="linear-gradient-8" x1="2366.25" y1="521.18" x2="2281.65" y2="434.2" xlink:href="#linear-gradient-3"/><linearGradient id="linear-gradient-9" x1="2109.45" y1="414.38" x2="2275.68" y2="414.38" gradientTransform="matrix(1, 0, 0, -1, 0, 1808)" gradientUnits="userSpaceOnUse"><stop offset="0" stop-color="#fe7062"/><stop offset="1" stop-color="#ff928e"/></linearGradient><linearGradient id="linear-gradient-10" x1="8912.84" y1="211.27" x2="8942" y2="211.27" gradientTransform="matrix(1, 0, 0, -1, -8317.13, 1808)" xlink:href="#linear-gradient-3"/><linearGradient id="linear-gradient-11" x1="8975.38" y1="499.85" x2="9070.73" y2="499.85" gradientTransform="matrix(1, 0, 0, -1, -8317.13, 1808)" xlink:href="#linear-gradient-3"/><linearGradient id="linear-gradient-12" x1="598.85" y1="735.23" x2="598.85" y2="520.75" xlink:href="#linear-gradient-3"/><linearGradient id="linear-gradient-13" x1="517.71" y1="681.79" x2="512.95" y2="573.36" xlink:href="#linear-gradient-3"/><linearGradient id="linear-gradient-14" x1="9047.77" y1="2442.7" x2="9027.51" y2="2529.68" gradientTransform="matrix(0.92, 0.39, 0.39, -0.92, -9056.84, 2193.02)" xlink:href="#linear-gradient-3"/><linearGradient id="linear-gradient-15" x1="9022.21" y1="2436.75" x2="9001.95" y2="2523.74" gradientTransform="matrix(0.92, 0.39, 0.39, -0.92, -9056.84, 2193.02)" xlink:href="#linear-gradient-3"/><linearGradient id="linear-gradient-16" x1="3897.6" y1="859.45" x2="3902.37" y2="621.14" gradientTransform="translate(5732.5 1808) rotate(180)" xlink:href="#linear-gradient-3"/><linearGradient id="linear-gradient-17" x1="3952.18" y1="192.8" x2="3942.77" y2="110.7" gradientTransform="translate(5732.5 1808) rotate(180)" xlink:href="#linear-gradient-3"/><linearGradient id="linear-gradient-18" x1="1732.25" y1="280.7" x2="1708.42" y2="179.81" xlink:href="#linear-gradient-3"/><linearGradient id="linear-gradient-19" x1="1784.59" y1="736" x2="1763.14" y2="643.06" xlink:href="#linear-gradient-3"/><linearGradient id="linear-gradient-20" x1="1708.22" y1="754.8" x2="1771.37" y2="728.59" xlink:href="#linear-gradient-3"/><linearGradient id="linear-gradient-21" x1="1663.8" y1="593.32" x2="1714.92" y2="645.76" gradientTransform="matrix(-0.69, -0.73, 0.73, -0.69, 2495.82, 2793.9)" xlink:href="#linear-gradient-3"/><linearGradient id="linear-gradient-22" x1="1772.23" y1="545.05" x2="1780.57" y2="404.45" gradientTransform="matrix(1, 0, 0, -1, 0, 1808)" gradientUnits="userSpaceOnUse"><stop offset="0" stop-color="#4042e2"/><stop offset="1" stop-color="#4f52ff"/></linearGradient><linearGradient id="linear-gradient-23" x1="3703.52" y1="-935.82" x2="3763.1" y2="-730.88" gradientTransform="translate(5732.5 1808) rotate(180)" xlink:href="#linear-gradient-3"/><linearGradient id="linear-gradient-24" x1="3719.91" y1="-940.58" x2="3779.49" y2="-735.64" gradientTransform="translate(5732.5 1808) rotate(180)" xlink:href="#linear-gradient-3"/></defs><title>teach</title><rect class="cls-1" width="2904" height="1808"/><path class="cls-2" d="M2237.53,165.61c214.84,135.42-34.69,350.89,112.2,424.67S3109,916,2564.39,1293.81c-273.34,189.6-586.94,399.57-1020,224.61s-388-157.64-714.83,9.74-703.09-22.92-606.85-291.79S396.2,964.64,242.44,810,412.52-18.36,921.29,298.11,1326.54,510,1510,309.93C1609.28,201.61,1898-48.41,2237.53,165.61Z"/><path class="cls-3" d="M2112.36,1282.58s59.21-298.23,153.36-413.4c84-102.78,212-239.5,238.56-267.71a2.94,2.94,0,0,1,5.08,2c.23,43.4-8.2,274.06-204.18,462.47C2087.92,1274.8,2112.36,1282.58,2112.36,1282.58Z"/><path class="cls-4" d="M2472.1,690.74c-10.1,19.06-20.77,37.76-31.7,56.33s-22.21,36.92-33.77,55.09q-34.65,54.55-73.18,106.53-19.34,25.9-39.74,51t-42.22,49c-14.61,15.87-29.63,31.36-45.21,46.31s-31.91,29.09-48.79,42.59a2.39,2.39,0,1,1-3-3.72h0c16.8-13.31,33-27.42,48.65-42.09s30.58-30.15,45.19-45.9,28.61-32.07,42.3-48.63,26.92-33.52,39.86-50.69q38.67-51.63,73.5-106,17.45-27.15,34-54.86c11-18.49,21.74-37.14,31.88-56.07h0a1.24,1.24,0,0,1,1.68-.5A1.22,1.22,0,0,1,2472.1,690.74Z"/><path class="cls-5" d="M2710,874.29c-18.2,81.81-141.93,553.12-568.07,503.41,0,0,8.26-333.6,559.86-512C2706.59,864.15,2711.17,868.94,2710,874.29Z"/><path class="cls-4" d="M2651.69,928.74c-14,22.54-28.83,44.44-44,66.15s-30.85,43-46.94,64.07-32.67,41.68-49.7,62-34.5,40.23-52.62,59.58-36.63,38.37-56,56.53-39.12,35.93-60,52.46c-41.4,33.31-86.23,63-135.25,84.78a6,6,0,0,1-4.92-11h.11c47.89-20.71,92.34-49.32,133.59-81.78,20.75-16.1,40.55-33.47,59.91-51.27s38-36.47,56.2-55.51,35.82-38.67,53-58.69,33.9-40.41,50.17-61.17,32.11-41.88,47.48-63.33,30.39-43.19,44.53-65.38h0a2.57,2.57,0,0,1,4.34,2.74Z"/><path class="cls-6" d="M2011.47,1568.93h664.35V1436H2011.47C2025.69,1436,2025.69,1568.93,2011.47,1568.93Z"/><path class="cls-7" d="M2675.82,1535.66v-60.85c0-21.45-13.13-38.84-29.33-38.84H2014.27a23.05,23.05,0,0,1-23.06-23.06h0a7,7,0,0,1,7-7h691c15.84,0,41,24.91,41,55.65v85c0,29-24.42,52.47-39.36,52.47h-689a10.64,10.64,0,0,1-10.64-10.64h0a19.43,19.43,0,0,1,19.42-19.43H2650.7C2664.57,1568.93,2675.82,1554,2675.82,1535.66Z"/><path class="cls-8" d="M2657.39,1464.44H2034.47a1.19,1.19,0,0,1,0-2.38h622.92a1.19,1.19,0,0,1,0,2.38Z"/><path class="cls-8" d="M2657.39,1484.18H2034.47a1.2,1.2,0,0,1,0-2.39h622.92a1.2,1.2,0,0,1,0,2.39Z"/><path class="cls-8" d="M2657.39,1503.91H2034.47a1.19,1.19,0,0,1,0-2.38h622.92a1.19,1.19,0,0,1,0,2.38Z"/><path class="cls-8" d="M2657.39,1523.65H2034.47a1.19,1.19,0,0,1,0-2.38h622.92a1.19,1.19,0,0,1,0,2.38Z"/><path class="cls-8" d="M2657.39,1543.39H2034.47a1.2,1.2,0,0,1,0-2.39h622.92a1.2,1.2,0,0,1,0,2.39Z"/><rect class="cls-6" x="2077.09" y="1261" width="597.79" height="144.3" rx="23.94"/><rect class="cls-3" x="2537.09" y="1277.58" width="70.23" height="111.13" rx="8.63"/><rect class="cls-3" x="2500.41" y="1277.58" width="26.35" height="111.13" rx="4.37"/><path class="cls-3" d="M513.07,70.16C453.42,164.55,128.71,728,602.71,1127.67c0,0,309.25-315.91-73.26-1056.82a9.44,9.44,0,0,0-16.38-.69Z"/><path class="cls-4" d="M525,182.6c-5.56,35.17-10.41,70.5-15,105.84s-8.64,70.74-12.34,106.19c-7.4,70.88-13.22,141.92-16.85,213.07s-5.07,142.41-2.68,213.54q1.62,53.34,7.18,106.4c3.77,35.31,8.94,70.49,16.86,105h0a4.58,4.58,0,0,1-8.93,2h0c-7.82-35.06-12.81-70.59-16.39-106.18s-5.69-71.31-6.56-107c-2-71.44,0-142.87,4-214.13S484.67,465,492.52,394.07q5.88-53.19,13-106.22c4.76-35.36,9.82-70.66,15.62-105.89a1.94,1.94,0,1,1,3.84.62Z"/><path class="cls-5" d="M189.33,500.5C160.1,619,18.16,1315.58,647.89,1566.18c0,0,211.49-434.52-441.34-1070.63a10.33,10.33,0,0,0-17.22,4.95Z"/><path class="cls-4" d="M240.13,613.15c4.6,40.7,10.91,81.29,18,121.67s15.25,80.62,24.35,120.61c18.25,80,40.28,159.1,67.41,236.46s59.43,153,99.53,224.36c10,17.88,20.61,35.36,31.68,52.55s22.76,34,35.08,50.26a659.72,659.72,0,0,0,81.93,90.75h0a4,4,0,0,1-5.34,5.84h0a665.71,665.71,0,0,1-82.47-92.18q-18.54-24.75-35.14-50.86c-11.08-17.37-21.71-35-31.66-53-40-72-72-148.16-98.94-225.82S296,936.6,278.11,856.41Q264.7,796.26,254.27,735.5c-6.92-40.5-13.05-81.12-17.48-122a1.67,1.67,0,0,1,3.33-.36Z"/><path class="cls-7" d="M2226.13,1478c0,18.35-13.8,33.37-30.67,33.37H536.66c-16.87,0-30.68-15-30.68-33.37L492.18,439.93c0-18.36,19.86-54.19,56.25-51.5l1621.16-45.68c21.17-.59,41.64,8.28,56.63,24.55s23.19,38.52,22.69,61.55Z"/><path class="cls-7" d="M2195.85,1446c0,17.38-13.06,31.6-29,31.6H576.66c-16,0-29-14.22-29-31.6l-13-942.38c1.53-56.71,47.19-77.09,74.86-75.89l1553.74-45.39c14.87-.43,29.25,5.81,39.78,17.25a62,62,0,0,1,16,43.28Z"/><path class="cls-5" d="M564.83,995.85a2.19,2.19,0,0,1-2.19-2.16l-1-76.42a2.19,2.19,0,0,1,4.37-.35,2.81,2.81,0,0,1,0,.29l1,76.42a2.18,2.18,0,0,1-2.15,2.22Z"/><path class="cls-5" d="M562.3,808.57a2.2,2.2,0,0,1-2.19-2.16L556.17,513.7c.08-20.4,6.14-36.46,18-47.79,19.68-18.8,48.89-17.8,50.11-17.76l496.17-14.5a2.13,2.13,0,0,1,2.25,2v.11a2.18,2.18,0,0,1-2.11,2.25h0l-496.31,14.5c-1.34,0-28.73-1-47.08,16.55-11,10.47-16.56,25.48-16.64,44.61l4,292.67a2.2,2.2,0,0,1-2.16,2.22Z"/><path class="cls-9" d="M617.7,1393.71c1.66-77.89,1-767.61-3.06-827.18s81.09-70.74,211.88-77.44,1234.38-33.25,1262.8-35.75c63.87-5.64,77.09,98.32,70.7,324-4.8,169.55-12.76,448.87-16.42,577.33-1.09,38.24-29.79,68.59-64.93,68.69-265.57.8-1283.41,4-1351.17,6.17C649.52,1432.07,617,1424.6,617.7,1393.71Z"/><rect class="cls-7" x="405.04" y="1506.34" width="1955.66" height="91.21" rx="7.51"/><path class="cls-7" d="M1944.47,336.42l-37.3,81.68s20.66,136.46,164.43,189.65,207.75-15.92,207.75-15.92l45.75-120.39Z"/><path class="cls-7" d="M2179.51,223.34,1878.76,280.7c-15.49,3-21.51,22.25-10.5,33.68,53.7,55.72,175.49,185.22,219.52,258a19.48,19.48,0,0,0,22.64,8.55l307.87-98.4c13.92-4.45,18.45-22.19,8.39-32.91-53.06-56.51-188.28-198.21-234-224.18A19.24,19.24,0,0,0,2179.51,223.34Z"/><path class="cls-7" d="M2159.58,376.78S2307.15,491,2317.05,514.94s-23.28,125.94-23.28,125.94c16.85,90.32,12.05,186.34-34,232.69,0,0-41-120.45-13.84-167.25s37.82-66,37.82-66,29.83-109.2,24.89-125.63C2308.68,514.65,2145.74,382,2159.58,376.78Z"/><path class="cls-3" d="M1915.55,312.15,2052.19,475.6l34.16,40.86,8.54,10.22,4.27,5.11a32.54,32.54,0,0,0,4.48,4.38,28.09,28.09,0,0,0,23.66,5.21l103.46-25.28a1.36,1.36,0,0,1,1.64,1v0a1.36,1.36,0,0,1-1,1.63l-103.31,26a31.62,31.62,0,0,1-26.67-5.69,35.48,35.48,0,0,1-5-4.88l-4.31-5.08-8.61-10.16L2049,478.26,1911.3,315.72a2.78,2.78,0,0,1,4.24-3.59Z"/><path class="cls-1" d="M2277.4,693.1l-.34.31-.39.4-.8.8-1.53,1.75c-1,1.19-1.92,2.5-2.89,3.74l-2.61,4c-.81,1.37-1.56,2.79-2.34,4.19a43.26,43.26,0,0,0-2.13,4.32c-.66,1.47-1.38,2.92-2,4.41l-1.69,4.55a47.69,47.69,0,0,0-1.57,4.59l-1.35,4.68c-.44,1.57-.94,3.11-1.23,4.72-.65,3.19-1.36,6.37-2,9.57l-1.3,9.7c-.1.81-.24,1.62-.31,2.44l-.16,2.44-.31,4.9c-.62,6.53-.3,13.1-.35,19.66,0,1.64.09,3.27.2,4.91l.33,4.92c.24,3.27.41,6.56.7,9.83.87,6.52,1.6,13.06,2.58,19.57l3.61,19.44h0a1,1,0,0,1-1.08.92,1,1,0,0,1-.81-.55l-4.08-19.45c-1.14-6.53-2-13.11-3-19.66-.37-3.3-.62-6.62-.93-9.92l-.45-5c-.16-1.66-.32-3.31-.32-5-.1-6.65-.57-13.3-.1-20l.21-5,.1-2.5c.05-.83.17-1.66.25-2.49l1.12-10c.54-3.3,1.2-6.58,1.8-9.88.25-1.66.74-3.27,1.15-4.9l1.29-4.87c.38-1.64,1-3.22,1.52-4.82l1.66-4.78c.59-1.58,1.32-3.11,2-4.67A47.81,47.81,0,0,1,2262,706c.79-1.5,1.55-3,2.39-4.51l2.7-4.36c1-1.39,2-2.82,3.07-4.17l1.69-2,.92-1,.47-.49.57-.54a2.78,2.78,0,0,1,3.81,4h0Z"/><path class="cls-1" d="M2278.44,734.71l-.56,6.32-.56,7-1,14-2,28.08-3.76,56.19a1.51,1.51,0,0,1-3-.16L2270,789.9l1.33-28.14.72-14.08.4-7,.23-3.55.13-1.78c.07-.74.19-1.6.33-2.38a2.7,2.7,0,1,1,5.36.69Z"/><rect class="cls-7" x="2258.16" y="1520.17" width="13.86" height="149.86"/><path class="cls-7" d="M2207.73,1663.9h114.73a3.32,3.32,0,0,1,3.32,3.32h0v5.7H2204.4v-5.7a3.32,3.32,0,0,1,3.32-3.32Z"/><rect class="cls-7" x="2191.19" y="1486.6" width="152.6" height="43.28" rx="14.9"/><path class="cls-10" d="M2162.79,1420.25s-20.59,3.19-43.75,18.67a11.55,11.55,0,0,0-5.09,11c2.77,22,14.17,93,51.76,162.45a17.48,17.48,0,0,1,1.67,12l-6.53,30.39-12.11,11.36h31.2l20.77-56.21-8.89-2.8a16.8,16.8,0,0,1-11.73-15.73l-1-60.29c.89-26.86-16.47-45.4-16.47-45.4l49.81-2.42Z"/><path class="cls-7" d="M2136.57,1671.62c-2.85,3.72,30.57,8.62,47.45.49,0,0,23.4-40.71,23.4-61.68,0,0-1.85-4.27-15.6-3.3,0,0-7.85,48.21-16.15,53.61s-23.21.54-23.21.54S2140.76,1666.13,2136.57,1671.62Z"/><path class="cls-11" d="M2206.09,1486.6c-.27-.46-53.63-6.42-53.63-6.42s1.74,16.23-3.72,38.56-83.81,119.12-83.81,119.12l8.22,26c-25.41,8.85-50.39,10.27-75,4.51l50.92-30.55s47.65-162.39,76.84-191.36L2179.4,1428Z"/><path class="cls-7" d="M2325.78,1392.11s30.74,45.73,33.27,66.59-8.43,29.34-40.69,30.74-118.39,1.37-118.39,1.37L2126.46,1428s53.57-19.11,67.5-24.52S2325.78,1392.11,2325.78,1392.11Z"/><path class="cls-7" d="M2070,1655.13s8.85,8.57,2.87,18.1c0,0-70.07,12.42-89.09,6.79,0,0,4-9,25.37-19.28l-1.58,1.21a2.56,2.56,0,0,0,1.69,4.59C2023.42,1665.74,2052.63,1663.15,2070,1655.13Z"/><path class="cls-12" d="M2242.62,1386.05s-35.8-34.09-53.43-56.67a47.87,47.87,0,0,1-8.11-43.12c8-27.11,22.34-55.19,23.65-59.56,2-6.7,42.15-6.42,42.15-6.42s79,51.27,110,138.12L2322,1369.26s-20.63-34.61-41-56.61c0,0,35.27,46.59,36.51,65.66Z"/><path class="cls-13" d="M2199.87,1189.26c.42,1.39,10.9,36.13,11.72,36.85s23,1.92,33.41-5.21l-17.69-37.05Z"/><path class="cls-14" d="M2217.09,1116.3s-18.92,8-31.78,35.32-3.26,40,8.8,41.69,30.11,1.47,49.2-16.19S2241.68,1106.83,2217.09,1116.3Z"/><path class="cls-7" d="M2230.48,1162.53s14.27-40-21.19-40.47l-8.34,5.83s-13-22.17,8.34-32.76,53.22-1.16,62.31,27.61,3.77,47.35-11.35,61.11-21.35-1.84-21.35-1.84,8.23-12.88,4.88-19.76-11.08,1.42-11.08,1.42Z"/><path class="cls-15" d="M2234.46,1167s7.21-20.6,16.84-12.4-7.82,19-14.66,22.54Z"/><path class="cls-16" d="M2169.68,1388.58l26.3-25.35,36.4,15.37s36.22,5.61,56.95,0l20.74-5.61,46.85-14.59,7.36,20.8a12.51,12.51,0,0,1-4.58,14.38,79.52,79.52,0,0,1-11.83,7.38c-6.17,2.69-152.1-1.87-152.1-1.87Z"/><path class="cls-7" d="M2268.82,1127.25c-4.56-4.66-1.6-12.52,4.84-13.53,20.79-3.24,52.48.07,65.79,44.56,15,50.13,24.76,75.19,34.78,79.59,6.57,2.88,7,12,.44,15-4.84,2.18-11.78,3-21.71.76C2276.36,1236.74,2295.56,1154.57,2268.82,1127.25Z"/><path class="cls-17" d="M2269.23,1400.54h-.35l-152.6-.17a6.83,6.83,0,0,1,0-13.66l152.61.17a6.83,6.83,0,0,1,.33,13.65Z"/><path class="cls-7" d="M1979.09,1262h127.09a24.23,24.23,0,0,1,21.91,13.89l58.75,124.59H2028.91a14.72,14.72,0,0,1-13.69-9.31l-45.57-115.29a10.15,10.15,0,0,1,9.44-13.88Z"/><path class="cls-6" d="M1875.22,1701.19a5.37,5.37,0,0,1-2.2-.47,5.76,5.76,0,0,1-2.93-7.51l117.21-278.77a5.54,5.54,0,0,1,7.22-3l.12,0a5.77,5.77,0,0,1,2.92,7.51l-117.2,278.77A5.58,5.58,0,0,1,1875.22,1701.19Z"/><path class="cls-6" d="M2007.26,1701.19a5.57,5.57,0,0,1-5.14-3.46L1884.92,1419a5.77,5.77,0,0,1,2.92-7.51,5.55,5.55,0,0,1,7.3,2.88l0,.12,117.2,278.77a5.76,5.76,0,0,1-2.93,7.51A5.39,5.39,0,0,1,2007.26,1701.19Z"/><path class="cls-6" d="M2336.76,1701.19a5.45,5.45,0,0,1-2.21-.47,5.77,5.77,0,0,1-2.92-7.51l117.2-278.77a5.54,5.54,0,0,1,7.22-3l.12,0a5.76,5.76,0,0,1,2.93,7.51l-117.2,278.77A5.6,5.6,0,0,1,2336.76,1701.19Z"/><path class="cls-6" d="M2468.79,1701.19a5.59,5.59,0,0,1-5.13-3.46L2346.45,1419a5.76,5.76,0,0,1,2.93-7.51,5.54,5.54,0,0,1,7.29,2.88l0,.12,117.2,278.77a5.77,5.77,0,0,1-2.92,7.51A5.4,5.4,0,0,1,2468.79,1701.19Z"/><path class="cls-5" d="M2482.52,1406.11a5.68,5.68,0,0,0-1.32-4.88,6.51,6.51,0,0,0-4.86-2.14H1839.53a7.4,7.4,0,0,0-6.11,3.13,6.42,6.42,0,0,0-.47,6.51l6.9,14a9.73,9.73,0,0,0,8.77,5.26H2472a7.21,7.21,0,0,0,7.18-5.55Z"/><path class="cls-6" d="M681.74,1084.91a5.27,5.27,0,0,1-5-3.77c-.8-2.74-1.57-5.48-2.29-8.25a5.25,5.25,0,0,1,10.16-2.66c.7,2.67,1.44,5.31,2.21,8a5.26,5.26,0,0,1-3.56,6.52A5.21,5.21,0,0,1,681.74,1084.91Z"/><path class="cls-6" d="M673.72,1049.56a5.26,5.26,0,0,1-5.18-4.42c-.93-5.72-1.7-11.55-2.28-17.31a5.25,5.25,0,1,1,10.45-1.06c.56,5.55,1.3,11.17,2.2,16.69a5.24,5.24,0,0,1-4.35,6A4.81,4.81,0,0,1,673.72,1049.56ZM670,1004.72a5.26,5.26,0,0,1-5.25-5.22v-1.9c0-5.13.14-10.37.4-15.55a5.26,5.26,0,0,1,10.52.18c0,.12,0,.24,0,.36-.26,5-.39,10.06-.39,15v1.83a5.25,5.25,0,0,1-5.19,5.29H670Zm3.14-44.87a4.9,4.9,0,0,1-.77-.06,5.27,5.27,0,0,1-4.45-6v0c.84-5.74,1.87-11.53,3-17.19a5.25,5.25,0,0,1,10.28,2.13q-1.69,8.19-2.92,16.59a5.26,5.26,0,0,1-5.17,4.53ZM683,916a5.44,5.44,0,0,1-1.55-.23A5.26,5.26,0,0,1,678,909.2c1.71-5.53,3.61-11.09,5.64-16.52a5.25,5.25,0,1,1,9.84,3.68h0c-2,5.25-3.8,10.61-5.44,15.94A5.27,5.27,0,0,1,683,916Zm16.56-41.82a5.25,5.25,0,0,1-5.25-5.25,5.44,5.44,0,0,1,.54-2.31c2.55-5.21,5.28-10.41,8.14-15.47a5.25,5.25,0,1,1,9.15,5.16c-2.76,4.88-5.4,9.9-7.86,14.93a5.26,5.26,0,0,1-4.69,2.92ZM722.4,835.4a5.27,5.27,0,0,1-5.24-5.28,5.21,5.21,0,0,1,.94-3c3.32-4.76,6.83-9.48,10.42-14a5.25,5.25,0,0,1,8.24,6.5c-3.46,4.39-6.84,8.94-10,13.53a5.23,5.23,0,0,1-4.33,2.21ZM751,800.57a5.26,5.26,0,0,1-3.8-8.88c4-4.2,8.19-8.32,12.43-12.26a5.25,5.25,0,0,1,7.16,7.69h0c-4.09,3.8-8.13,7.78-12,11.83A5.23,5.23,0,0,1,751,800.57Zm33.49-30a5.25,5.25,0,0,1-3.2-9.42c4.6-3.53,9.36-7,14.14-10.22a5.25,5.25,0,1,1,5.9,8.69c-4.62,3.14-9.21,6.46-13.64,9.86a5.14,5.14,0,0,1-3.25,1ZM822.11,746a5.25,5.25,0,0,1-2.53-9.86c5.08-2.78,10.31-5.44,15.54-7.93a5.26,5.26,0,0,1,4.5,9.5c-5,2.39-10.09,5-15,7.65A5.23,5.23,0,0,1,822.11,746ZM1098,743.39a5.26,5.26,0,0,1-2.43-.6c-5-2.59-10-5.07-15.14-7.37a5.25,5.25,0,1,1,4.31-9.58c5.29,2.39,10.57,5,15.71,7.65a5.25,5.25,0,0,1-2.45,9.9ZM863.1,727.45a5.26,5.26,0,0,1-1.78-10.2c5.44-2,11-3.8,16.56-5.44a5.25,5.25,0,0,1,3,10.07c-5.34,1.59-10.72,3.35-16,5.25a5.29,5.29,0,0,1-1.8.32Zm193.55-1.78a5.12,5.12,0,0,1-1.69-.28c-5.29-1.8-10.71-3.46-16.1-4.95a5.25,5.25,0,0,1,2.57-10.18l.22.06c5.58,1.53,11.2,3.26,16.69,5.12a5.25,5.25,0,0,1-1.69,10.23ZM906.41,715.48a5.25,5.25,0,0,1-1-10.41c5.7-1.11,11.49-2.06,17.23-2.82a5.25,5.25,0,0,1,1.54,10.39l-.18,0c-5.53.74-11.12,1.65-16.62,2.72A4.5,4.5,0,0,1,906.41,715.48Zm106.63-.94a5.5,5.5,0,0,1-.91-.08c-5.5-1-11.11-1.77-16.67-2.42a5.25,5.25,0,0,1,1-10.45l.16,0c5.76.66,11.57,1.5,17.28,2.5a5.25,5.25,0,0,1-.9,10.43Zm-61.95-4.21a5.25,5.25,0,1,1-.19-10.5h0c5.77-.21,11.62-.26,17.45-.14a5.25,5.25,0,0,1-.21,10.5h0c-5.64-.11-11.28-.07-16.85.14Z"/><path class="cls-6" d="M1129.16,762.3a5.28,5.28,0,0,1-3-.94c-2.25-1.57-4.53-3.1-6.83-4.61a5.25,5.25,0,0,1,5.58-8.9l.16.11c2.39,1.56,4.76,3.15,7.09,4.78a5.25,5.25,0,0,1-3,9.56Z"/><path class="cls-6" d="M1250.56,952.47a5.25,5.25,0,0,1-5.17-4.36q-.71-4.07-1.53-8.1a5.25,5.25,0,1,1,10.3-2.09h0c.56,2.78,1.09,5.59,1.58,8.4a5.26,5.26,0,0,1-4.28,6.07A5.47,5.47,0,0,1,1250.56,952.47Z"/><path class="cls-6" d="M957.26,1294.93h-.1c-5.08-.09-10.23-.32-15.3-.67l-1.87-.13a5.26,5.26,0,0,1,.8-10.48l1.79.13c4.9.34,9.87.56,14.77.65a5.25,5.25,0,1,1-.09,10.5Zm27.4-.77a5.25,5.25,0,0,1-.39-10.49c5.49-.41,11-1,16.49-1.72a5.25,5.25,0,0,1,1.39,10.41c-5.65.76-11.4,1.36-17.09,1.79Zm-71.49-3.34a5.24,5.24,0,0,1-.88-.08c-5.64-1-11.31-2.08-16.86-3.36a5.25,5.25,0,0,1,2.35-10.24h0c5.35,1.23,10.82,2.32,16.26,3.25a5.25,5.25,0,0,1-.87,10.43Zm115.25-3.32a5.25,5.25,0,0,1-1.18-10.37c5.36-1.24,10.76-2.65,16-4.2a5.26,5.26,0,0,1,3,10.08c-5.47,1.6-11.06,3.07-16.62,4.35a4.86,4.86,0,0,1-1.2.14Zm-158.23-7.37a5.14,5.14,0,0,1-1.65-.27c-5.42-1.8-10.85-3.77-16.15-5.88a5.25,5.25,0,1,1,3.88-9.76h0c5.11,2,10.35,3.94,15.58,5.67a5.25,5.25,0,0,1-1.66,10.24Zm200.48-5.87a5.25,5.25,0,0,1-2-10.13c5.1-2,10.21-4.25,15.19-6.58a5.25,5.25,0,0,1,4.45,9.52c-5.16,2.41-10.46,4.71-15.75,6.82a5.3,5.3,0,0,1-1.89.37ZM829.35,1263a5.24,5.24,0,0,1-2.39-.58c-5.08-2.59-10.15-5.38-15.07-8.26a5.25,5.25,0,0,1,5.32-9.06c4.74,2.78,9.63,5.46,14.53,8a5.25,5.25,0,0,1-2.39,9.93Zm281.05-8.24a5.25,5.25,0,0,1-2.67-9.78c4.75-2.8,9.47-5.76,14-8.81a5.25,5.25,0,0,1,5.83,8.74h0c-4.73,3.16-9.62,6.23-14.54,9.12a5.28,5.28,0,0,1-2.62.76Zm36.35-25.25a5.25,5.25,0,0,1-3.31-9.33c4.27-3.47,8.5-7.11,12.56-10.82a5.25,5.25,0,0,1,7.08,7.76h0c-4.21,3.85-8.59,7.62-13,11.21a5.18,5.18,0,0,1-3.33,1.21Zm32.16-30.42a5.26,5.26,0,0,1-3.88-8.79c3.7-4.07,7.33-8.3,10.79-12.58a5.25,5.25,0,1,1,8.17,6.6c-3.59,4.44-7.36,8.83-11.19,13a5.25,5.25,0,0,1-3.89,1.75Zm27.22-34.92a5.18,5.18,0,0,1-2.9-.88,5.24,5.24,0,0,1-1.48-7.26v0c3-4.58,6-9.32,8.78-14.08a5.25,5.25,0,1,1,9.07,5.3c-2.88,4.94-5.94,9.85-9.1,14.6a5.23,5.23,0,0,1-4.38,2.37Zm21.64-38.64a5.25,5.25,0,0,1-4.76-7.46c2.31-5,4.52-10.13,6.54-15.26a5.25,5.25,0,1,1,9.77,3.86c-2.1,5.32-4.38,10.64-6.78,15.82a5.29,5.29,0,0,1-4.77,3.07Zm15.52-41.48a5.27,5.27,0,0,1-5.2-5.34,5,5,0,0,1,.2-1.38c1.53-5.28,2.92-10.68,4.14-16a5.25,5.25,0,0,1,10.24,2.33c-1.26,5.55-2.71,11.15-4.29,16.63a5.25,5.25,0,0,1-5.09,3.79Zm9-43.33h-.69a5.25,5.25,0,0,1-4.53-5.88h0c.72-5.45,1.28-11,1.68-16.49a5.25,5.25,0,1,1,10.48.77c-.42,5.68-1,11.43-1.74,17.08a5.27,5.27,0,0,1-5.16,4.56Zm2.44-44.21a5.24,5.24,0,0,1-5.25-5.15c-.11-5.5-.38-11.07-.8-16.56a5.25,5.25,0,1,1,10.47-.81c.44,5.69.72,11.47.83,17.17a5.25,5.25,0,0,1-5.13,5.35h-.12Z"/><path class="cls-6" d="M791.43,1239.83a5.22,5.22,0,0,1-3.07-1c-2.32-1.67-4.6-3.38-6.86-5.11a5.25,5.25,0,1,1,6.25-8.43.71.71,0,0,1,.14.1q3.27,2.5,6.62,4.92a5.25,5.25,0,0,1-3.08,9.51Z"/><path class="cls-18" d="M804.5,1157.08a3.52,3.52,0,0,0,3.93,1.08l40.09-14.75A186.08,186.08,0,0,0,901.6,1172l9.77,41.55a3.52,3.52,0,0,0,3.07,2.69l51,5.16a3.51,3.51,0,0,0,3.54-2l17.91-38.75a186,186,0,0,0,57.74-17.36l36.32,22.49a3.49,3.49,0,0,0,4.06-.27l39.7-32.39a3.51,3.51,0,0,0,1.07-3.93L1111,1109.08a186,186,0,0,0,28.58-53.08l41.56-9.78a3.5,3.5,0,0,0,2.69-3.06l5.16-51a3.51,3.51,0,0,0-2-3.54l-38.75-17.91A185.84,185.84,0,0,0,1130.87,913l22.49-36.32a3.51,3.51,0,0,0-.27-4.07l-32.39-39.69a3.51,3.51,0,0,0-3.93-1.08l-40.09,14.74A186,186,0,0,0,1023.6,818l-9.78-41.55a3.5,3.5,0,0,0-3.06-2.69l-51-5.17a3.51,3.51,0,0,0-3.54,2l-17.91,38.75a186.21,186.21,0,0,0-57.73,17.36l-36.32-22.48a3.52,3.52,0,0,0-4.07.26l-39.7,32.4a3.51,3.51,0,0,0-1.07,3.93l14.74,40.09A185.85,185.85,0,0,0,785.6,934L744,943.78a3.49,3.49,0,0,0-2.68,3.06l-5.17,51a3.51,3.51,0,0,0,2,3.54L777,1019.27A186.14,186.14,0,0,0,794.32,1077l-22.48,36.32a3.51,3.51,0,0,0,.26,4.06Z"/><path class="cls-8" d="M962.49,1044.71a49.82,49.82,0,1,1,7.35-.55A48.85,48.85,0,0,1,962.49,1044.71Zm.13-91A41.3,41.3,0,1,0,1003.89,995a42.11,42.11,0,0,0-.44-6,41.34,41.34,0,0,0-40.83-35.3Z"/><path class="cls-8" d="M963.47,1120q-6.33,0-12.76-.64a129,129,0,0,1-18.82-3.35h-.15l-.81-.22h-.21l-.39-.11h-.26l-1.17-.33-.42-.11-2.52-.76-1.44-.46a2.08,2.08,0,0,1-1.45-2,2.05,2.05,0,0,1,.1-.65,2.08,2.08,0,0,1,2.63-1.35h0a123.67,123.67,0,0,0,25.33,5.31,121.54,121.54,0,0,0,133.16-108.66h0A121.41,121.41,0,0,0,976.06,873.37l-.43,0A121.52,121.52,0,0,0,842.47,982v0a118.1,118.1,0,0,0-.62,12.33,121.11,121.11,0,0,0,11.46,51.5,2.1,2.1,0,0,1-1.9,3,2.13,2.13,0,0,1-1.9-1.21A125.77,125.77,0,0,1,976.05,869.15c64.68,6.55,113.06,61.3,113.07,125a126.88,126.88,0,0,1-.65,12.78C1081.92,1071.6,1027.15,1120,963.47,1120Z"/><path class="cls-18" d="M1265.1,741.11l21.73-10a104,104,0,0,0,30.92,13.61l7.3,22.77a2,2,0,0,0,1.83,1.37l28.7.62a2,2,0,0,0,1.89-1.28l8.29-22.44a104.2,104.2,0,0,0,31.47-12.26l21.28,10.94a2,2,0,0,0,2.26-.33l20.74-19.85a2,2,0,0,0,.42-2.24l-10-21.74a104.56,104.56,0,0,0,13.61-30.92l22.77-7.3a2,2,0,0,0,1.36-1.83l.63-28.7a2,2,0,0,0-1.29-1.89l-22.44-8.28a104.36,104.36,0,0,0-12.26-31.48l11-21.28a2,2,0,0,0-.33-2.26l-19.86-20.73a2,2,0,0,0-2.24-.43l-21.74,10a104.22,104.22,0,0,0-30.91-13.6l-7.31-22.78a1.94,1.94,0,0,0-1.83-1.36l-28.7-.62a2,2,0,0,0-1.89,1.28l-8.28,22.44a104.2,104.2,0,0,0-31.47,12.26l-21.29-10.95a2,2,0,0,0-2.26.33L1246.41,562a2,2,0,0,0-.43,2.24L1256,586a104.36,104.36,0,0,0-13.61,30.91l-22.77,7.31a2,2,0,0,0-1.37,1.83l-.62,28.7a2,2,0,0,0,1.29,1.89l22.43,8.28a104.2,104.2,0,0,0,12.26,31.47l-10.94,21.29A2,2,0,0,0,1243,720l19.85,20.73A2,2,0,0,0,1265.1,741.11Z"/><path class="cls-8" d="M1343.9,670.73a27.63,27.63,0,1,1,6.23-.71A27.62,27.62,0,0,1,1343.9,670.73Zm.06-51a23.39,23.39,0,1,0,22.81,18.17A23.39,23.39,0,0,0,1344,619.73Z"/><g class="cls-19"><path class="cls-1" d="M1215.21,732.76a5.22,5.22,0,0,1-4.39-2.37c-1.58-2.4-3.12-4.89-4.57-7.39a5.25,5.25,0,1,1,9.09-5.27c1.36,2.33,2.79,4.66,4.26,6.9a5.26,5.26,0,0,1-1.51,7.27h0A5.17,5.17,0,0,1,1215.21,732.76Z"/><path class="cls-1" d="M1199.72,702.1a5.24,5.24,0,0,1-4.92-3.42,157.79,157.79,0,0,1-4.94-15.79,5.25,5.25,0,1,1,10.17-2.62h0a146.48,146.48,0,0,0,4.62,14.75,5.24,5.24,0,0,1-3.07,6.75,5.32,5.32,0,0,1-1.86.33Zm-9.15-40.88a5.23,5.23,0,0,1-5.22-4.81c-.38-4.44-.57-8.95-.57-13.41v-3.14a5.18,5.18,0,0,1,5.22-5.14h.14a5.24,5.24,0,0,1,5.14,5.34h0V643c0,4.16.18,8.38.53,12.52a5.25,5.25,0,0,1-4.78,5.68h0Zm2.22-41.84a5.55,5.55,0,0,1-1-.09,5.25,5.25,0,0,1-4.16-6.15h0a155.86,155.86,0,0,1,4-16.07,5.25,5.25,0,0,1,10.19,2.52c0,.16-.09.32-.14.48a151.32,151.32,0,0,0-3.71,15,5.25,5.25,0,0,1-5.18,4.31Zm13.44-39.67a5.14,5.14,0,0,1-2.34-.56,5.25,5.25,0,0,1-2.35-7,159.27,159.27,0,0,1,8.14-14.4,5.25,5.25,0,0,1,9,5.43l-.12.2c-2.75,4.34-5.31,8.87-7.61,13.46a5.25,5.25,0,0,1-4.7,2.87Zm23.62-34.6a5.26,5.26,0,0,1-3.9-8.78,159.45,159.45,0,0,1,11.72-11.68,5.25,5.25,0,0,1,7,7.81,148.17,148.17,0,0,0-10.94,10.91,5.27,5.27,0,0,1-3.88,1.74Zm32.05-27a5.25,5.25,0,0,1-2.8-9.69,159.54,159.54,0,0,1,14.45-8.08,5.25,5.25,0,0,1,4.63,9.43,148.06,148.06,0,0,0-13.48,7.53,5.25,5.25,0,0,1-2.8.84Zm38.16-17.26a5.25,5.25,0,0,1-1.49-10.29c3.21-.95,6.5-1.82,9.78-2.57q3.15-.72,6.29-1.31a5.25,5.25,0,1,1,1.95,10.32h0c-2,.37-3.93.78-5.89,1.23-3.07.7-6.15,1.51-9.15,2.4a5,5,0,0,1-1.49.25Zm57.41-5.84H1357a147.34,147.34,0,0,0-15.44-.54,5.25,5.25,0,0,1-.19-10.5,157.62,157.62,0,0,1,16.55.58,5.25,5.25,0,0,1-.45,10.48Z"/><path class="cls-1" d="M1391.21,501.9a5.23,5.23,0,0,1-1.62-.26c-2.56-.83-5.18-1.59-7.78-2.28a5.25,5.25,0,1,1,2.68-10.16c2.79.74,5.59,1.56,8.34,2.45a5.25,5.25,0,0,1-1.62,10.25Z"/></g><g class="cls-19"><path class="cls-1" d="M1483.17,582.69a5.24,5.24,0,0,1-4.76-3c-1.15-2.44-2.38-4.88-3.66-7.24a5.26,5.26,0,0,1,9.25-5c1.36,2.53,2.68,5.14,3.91,7.76a5.25,5.25,0,0,1-4.74,7.49Z"/><path class="cls-1" d="M1343.88,802.32a158.31,158.31,0,0,1-18.21-1.05,5.25,5.25,0,0,1,1.21-10.44,147.52,147.52,0,0,0,16.94,1h.23a5.25,5.25,0,0,1,0,10.5h-.17Zm28.94-2.77a5.25,5.25,0,0,1-1-10.41c1.79-.34,3.59-.72,5.38-1.13,3.8-.88,7.61-1.91,11.31-3.07a5.26,5.26,0,0,1,3.14,10c-4,1.24-8,2.34-12.1,3.28q-2.88.66-5.75,1.21A5.36,5.36,0,0,1,1372.82,799.55ZM1416.75,784a5.25,5.25,0,0,1-2.48-9.88,148.61,148.61,0,0,0,14.65-9,5.25,5.25,0,1,1,6,8.62h0a160.54,160.54,0,0,1-15.7,9.63A5.21,5.21,0,0,1,1416.75,784ZM1454,756a5.26,5.26,0,0,1-3.76-8.92,148.5,148.5,0,0,0,11.29-13,5.25,5.25,0,0,1,8.31,6.43,162.6,162.6,0,0,1-12.08,13.89A5.24,5.24,0,0,1,1454,756Zm27.15-37.85a5.24,5.24,0,0,1-4.68-7.64,147.94,147.94,0,0,0,6.91-15.75,5.25,5.25,0,1,1,9.85,3.66,158.91,158.91,0,0,1-7.4,16.86,5.25,5.25,0,0,1-4.71,2.9ZM1495.76,674a5.14,5.14,0,0,1-.88-.08,5.24,5.24,0,0,1-4.3-6,148.74,148.74,0,0,0,1.87-17.1,5.2,5.2,0,0,1,5.37-5h.14a5.26,5.26,0,0,1,5,5.51h0a156.41,156.41,0,0,1-2,18.32A5.24,5.24,0,0,1,1495.76,674Zm.65-46.59a5.24,5.24,0,0,1-5.19-4.53c-.6-4.32-1.41-8.68-2.39-13-.3-1.32-.62-2.63-.95-3.93a5.25,5.25,0,1,1,10.17-2.62h0c.36,1.39.69,2.79,1,4.2,1,4.57,1.91,9.23,2.55,13.85a5.25,5.25,0,0,1-4.47,5.93h0a5.65,5.65,0,0,1-.71.05Z"/><path class="cls-1" d="M1297.91,795.26a5,5,0,0,1-1.57-.25c-2.75-.86-5.51-1.81-8.22-2.83a5.25,5.25,0,0,1,3.7-9.83h0c2.52.95,5.1,1.84,7.67,2.64a5.26,5.26,0,0,1-1.58,10.27Z"/></g><path class="cls-8" d="M1344,714.5h-1.58a71.5,71.5,0,0,1-15.07-1.93,2.1,2.1,0,0,1-1.62-2,2,2,0,0,1,.06-.48,2.12,2.12,0,0,1,2.53-1.56,68.51,68.51,0,0,0,14.19,1.82,67.17,67.17,0,0,0,68.6-65.71h0v-1.46a67.17,67.17,0,0,0-134.33-1.44v1.46a67,67,0,0,0,8.79,33.23,2.2,2.2,0,0,1,.27,1,2.1,2.1,0,0,1-3.92,1,71.22,71.22,0,0,1-9.34-35.31v-1.55a71.37,71.37,0,0,1,142.73,1.53v1.55A71.36,71.36,0,0,1,1344,714.5Z"/><g class="cls-19"><path class="cls-1" d="M1541.62,771a5.27,5.27,0,0,1-5-3.77c-.8-2.74-1.56-5.54-2.25-8.32a5.25,5.25,0,1,1,10.2-2.53h0c.66,2.64,1.37,5.3,2.13,7.89a5.25,5.25,0,0,1-3.55,6.52h0A4.9,4.9,0,0,1,1541.62,771Z"/><path class="cls-1" d="M1534.77,736.2a5.25,5.25,0,0,1-5.21-4.72c-.59-5.65-.93-11.4-1-17.1a5.25,5.25,0,0,1,10.5-.27v.08c.1,5.41.42,10.86,1,16.21a5.26,5.26,0,0,1-4.69,5.77Q1535.07,736.2,1534.77,736.2Zm.39-43.72h-.63a5.26,5.26,0,0,1-4.59-5.84c.68-5.66,1.6-11.35,2.75-16.9a5.25,5.25,0,1,1,10.29,2.12c-1.09,5.27-2,10.66-2.61,16A5.27,5.27,0,0,1,1535.16,692.48Zm10-42.56a5.27,5.27,0,0,1-5.3-5.22,5.37,5.37,0,0,1,.3-1.78c1.92-5.37,4.09-10.71,6.46-15.87a5.25,5.25,0,1,1,9.55,4.37c-2.24,4.89-4.3,10-6.11,15a5.26,5.26,0,0,1-4.91,3.5Zm19.25-39.26a5.25,5.25,0,0,1-4.42-8.08c3.06-4.8,6.37-9.52,9.82-14a5.25,5.25,0,1,1,8.34,6.39c-3.27,4.28-6.41,8.76-9.31,13.3a5.27,5.27,0,0,1-4.44,2.39Zm27.5-34a5.25,5.25,0,0,1-3.69-9c4-4,8.31-7.86,12.69-11.51a5.25,5.25,0,1,1,6.72,8.08c-4.15,3.45-8.2,7.12-12,10.91a5.25,5.25,0,0,1-3.73,1.52Zm34.32-27.07a5.25,5.25,0,0,1-2.78-9.71c4.84-3,9.86-5.85,14.92-8.43a5.25,5.25,0,1,1,4.77,9.36h0c-4.8,2.45-9.56,5.13-14.13,8a5.39,5.39,0,0,1-2.79.78Zm183.92-12.11A5.15,5.15,0,0,1,1808,537c-4.91-2.22-10-4.26-15.07-6a5.25,5.25,0,1,1,3.49-9.91h0c5.37,1.89,10.72,4,15.91,6.39a5.25,5.25,0,0,1-2.17,10Zm-144.47-6.69a5.25,5.25,0,0,1-1.72-10.22c5.39-1.86,10.91-3.5,16.42-4.89a5.25,5.25,0,1,1,2.56,10.19c-5.22,1.31-10.45,2.87-15.55,4.63a5.26,5.26,0,0,1-1.72.29Zm102.86-6.74a5.56,5.56,0,0,1-1-.1c-5.28-1.07-10.68-1.92-16-2.54a5.25,5.25,0,0,1,1.2-10.44h0c5.66.66,11.36,1.56,16.93,2.68a5.25,5.25,0,0,1-1,10.4Zm-60.22-2.79a5.26,5.26,0,0,1-.55-10.48c5.64-.6,11.39-1,17.09-1.1h.12a5.25,5.25,0,0,1,.11,10.5h0c-5.4.12-10.85.47-16.2,1.05Z"/><path class="cls-1" d="M1841.11,555.06a5.28,5.28,0,0,1-3-.94c-2.22-1.55-4.51-3.07-6.81-4.52a5.25,5.25,0,0,1,5.62-8.88c2.43,1.54,4.84,3.14,7.19,4.78a5.25,5.25,0,0,1-3,9.56Z"/></g><g class="cls-19"><path class="cls-1" d="M1922.83,685.09a5.26,5.26,0,0,1-5.19-4.43c-.42-2.7-.91-5.4-1.45-8a5.25,5.25,0,1,1,10.3-2.09h0c.56,2.78,1.08,5.64,1.53,8.49a5.25,5.25,0,0,1-4.37,6A5.62,5.62,0,0,1,1922.83,685.09Z"/><path class="cls-1" d="M1729.75,911.62c-2.23,0-4.55,0-6.84-.11a5.25,5.25,0,1,1,.17-10.5h.17c2.16.07,4.3.11,6.44.11h.06c3.15,0,6.34-.08,9.49-.24a5.25,5.25,0,1,1,.52,10.49C1736.44,911.54,1733.07,911.62,1729.75,911.62Zm-33.2-2.78a5.24,5.24,0,0,1-.88-.08c-5.53-.93-11.08-2.12-16.49-3.51a5.25,5.25,0,1,1,2.52-10.19l.09,0c5.14,1.32,10.4,2.44,15.63,3.33a5.25,5.25,0,0,1-.87,10.43Zm69.41-.6a5.26,5.26,0,0,1-1-10.42c5.21-1,10.44-2.2,15.55-3.62a5.25,5.25,0,1,1,2.81,10.12h0c-5.39,1.5-10.91,2.78-16.41,3.82a4.61,4.61,0,0,1-.91.1ZM1655.17,897a5.25,5.25,0,0,1-2-.4c-5.18-2.12-10.33-4.5-15.32-7a5.26,5.26,0,0,1,4.8-9.35c4.72,2.42,9.6,4.67,14.51,6.68a5.26,5.26,0,0,1-2,10.12Zm151.9-1.39a5.26,5.26,0,0,1-2.08-10.08c4.86-2.1,9.7-4.44,14.37-6.94a5.26,5.26,0,1,1,5,9.25h0c-4.94,2.65-10,5.12-15.17,7.34a5.34,5.34,0,0,1-2.12.45Zm37.36-21.31a5.25,5.25,0,0,1-3.09-9.5c4.29-3.12,8.51-6.46,12.52-9.92a5.27,5.27,0,0,1,6.86,8h0c-4.23,3.65-8.68,7.17-13.21,10.46a5.18,5.18,0,0,1-3.08,1Zm31.83-28.93a5.25,5.25,0,0,1-3.93-8.73c3.52-4,6.9-8.15,10.07-12.4a5.25,5.25,0,0,1,8.54,6.11l-.12.16c-3.34,4.49-6.91,8.89-10.62,13.09a5.22,5.22,0,0,1-3.94,1.79ZM1901,810.22a5.24,5.24,0,0,1-4.6-7.79c2.56-4.64,5-9.46,7.11-14.31a5.26,5.26,0,0,1,9.78,3.88c-.06.14-.11.27-.18.4-2.28,5.12-4.8,10.2-7.51,15.1A5.24,5.24,0,0,1,1901,810.22Zm16.47-39.77a5.15,5.15,0,0,1-1.46-.21,5.25,5.25,0,0,1-3.6-6.48v0c1.47-5.09,2.74-10.31,3.79-15.52a5.25,5.25,0,1,1,10.3,2.06h0c-1.1,5.5-2.45,11-4,16.38a5.26,5.26,0,0,1-5,3.79Zm7.34-42.38h-.33a5.25,5.25,0,0,1-4.92-5.56h0c.26-4,.38-8.06.38-12v-3.93a5.27,5.27,0,0,1,5.14-5.37h.11a5.25,5.25,0,0,1,5.25,5.14v4.16c0,4.2-.14,8.48-.4,12.7a5.26,5.26,0,0,1-5.19,4.87Z"/><path class="cls-1" d="M1617.31,876.31a5.21,5.21,0,0,1-3-.95c-2.35-1.64-4.69-3.36-7-5.1a5.25,5.25,0,0,1,6.4-8.33c2.14,1.64,4.36,3.27,6.58,4.83a5.25,5.25,0,0,1-3,9.55Z"/></g><path class="cls-18" d="M1623.79,817.58a2.37,2.37,0,0,0,2.63.72l26.84-9.87a124.23,124.23,0,0,0,35.53,19.13l6.54,27.82a2.39,2.39,0,0,0,2.05,1.8l34.13,3.45a2.35,2.35,0,0,0,2.37-1.35l12-25.94a124.5,124.5,0,0,0,38.64-11.62l24.31,15a2.35,2.35,0,0,0,2.72-.17l26.58-21.69a2.37,2.37,0,0,0,.72-2.63L1829,785.45a125,125,0,0,0,19.13-35.53l27.82-6.55a2.33,2.33,0,0,0,1.79-2l3.46-34.12a2.35,2.35,0,0,0-1.35-2.37l-25.94-12a124.5,124.5,0,0,0-11.62-38.64l15-24.32a2.33,2.33,0,0,0-.18-2.72l-21.68-26.57a2.33,2.33,0,0,0-2.63-.72l-26.8,9.83a124.31,124.31,0,0,0-35.52-19.13l-6.55-27.82a2.34,2.34,0,0,0-2-1.8l-34.12-3.45a2.33,2.33,0,0,0-2.37,1.35l-12,25.93a124.64,124.64,0,0,0-38.65,11.62l-24.31-15.05a2.37,2.37,0,0,0-2.72.18l-26.57,21.69a2.33,2.33,0,0,0-.72,2.63l9.87,26.83a124.77,124.77,0,0,0-19.14,35.53l-27.81,6.55a2.34,2.34,0,0,0-1.8,2.05L1578.07,711a2.36,2.36,0,0,0,1.36,2.37l25.93,12A124.83,124.83,0,0,0,1617,764l-15,24.31a2.38,2.38,0,0,0,.18,2.73Z"/><path class="cls-8" d="M1729.55,745.85a36.87,36.87,0,1,1,5.43-.4A37.94,37.94,0,0,1,1729.55,745.85Zm.12-60.92a25.11,25.11,0,0,0-3.57.26,24.15,24.15,0,0,0,7,47.79h0a24.15,24.15,0,0,0-3.47-48.05Z"/><path class="cls-8" d="M1730.21,793.44a82.47,82.47,0,0,1-8.61-.44h0a84.87,84.87,0,0,1-17.69-3.7,2.11,2.11,0,0,1-1.45-2,2.05,2.05,0,0,1,.1-.65,2.1,2.1,0,0,1,2.64-1.35h0a80.68,80.68,0,1,0-55.31-84.85c-.27,2.73-.4,5.45-.41,8.18a80.39,80.39,0,0,0,7.61,34.17,2.15,2.15,0,0,1,.2.9,2.1,2.1,0,0,1-2.1,2.1,2.13,2.13,0,0,1-1.9-1.21A84.64,84.64,0,1,1,1815,708.5a84.94,84.94,0,0,1-84.79,84.94Z"/><path class="cls-6" d="M1011.81,745.26a2.1,2.1,0,0,1-2-1.51c-.51-1.72-1-3.47-1.37-5.2a2.1,2.1,0,0,1,4.1-.95c.38,1.65.82,3.32,1.3,5a2.1,2.1,0,0,1-1.42,2.61h0A2.1,2.1,0,0,1,1011.81,745.26Z"/><path class="cls-6" d="M1008.71,730a2.1,2.1,0,0,1-2.08-1.86,92.7,92.7,0,0,1-.63-10.53,2.1,2.1,0,0,1,2.07-2.11h0a2.1,2.1,0,0,1,2.1,2.09,89.08,89.08,0,0,0,.6,10.07A2.09,2.09,0,0,1,1009,730Zm-.08-20.61h-.23a2.11,2.11,0,0,1-1.86-2.31,94.06,94.06,0,0,1,1.7-10.41,2.1,2.1,0,0,1,4.11.86v.05a88.13,88.13,0,0,0-1.62,9.95,2.11,2.11,0,0,1-2.09,1.87Zm4.45-20.1a2,2,0,0,1-.68-.12,2.09,2.09,0,0,1-1.31-2.66h0a93.29,93.29,0,0,1,4-9.78,2.1,2.1,0,1,1,3.87,1.63,1.3,1.3,0,0,1-.08.17,92.18,92.18,0,0,0-3.79,9.34,2.12,2.12,0,0,1-2,1.44Zm8.82-18.63a2.08,2.08,0,0,1-1.11-.32,2.1,2.1,0,0,1-.67-2.89,92.27,92.27,0,0,1,6.05-8.64,2.1,2.1,0,1,1,3.3,2.6,89.2,89.2,0,0,0-5.78,8.26,2.1,2.1,0,0,1-1.79,1Zm12.75-16.19a2.1,2.1,0,0,1-2.11-2.09,2.13,2.13,0,0,1,.61-1.49,99,99,0,0,1,7.82-7.09,2.1,2.1,0,0,1,2.64,3.27,92.14,92.14,0,0,0-7.47,6.77,2.06,2.06,0,0,1-1.49.64Zm16-13a2.1,2.1,0,0,1-1.14-3.87,94.22,94.22,0,0,1,9.19-5.19,2.1,2.1,0,1,1,1.86,3.77h0a92.3,92.3,0,0,0-8.78,5,2,2,0,0,1-1.13.38Zm88.82-5.91a2.06,2.06,0,0,1-.88-.2,89.91,89.91,0,0,0-9.36-3.74,2.11,2.11,0,0,1,1.34-4,95.37,95.37,0,0,1,9.8,3.93,2.1,2.1,0,0,1-.9,4Zm-70.36-3.2a2.1,2.1,0,0,1-.71-4.08,93.78,93.78,0,0,1,10.11-3,2.11,2.11,0,1,1,1,4.09,87.82,87.82,0,0,0-9.66,2.88,1.88,1.88,0,0,1-.74.15ZM1120,629a1.62,1.62,0,0,1-.44,0,88.83,88.83,0,0,0-10-1.56,2.11,2.11,0,0,1,.43-4.19,96.51,96.51,0,0,1,10.42,1.65,2.1,2.1,0,0,1-.41,4.1Zm-30.8-1.41a2.1,2.1,0,0,1-.25-4.18,92.62,92.62,0,0,1,10.53-.69h0a2.1,2.1,0,0,1,0,4.2,89.11,89.11,0,0,0-10.06.66Z"/><path class="cls-6" d="M1153.05,643.42a2.14,2.14,0,0,1-1.2-.38c-1.4-1-2.84-1.92-4.29-2.81a2.1,2.1,0,0,1,2.2-3.58c1.52.94,3,1.92,4.49,2.94a2.09,2.09,0,0,1,.54,2.92A2.12,2.12,0,0,1,1153.05,643.42Z"/><path class="cls-6" d="M1191.78,706a2.1,2.1,0,0,1-2.08-1.81c-.24-1.69-.54-3.39-.88-5.05a2.1,2.1,0,0,1,4.12-.84c.35,1.74.66,3.52.92,5.29a2.1,2.1,0,0,1-1.78,2.38h0Z"/><path class="cls-6" d="M1100.5,811.57c-1.45,0-2.9,0-4.35-.1a2.11,2.11,0,0,1-2-2.2,2.14,2.14,0,0,1,2.2-2,91.17,91.17,0,0,0,9.92-.09,2.1,2.1,0,1,1,.26,4.2C1104.54,811.5,1102.51,811.57,1100.5,811.57Zm-14.36-1.11h-.32a92.68,92.68,0,0,1-10.16-2.16,2.1,2.1,0,0,1,.47-4.17,2,2,0,0,1,.63.17,91.16,91.16,0,0,0,9.7,2,2.1,2.1,0,0,1-.32,4.18Zm30.32-.28a2.1,2.1,0,0,1-.36-4.17,89,89,0,0,0,9.66-2.26,2.1,2.1,0,0,1,1.66,3.86,2.9,2.9,0,0,1-.48.14,94.42,94.42,0,0,1-10.11,2.36A2.2,2.2,0,0,1,1116.46,810.18Zm-49.89-5a2.07,2.07,0,0,1-.77-.15,93.34,93.34,0,0,1-9.43-4.33,2.11,2.11,0,1,1,2-3.72,88.11,88.11,0,0,0,9,4.14,2.1,2.1,0,0,1-.77,4.06Zm69.35-.69a2.1,2.1,0,0,1-.82-4,90.5,90.5,0,0,0,8.93-4.31,2.1,2.1,0,1,1,2.36,3.47,1.58,1.58,0,0,1-.36.2,92.15,92.15,0,0,1-9.33,4.52,2.3,2.3,0,0,1-.78.11Zm17.73-9.81a2.1,2.1,0,0,1-1.22-3.81,94.17,94.17,0,0,0,7.77-6.16,2.1,2.1,0,1,1,2.79,3.14,93.52,93.52,0,0,1-8.13,6.45,2.18,2.18,0,0,1-1.21.37Zm15.17-13.43a2,2,0,0,1-1.41-.55,2.09,2.09,0,0,1-.18-3l0,0a88.65,88.65,0,0,0,6.25-7.7,2.11,2.11,0,0,1,3.41,2.47,97.22,97.22,0,0,1-6.55,8.06,2.06,2.06,0,0,1-1.55.71Zm11.89-16.42a2.2,2.2,0,0,1-1-.27,2.11,2.11,0,0,1-.79-2.87,86.35,86.35,0,0,0,4.42-8.88,2.1,2.1,0,1,1,3.86,1.66,92.46,92.46,0,0,1-4.62,9.3,2.11,2.11,0,0,1-1.87,1.05Zm8-18.62a2.1,2.1,0,0,1-.61-.09,2.12,2.12,0,0,1-1.4-2.63,88.38,88.38,0,0,0,2.36-9.63,2.1,2.1,0,1,1,4.13.77h0a92.14,92.14,0,0,1-2.46,10.09,2.13,2.13,0,0,1-2,1.48Zm3.74-19.92h-.16a2.1,2.1,0,0,1-1.94-2.25h0l.05-.63c.14-2.11.22-4.23.22-6.32v-3a2.1,2.1,0,0,1,4.2-.14v3.11c0,2.19-.08,4.41-.23,6.6v.67a2.1,2.1,0,0,1-2.14,1.95Z"/><path class="cls-6" d="M1048.56,795.65a2.16,2.16,0,0,1-1.18-.36c-1.48-1-3-2.07-4.35-3.15a2.1,2.1,0,0,1,2.56-3.33c1.34,1,2.74,2,4.16,3a2.1,2.1,0,0,1-1.19,3.84Z"/><path class="cls-18" d="M1050.56,767.59a1.09,1.09,0,0,0,1.24.34l12.66-4.65a58.69,58.69,0,0,0,16.75,9l3.09,13.12a1.13,1.13,0,0,0,1,.85l16.09,1.63a1.11,1.11,0,0,0,1.12-.64l5.65-12.23a59.06,59.06,0,0,0,18.22-5.48l11.47,7.1a1.1,1.1,0,0,0,1.28-.09l12.53-10.22a1.09,1.09,0,0,0,.34-1.24l-4.65-12.66a58.69,58.69,0,0,0,9-16.75l13.12-3.09a1.13,1.13,0,0,0,.85-1l1.63-16.09a1.11,1.11,0,0,0-.64-1.12l-12.23-5.65a59.06,59.06,0,0,0-5.48-18.22l7.1-11.47a1.1,1.1,0,0,0-.09-1.28l-10.22-12.53a1.09,1.09,0,0,0-1.24-.34l-12.66,4.65a58.69,58.69,0,0,0-16.75-9l-3.09-13.12a1.12,1.12,0,0,0-1-.85L1099.58,645a1.11,1.11,0,0,0-1.12.64l-5.65,12.23a58.44,58.44,0,0,0-18.22,5.48l-11.47-7.1a1.1,1.1,0,0,0-1.28.09l-12.53,10.22a1.09,1.09,0,0,0-.34,1.24l4.65,12.66a58.69,58.69,0,0,0-9,16.75l-13.12,3.09a1.13,1.13,0,0,0-.85,1l-1.65,16a1.11,1.11,0,0,0,.64,1.12l12.23,5.65a58.44,58.44,0,0,0,5.48,18.22l-7.1,11.47a1.1,1.1,0,0,0,.09,1.28Z"/><path class="cls-8" d="M1100.46,732.89a16.43,16.43,0,1,1,2.41-.17A16.18,16.18,0,0,1,1100.46,732.89Zm0-28.72a12.11,12.11,0,0,0-1.8.13,12.26,12.26,0,1,0,3.58,24.26h0a12.26,12.26,0,0,0-1.78-24.39Z"/><path class="cls-8" d="M1100.75,757.32c-1.39,0-2.77-.07-4.18-.21h0a41.89,41.89,0,0,1-8.57-1.8,2.1,2.1,0,0,1-1.45-2,2,2,0,0,1,.1-.64,2.1,2.1,0,0,1,2.64-1.35h0a38.07,38.07,0,0,0,7.7,1.61h0a36.94,36.94,0,0,0,40.35-32.1c0-.31.08-.61.11-.92a36.93,36.93,0,0,0-73.48-7.44,36.22,36.22,0,0,0-.19,3.75,36.73,36.73,0,0,0,3.48,15.64,2.1,2.1,0,1,1-3.8,1.79,41,41,0,0,1-3.88-17.43,41.59,41.59,0,0,1,.21-4.17,41.13,41.13,0,0,1,82,4.06q0,2.1-.21,4.23A41.18,41.18,0,0,1,1100.75,757.32Z"/><g class="cls-19"><path class="cls-1" d="M2083.92,995a2.1,2.1,0,0,0,2-1.51q.75-2.57,1.4-5.16a2.1,2.1,0,1,0-4.08-1c-.41,1.67-.87,3.33-1.35,5a2.1,2.1,0,0,0,1.42,2.61h0A2.07,2.07,0,0,0,2083.92,995Z"/><path class="cls-1" d="M2087,979.75a2.12,2.12,0,0,1-1.74-2.41c.55-3.35,1-6.77,1.23-10.15a2.1,2.1,0,1,1,4.19.33h0c-.28,3.5-.71,7-1.27,10.49a2.11,2.11,0,0,1-2.07,1.77A2,2,0,0,1,2087,979.75Zm-.13-22.78c0-2.78-.11-5.58-.3-8.33,0-.63-.09-1.26-.14-1.88a2.1,2.1,0,1,1,4.16-.56,1.36,1.36,0,0,1,0,.2c.06.65.11,1.3.15,1.94.2,2.85.31,5.75.32,8.62a2.11,2.11,0,0,1-2.1,2.11h0a2.11,2.11,0,0,1-2.07-2.07Zm-1.71-20.36c-.56-3.36-1.27-6.73-2.09-10a2.1,2.1,0,1,1,4-1.27,2.68,2.68,0,0,1,.07.27c.85,3.38,1.58,6.86,2.16,10.34a2.1,2.1,0,0,1-1.72,2.42h-.35a2.1,2.1,0,0,1-2-1.76Zm-5-19.8c-1.1-3.21-2.35-6.41-3.71-9.52a2.1,2.1,0,1,1,3.85-1.68c1.41,3.21,2.7,6.52,3.83,9.84a2.1,2.1,0,0,1-1.3,2.67h0a2,2,0,0,1-.68.12,2.08,2.08,0,0,1-1.93-1.43ZM2072,898.1c-1.61-3-3.37-5.94-5.23-8.79a2.1,2.1,0,0,1,3.52-2.3h0c1.92,3,3.74,6,5.4,9.09a2.1,2.1,0,0,1-3.62,2.14s-.05-.09-.07-.14ZM2060.87,881c-2.08-2.68-4.29-5.31-6.59-7.82a2.1,2.1,0,1,1,3.1-2.84c2.37,2.6,4.66,5.32,6.81,8.09a2.09,2.09,0,0,1-.37,2.93h0a2,2,0,0,1-1.28.44A2.11,2.11,0,0,1,2060.87,881Zm-13.79-15.07c-2.5-2.32-5.11-4.55-7.78-6.64a2.1,2.1,0,0,1,2.6-3.31c2.75,2.17,5.46,4.47,8,6.87a2.1,2.1,0,0,1-1.43,3.64,2.08,2.08,0,0,1-1.39-.58ZM2031,853.28c-2.83-1.88-5.77-3.66-8.74-5.29a2.1,2.1,0,0,1,2-3.68c3.07,1.69,6.11,3.53,9,5.47a2.1,2.1,0,0,1-1.16,3.85A2.17,2.17,0,0,1,2031,853.28Zm-129.37-7.37a2.11,2.11,0,0,1,.88-2.84h0c3.1-1.62,6.32-3.14,9.55-4.51a2.1,2.1,0,1,1,1.64,3.87c-3.13,1.32-6.24,2.79-9.24,4.37a2.17,2.17,0,0,1-1,.24,2.11,2.11,0,0,1-1.82-1.13Zm111.48-2.48c-3.1-1.39-6.29-2.66-9.49-3.79a2.12,2.12,0,0,1,1.4-4h0c3.3,1.16,6.6,2.48,9.81,3.92a2.1,2.1,0,0,1-.86,4,2,2,0,0,1-.84-.13Zm-92.48-5.93a2.1,2.1,0,0,1,1.34-2.65c3.33-1.1,6.75-2.06,10.17-2.88a2.1,2.1,0,0,1,1,4.08c-3.31.79-6.62,1.73-9.84,2.79a2.06,2.06,0,0,1-.65.11,2.11,2.11,0,0,1-2-1.45Zm73.22-.85c-3.27-.86-6.63-1.59-10-2.18a2.1,2.1,0,1,1,.73-4.14h0c3.46.61,6.93,1.37,10.32,2.26a2.1,2.1,0,0,1-.53,4.13,2.08,2.08,0,0,1-.5-.07Zm-53.1-4.32a2.11,2.11,0,0,1,1.76-2.4c3.46-.53,7-.93,10.5-1.18a2.1,2.1,0,1,1,.3,4.19h0c-3.39.24-6.81.63-10.16,1.14h-.32a2.1,2.1,0,0,1-2.06-1.75Zm33,.8c-3.37-.31-6.8-.48-10.21-.51a2.1,2.1,0,1,1,0-4.2h0c3.52,0,7.07.2,10.55.52a2.1,2.1,0,1,1-.19,4.2h-.15Z"/><path class="cls-1" d="M1890,855.22a2,2,0,0,0,1.2-.38c1.41-1,2.85-1.93,4.3-2.85a2.1,2.1,0,1,0-2.26-3.55h0c-1.5.95-3,1.94-4.44,2.95a2.09,2.09,0,0,0-.54,2.92,2.12,2.12,0,0,0,1.74.91Z"/></g><g class="cls-19"><path class="cls-1" d="M1837.15,939.22a2.1,2.1,0,0,0,2.07-1.77c.27-1.71.57-3.41.92-5.08a2.1,2.1,0,0,0-4.12-.84h0q-.52,2.61-1,5.26a2.1,2.1,0,0,0,1.74,2.4Z"/><path class="cls-1" d="M1957.76,1086a2.1,2.1,0,1,1,.14-4.2c1.38,0,2.78.07,4.17.07,1.9.06,3.92,0,5.89-.13a2.1,2.1,0,0,1,.19,4.19c-2,.1-4,.13-6.08.14C1960.63,1086.06,1959.19,1086,1957.76,1086Zm-10.37-.77c-3.43-.4-6.88-.94-10.27-1.61a2.1,2.1,0,0,1-1.65-2.47h0a2.08,2.08,0,0,1,2.43-1.66h0c3.27.65,6.62,1.17,9.93,1.55a2.1,2.1,0,0,1-.24,4.19Zm28.78-2a2.09,2.09,0,0,1,1.81-2.34h0c3.31-.42,6.65-1,9.92-1.66a2.1,2.1,0,1,1,.95,4.09l-.09,0c-3.39.71-6.84,1.28-10.26,1.72h-.26a2.09,2.09,0,0,1-2.08-1.85Zm-49.16-2c-3.32-.94-6.64-2-9.87-3.25a2.1,2.1,0,0,1,1.47-3.94c3.13,1.18,6.34,2.23,9.55,3.15a2.1,2.1,0,0,1-.57,4.12,2.41,2.41,0,0,1-.59-.14Zm69.24-1.8a2.1,2.1,0,0,1,1.42-2.61h0c3.21-1,6.41-2,9.53-3.24a2.1,2.1,0,1,1,1.51,3.92c-3.22,1.24-6.54,2.37-9.85,3.35a2.47,2.47,0,0,1-.6.08,2.11,2.11,0,0,1-2-1.56Zm-88.68-5.49c-3.12-1.46-6.22-3.08-9.22-4.8a2.1,2.1,0,1,1,2-3.71l.13.07c2.9,1.66,5.9,3.22,8.92,4.64a2.1,2.1,0,0,1-.9,4,2,2,0,0,1-.89-.26Zm107.87-1.55a2.11,2.11,0,0,1,1-2.81c3-1.45,6-3,8.88-4.73a2.1,2.1,0,0,1,2.12,3.62c-3,1.75-6.07,3.4-9.17,4.9a2.06,2.06,0,0,1-.91.21,2.1,2.1,0,0,1-1.92-1.25Zm-125.9-8.77c-2.84-2-5.64-4-8.33-6.22a2.1,2.1,0,1,1,2.65-3.26c2.59,2.1,5.31,4.13,8.06,6a2.09,2.09,0,0,1,.54,2.92,2,2,0,0,1-2.92.5Zm-16.14-13.08c-2.49-2.38-4.93-4.89-7.23-7.47a2.1,2.1,0,0,1,3.13-2.8c2.23,2.5,4.59,4.93,7,7.23a2.1,2.1,0,0,1,.11,3l0,0a2.14,2.14,0,0,1-1.53.65,2.08,2.08,0,0,1-1.45-.67ZM1859.56,1035c-2.09-2.76-4.09-5.63-6-8.54a2.1,2.1,0,0,1,3.53-2.28v0c1.8,2.82,3.73,5.59,5.76,8.26a2.1,2.1,0,1,1-3.35,2.54Zm-11.18-17.52c-1.62-3.07-3.13-6.22-4.49-9.39a2.1,2.1,0,1,1,3.86-1.66c1.31,3.07,2.77,6.12,4.34,9.08a2.11,2.11,0,0,1-.87,2.84h0a2.05,2.05,0,0,1-1,.24,2.1,2.1,0,0,1-1.84-1.12Zm-8.2-19.1c-1.1-3.27-2.08-6.63-2.91-10a2.1,2.1,0,1,1,4.08-1c.8,3.24,1.75,6.49,2.81,9.65a2.1,2.1,0,0,1-1.32,2.66,2.19,2.19,0,0,1-.67.11,2.1,2.1,0,0,1-2-1.43Zm-5-20.16c-.56-3.41-1-6.88-1.27-10.32a2.09,2.09,0,0,1,1.91-2.26h0a2.12,2.12,0,0,1,2.27,1.92c.27,3.32.68,6.68,1.22,10a2.1,2.1,0,0,1-1.73,2.41h-.34a2.1,2.1,0,0,1-2.07-1.76Zm-1.72-20.71v-.38c0-3.33.13-6.69.39-10a2.07,2.07,0,0,1,2.22-1.93h0a2.11,2.11,0,0,1,1.94,2.26c-.25,3.21-.38,6.46-.38,9.68v.38a2.1,2.1,0,0,1-4.2,0Z"/><path class="cls-1" d="M2035.07,1063.1a2.1,2.1,0,0,0,1.21-.39c1.45-1,2.89-2.07,4.3-3.15a2.1,2.1,0,0,0-2.56-3.34q-2,1.58-4.16,3.06a2.1,2.1,0,0,0,1.21,3.82Z"/></g><path class="cls-18" d="M2044.76,1009.27a1.52,1.52,0,0,0,.11-1.76l-9.74-15.74a80.5,80.5,0,0,0,7.52-25l16.79-7.76a1.53,1.53,0,0,0,.88-1.53l-2.24-22.09a1.51,1.51,0,0,0-1.16-1.33l-18-4.24a80.61,80.61,0,0,0-12.39-23l6.39-17.37a1.54,1.54,0,0,0-.47-1.71l-17.2-14a1.52,1.52,0,0,0-1.76-.11l-15.74,9.74a81,81,0,0,0-25-7.52L1965,859a1.53,1.53,0,0,0-1.54-.88l-22.09,2.24a1.51,1.51,0,0,0-1.32,1.17l-4.24,18a80.61,80.61,0,0,0-23,12.39l-17.38-6.39a1.51,1.51,0,0,0-1.7.47l-14,17.2a1.5,1.5,0,0,0-.11,1.76l9.74,15.74a80.5,80.5,0,0,0-7.52,25l-16.8,7.76a1.51,1.51,0,0,0-.87,1.54l2.24,22.09a1.51,1.51,0,0,0,1.16,1.33l18,4.23a80.36,80.36,0,0,0,12.39,23l-6.39,17.38a1.51,1.51,0,0,0,.46,1.7l17.21,14a1.5,1.5,0,0,0,1.76.11l15.74-9.74a80.5,80.5,0,0,0,25,7.52l7.76,16.8a1.51,1.51,0,0,0,1.53.87l22.09-2.24a1.51,1.51,0,0,0,1.33-1.16l4.24-18a80.61,80.61,0,0,0,23-12.39l17.37,6.39a1.52,1.52,0,0,0,1.71-.46Z"/><path class="cls-8" d="M1959,977.82h0a21.77,21.77,0,1,1,3.2.24A21.44,21.44,0,0,1,1959,977.82Zm-14.24-24.15a17.62,17.62,0,0,0,14.85,20h0a17.61,17.61,0,0,0,5.14-34.85,17.13,17.13,0,0,0-2.58-.19,17.64,17.64,0,0,0-17.39,15Z"/><path class="cls-8" d="M1961.76,1011.59a54.64,54.64,0,0,0,5.72-.29h0c.76-.07,1.52-.17,2.28-.27a55.75,55.75,0,0,0,7.87-1.71l.27-.08.65-.2.53-.17a2.1,2.1,0,0,0,1.45-2,2.05,2.05,0,0,0-.1-.65,2.1,2.1,0,0,0-2.64-1.35h0a52.37,52.37,0,0,1-10.73,2.24,51.48,51.48,0,1,1,46-56.38c.17,1.74.26,3.49.26,5.23a51.31,51.31,0,0,1-4.86,21.8,2.15,2.15,0,0,0-.2.9,2.1,2.1,0,0,0,2.1,2.1,2.13,2.13,0,0,0,1.9-1.21,55.44,55.44,0,0,0,5.25-23.59,55.68,55.68,0,0,0-111.36-.15q0,2.85.29,5.72a55.67,55.67,0,0,0,55.29,50.07Z"/><path class="cls-6" d="M2089.94,1226l3.67-5.16A1.6,1.6,0,0,0,2091,1219h0l-3.58,5.15h0a1.54,1.54,0,0,0,2.52,1.77Z"/><path class="cls-6" d="M2101.79,1208.54l3.34-5.39a1.69,1.69,0,0,0-2.87-1.78h0l-3.24,5.37h0a1.65,1.65,0,1,0,2.82,1.73Z"/><path class="cls-6" d="M2112.52,1190.35l3-5.59a1.8,1.8,0,1,0-3.1-1.83.83.83,0,0,0-.07.13h0l-2.9,5.55h0a1.77,1.77,0,1,0,3.13,1.66Z"/><path class="cls-6" d="M2122.09,1171.52l2.64-5.76a1.92,1.92,0,0,0-3.48-1.6h0l-2.54,5.73h0a1.88,1.88,0,1,0,3.43,1.55h0Z"/><path class="cls-6" d="M2130.47,1152.12l2.27-5.92a2,2,0,1,0-3.79-1.45h0l-2.18,5.88h0a2,2,0,0,0,3.74,1.41Z"/><path class="cls-6" d="M2137.6,1132.22l1.89-6a2.14,2.14,0,1,0-4.09-1.28v.06l-1.81,6h0a2.11,2.11,0,0,0,4,1.23Z"/><path class="cls-6" d="M2143.45,1111.9l1.49-6.17a2.25,2.25,0,0,0-4.38-1.06v.07l-1.4,6.1h0a2.22,2.22,0,0,0,4.32,1Z"/><path class="cls-6" d="M2148,1091.23l1-6.23a2.37,2.37,0,0,0-4.67-.81v.08l-1,6.17h0a2.34,2.34,0,0,0,4.61.77Z"/><path class="cls-6" d="M2151,1070.28l.65-6.32a2.48,2.48,0,0,0-4.94-.5v.08l-.56,6.22h0a2.45,2.45,0,0,0,4.87.47Z"/><path class="cls-6" d="M2152.66,1049.16l.19-6.36a2.59,2.59,0,0,0-5.18-.15v.08l-.11,6.25h0a2.56,2.56,0,1,0,5.12.13Z"/><path class="cls-6" d="M2152.74,1028l-.28-6.35a2.71,2.71,0,0,0-5.42,0,1.77,1.77,0,0,0,0,.23v.09l.35,6.22v.07a2.67,2.67,0,1,0,5.34-.27Z"/><path class="cls-6" d="M2151.22,1006.81l-.77-6.32a2.82,2.82,0,1,0-5.6.69h0v.1l.83,6.18v.06a2.78,2.78,0,0,0,5.52-.71Z"/><path class="cls-6" d="M2148,985.82l-1.28-6.24a2.93,2.93,0,1,0-5.75,1.18v.1l1.32,6.09V987a2.9,2.9,0,0,0,5.67-1.2Z"/><path class="cls-6" d="M2143.16,965.14l-1.8-6.12a3,3,0,0,0-5.84,1.72h0v.08l1.82,5.95v.07a3,3,0,0,0,5.77-1.73Z"/><path class="cls-6" d="M2136.54,944.93l-2.35-5.95a3.16,3.16,0,1,0-5.88,2.32h0v.09l2.35,5.75v.08a3.12,3.12,0,1,0,5.8-2.32h0Z"/><path class="cls-6" d="M2128.08,925.38l-2.88-5.7a3.29,3.29,0,1,0-5.85,3h0v.08l2.86,5.51v.08a3.25,3.25,0,1,0,5.77-3Z"/><path class="cls-6" d="M2117.88,906.68l-3.38-5.42a3.39,3.39,0,1,0-5.91,3.33c0,.08.1.17.16.25h0l.05.07,3.34,5.24.05.08a3.35,3.35,0,1,0,5.67-3.58Z"/><path class="cls-6" d="M2106.07,889l-3.84-5.11a3.5,3.5,0,1,0-5.79,3.93,2.69,2.69,0,0,0,.2.27h0l.05.07,3.79,4.93.05.07a3.47,3.47,0,0,0,5.52-4.19Z"/><path class="cls-6" d="M2092.78,872.3l-4.27-4.77a3.61,3.61,0,1,0-5.38,4.82h0l.07.07,4.18,4.58.07.07a3.58,3.58,0,0,0,5.31-4.8Z"/><path class="cls-6" d="M2078.1,856.84l-4.66-4.38a3.72,3.72,0,0,0-5.11,5.42h0l.07.06,4.56,4.21.07.06a3.69,3.69,0,0,0,5-5.4Z"/><path class="cls-6" d="M2062.14,842.69l-5-4a3.84,3.84,0,1,0-5.14,5.7,2.69,2.69,0,0,0,.37.3h0l.08.06,4.9,3.8.08.06a3.81,3.81,0,0,0,4.69-6Z"/><path class="cls-6" d="M2045,830l-5.36-3.52a4,4,0,0,0-4.33,6.61h0l.09.06,5.21,3.34.09.06A3.92,3.92,0,0,0,2045,830Z"/><path class="cls-6" d="M2026.76,818.83l-5.66-3a4.07,4.07,0,0,0-3.82,7.18h0l.1,0,5.5,2.85.1.05a4,4,0,1,0,3.74-7.14Z"/><path class="cls-6" d="M2007.55,809.42l-5.93-2.46a4.18,4.18,0,0,0-3.41,7.63l.21.09h.11l5.74,2.31h.11a4.14,4.14,0,1,0,3.13-7.67Z"/><path class="cls-6" d="M1987.5,801.9l-6.16-1.86a4.29,4.29,0,1,0-2.48,8.22h.13l6,1.74h.13a4.26,4.26,0,0,0,2.42-8.16Z"/><path class="cls-6" d="M1966.75,796.45l-6.33-1.21a4.41,4.41,0,0,0-1.65,8.66h.14L1965,805h.14a4.37,4.37,0,0,0,1.59-8.59Z"/><path class="cls-6" d="M1945.51,793.23l-6.43-.51a4.52,4.52,0,0,0-.72,9h.2l6.14.42h.15a4.48,4.48,0,0,0,.66-8.94Z"/><path class="cls-6" d="M1924,792.38l-3.8.1a4.62,4.62,0,1,0-.1,9.24h.49l3.62-.13h.09a4.59,4.59,0,1,0-.3-9.18Z"/><path class="cls-6" d="M2077.07,1217.07l3.47-5.38a1.8,1.8,0,1,0-3-2h0l-.06.09-3.19,5.33v.08a1.7,1.7,0,0,0,2.88,1.79Z"/><path class="cls-6" d="M2087.51,1198.49l2.51-5.9a2.14,2.14,0,0,0-3.94-1.67h0v.11l-2.24,5.78v.1a2,2,0,0,0,3.77,1.53Z"/><path class="cls-6" d="M2094.7,1178.37l1.5-6.25a2.48,2.48,0,0,0-4.82-1.15v.2l-1.25,6.06v.11a2.37,2.37,0,0,0,4.63,1Z"/><path class="cls-6" d="M2098.48,1157.29l.45-6.42a2.81,2.81,0,1,0-5.61-.4h0v.23l-.24,6.16v.14a2.71,2.71,0,0,0,5.41.29Z"/><path class="cls-6" d="M2098.71,1135.81l-.66-6.43a3.15,3.15,0,1,0-6.27.64v.26l.82,6.09v.16a3.05,3.05,0,0,0,6.06-.72h.05Z"/><path class="cls-6" d="M2095.23,1114.55l-1.75-6.24a3.49,3.49,0,0,0-6.72,1.89v.09l0,.18,1.85,5.85v.16a3.39,3.39,0,0,0,6.49-1.93Z"/><path class="cls-6" d="M2088.19,1094.15l-2.77-5.88a3.83,3.83,0,0,0-6.93,3.27.47.47,0,0,1,.05.1l.09.18,2.79,5.44.08.17a3.73,3.73,0,0,0,6.69-3.28Z"/><path class="cls-6" d="M2077.84,1075.14l-3.7-5.35a4.17,4.17,0,0,0-6.86,4.74l.07.1.13.18,3.64,4.9.12.16a4.06,4.06,0,0,0,6.6-4.73Z"/><path class="cls-6" d="M2064.46,1058.05l-4.57-4.66a4.5,4.5,0,1,0-6.44,6.3h0l.09.09.18.17,4.38,4.2.17.16a4.4,4.4,0,0,0,6.19-6.26Z"/><rect class="cls-7" x="510.42" y="1460.71" width="16.58" height="179.27"/><path class="cls-7" d="M591.3,1643.44H446.11v-7.71a3.08,3.08,0,0,1,3.08-3.08H588.41a2.86,2.86,0,0,1,2.86,2.86v7.94h0Z"/><rect class="cls-7" x="418.65" y="1418.03" width="194" height="55.02" rx="18.95"/><path class="cls-7" d="M611,1608.22s47.34,34.12,39.12,57c0,0-51.79-22.35-58-40s1.06-25.38,1.06-25.38Z"/><path class="cls-20" d="M603.92,1579.63,596.18,1602a7.79,7.79,0,0,0,3,9.13,20.47,20.47,0,0,0,6.4,2.48,9.05,9.05,0,0,0,10-4.55l9.26-17.44Z"/><path class="cls-21" d="M528.6,1378.23s97.22,16.85,138.93,55.38S629.25,1595,629.25,1595s-13.11-.08-29-13.69c0,0,47.43-92.43,6.55-119.39-45.95-30.3-98.9-37.12-98.9-37.12l19.75-43.63Z"/><path class="cls-7" d="M641.92,1652.59c-10.41-4.82-39.88-25.45-44.85-26.36s-13.59,4.93-13.59,4.93-2.09,3.77.15,10.34c6.92,8.37,22.28,24.33,42.93,30.28,15.19,4.37,25.81.29,32.43-4.48A43.82,43.82,0,0,0,641.92,1652.59Z"/><path class="cls-7" d="M626.56,1671.78c-20.65-6-36-21.91-42.93-30.28,1.51,4.45,5,10.17,12.47,16.88,18.52,16.62,53.9,22.62,61.41,21.48,6-.92,5.46-6.49,1.48-12.56C652.37,1672.07,641.75,1676.15,626.56,1671.78Z"/><path class="cls-7" d="M574.65,1616.59c.12,2.87,6,12.71,9.41,18.23a8.94,8.94,0,0,0,7.57,4.23,22.72,22.72,0,0,0,6.25-.75,5.78,5.78,0,0,0,3.89-7.2h0l-6.69-22.87Z"/><path class="cls-22" d="M435,1349.05s-21.59,57.73,0,75.29,73.1,37.32,84.61,72.29,31,102.94,57.16,127c0,0,18.36-1.78,25.23-9.1,0,0-14.88-101.46-24.7-127.49-8.5-22.54-21-55.09-45-73.27-6.87-5.21-5.68-13.46-2.49-21.47l5.8-14.58Z"/><path class="cls-12" d="M660.2,1303.79c-36.2,2.19-24.92-55.65-24.27-58L581,1284.65s2.91,30.93,48.6,47.16a56.8,56.8,0,0,0,31.46,2.27A49.9,49.9,0,0,1,660.2,1303.79Z"/><path class="cls-23" d="M730.2,1286.39c-13.49-9.39-28.77,0-28.77,0-18,11.79-31.39,16.81-41.23,17.4a49.9,49.9,0,0,0,.84,30.29c20.2-4.34,34.66-19,40.94-26.47a6.55,6.55,0,0,1,9-1c2.81,2.22,5.53,5.26,5,8.45-1,6.31,6.34,8.31,6.89,6s-2.5-15.84-2.5-15.84,14.63,14.71,20.34,20.36,12.89,0,12.89,0S743.69,1295.77,730.2,1286.39Z"/><path class="cls-12" d="M491.39,1156.52s52.67-21.09,150.69,59.83c0,0,8.19,17-.75,32s-94,88.59-105.73,129.35c0,0-50.7,16.47-103.14-22.6C432.46,1355.13,437.09,1241.7,491.39,1156.52Z"/><path class="cls-24" d="M595.51,1137.7l-25.93,31.43a10.32,10.32,0,0,0-1.36,11.09c3.6,7.34,12.14,18,31.08,16.55a15.94,15.94,0,0,0,13.08-8.92l18.13-37.48Z"/><path class="cls-12" d="M450.61,1291.13c-6.11-24.9,55.82-80.41,55.82-80.41l-15-54.2s-133.74,89-99.66,160.62c4.89,10.26,11.38,17.45,18.9,22.26C421.4,1310.41,438.56,1297.12,450.61,1291.13Z"/><path class="cls-12" d="M450.57,1287.51a1.47,1.47,0,0,1-1.42-1.11c-6.26-25.46,53.71-79.57,56.26-81.86a1.48,1.48,0,1,1,2,2.18h0c-.62.55-61.22,55.21-55.38,79a1.47,1.47,0,0,1-1.07,1.77A1.7,1.7,0,0,1,450.57,1287.51Z"/><path class="cls-25" d="M544.42,1289s-73.43,28.51-91.36,7.07a12.17,12.17,0,0,1-2.45-4.93c-12.05,6-29.21,19.28-40,48.27,38.62,24.67,104.63-13.73,122.48-25.05a13.29,13.29,0,0,1,9.87-1.81c6.88,1.42,18.77,3.52,25.19,2.53,9.38-1.44,22.86,31.66,38.07,21.45C606.24,1336.52,593.21,1279,544.42,1289Z"/><path class="cls-26" d="M660.19,1101.52s.45,34.23-5.08,49.78-6.4,26.77-25.24,22.46-30-19.28-31.64-37.77c0,0-2.77-28.59,4.06-37S660.19,1101.52,660.19,1101.52Z"/><path class="cls-7" d="M608.8,1127.63l2.22.93s-1.27-22.6,8.15-22.53,44,7,55.6-1.46c11.2-8.11,11.2-24.66,4-32.3a1.27,1.27,0,0,0-1.73-.08l-1.32,1.08a1.29,1.29,0,0,1-2.1-1.15h0a1.29,1.29,0,0,0-1.12-1.44,1.3,1.3,0,0,0-.88.21c-3.52,2.5-11.52,5.6-28,2-23.35-5.1-41.35-2.34-48,12.48a1.3,1.3,0,0,1-2.26.21c-1.19-1.65-3.56-3.18-8.19-1.74-8,2.5-11.06,16.5-2.5,32.66a1.29,1.29,0,0,1-.51,1.75,1.48,1.48,0,0,1-.35.13c-3,.55-8.07,2.73-1,11.45,7.25,8.92,13,10.7,15.32,11a1.3,1.3,0,0,0,1.42-.86l4.75-13.61a1.3,1.3,0,0,1,1.64-.8l.08,0Z"/><path class="cls-27" d="M608.18,1130.63s3-20.5-7.51-18.8-4.39,22.52,2,26Z"/><path class="cls-6" d="M854.15,1675.65a6.75,6.75,0,0,0,2.55-.51,6.2,6.2,0,0,0,3.48-8l-.09-.21L724.31,1361.32a6.55,6.55,0,0,0-8.5-3.28,6.19,6.19,0,0,0-3.47,8c0,.06,0,.13.08.19L848.2,1671.86A6.47,6.47,0,0,0,854.15,1675.65Z"/><path class="cls-6" d="M701.19,1675.65a6.47,6.47,0,0,0,5.95-3.79l135.78-305.59a6.2,6.2,0,0,0-3.22-8.16l-.17-.07a6.56,6.56,0,0,0-8.51,3.28L695.24,1666.9a6.21,6.21,0,0,0,3.22,8.17l.17.07A6.8,6.8,0,0,0,701.19,1675.65Z"/><path class="cls-6" d="M433.85,1675.65a6.8,6.8,0,0,0,2.56-.51,6.21,6.21,0,0,0,3.46-8.07c0-.06-.05-.11-.07-.17L304,1361.32a6.56,6.56,0,0,0-8.51-3.28,6.2,6.2,0,0,0-3.46,8.06c0,.05,0,.11.07.17l135.8,305.59A6.47,6.47,0,0,0,433.85,1675.65Z"/><path class="cls-6" d="M280.89,1675.65a6.47,6.47,0,0,0,5.95-3.79l135.78-305.59a6.19,6.19,0,0,0-3.2-8.15l-.19-.08a6.55,6.55,0,0,0-8.5,3.28L275,1666.9a6.19,6.19,0,0,0,3.18,8.15l.21.09A6.69,6.69,0,0,0,280.89,1675.65Z"/><path class="cls-5" d="M265,1351.88a7.46,7.46,0,0,1,1.28-5.65,5.87,5.87,0,0,1,4.71-2.48h617.7a6.89,6.89,0,0,1,5.93,3.63,8.69,8.69,0,0,1,.45,7.54l-6.69,16.22a9.37,9.37,0,0,1-8.51,6.09H275.2c-3.4,0-6.32-2.7-7-6.44Z"/><path class="cls-7" d="M582,1345.21h.36l154.06-.17a6.9,6.9,0,1,0,.52-13.79h-.52l-154.07.17a6.89,6.89,0,1,0-.34,13.78Z"/><path class="cls-7" d="M875,1205.33H746.64a24.45,24.45,0,0,0-22.11,14l-59.32,125.78H824.66a14.86,14.86,0,0,0,13.82-9.4l46-116.39a10.25,10.25,0,0,0-9.48-14Z"/><g id="logo"><path class="cls-28" d="M1610.58,1141.48H1395v-42.29h215.55Zm-213.33-2.17h211.11v-38H1397.25Z"/><path class="cls-28" d="M1600.65,1105.82h-11a3.33,3.33,0,0,0-3.37,3.29h0v6.67a3.34,3.34,0,0,0,3.37,3.3h11a3.34,3.34,0,0,0,3.37-3.3v-6.67a3.33,3.33,0,0,0-3.37-3.29Zm-2.52,9.17a4,4,0,0,1-5.54,0,3.76,3.76,0,0,1-.09-5.32l.09-.09a4,4,0,0,1,5.54,0,3.79,3.79,0,0,1,.06,5.35Z"/><path class="cls-28" d="M1595.36,1109.55a2.72,2.72,0,0,0-2,.8,2.69,2.69,0,0,0-.07,3.8l.07.07a2.86,2.86,0,0,0,4,0,2.69,2.69,0,0,0,.07-3.8l-.07-.07A2.72,2.72,0,0,0,1595.36,1109.55Z"/><path class="cls-28" d="M1601.12,1122.94h-11a3.32,3.32,0,0,0-3.36,3.28h0v6.67a3.32,3.32,0,0,0,3.35,3.29h11a3.32,3.32,0,0,0,3.37-3.27v-6.69a3.32,3.32,0,0,0-3.35-3.29Zm-4.19,10.59a.5.5,0,0,1-.17.38.52.52,0,0,1-.39.17.54.54,0,0,1-.4-.17.47.47,0,0,1-.16-.38v-6h-1.12a.59.59,0,0,1-.4-.16.56.56,0,0,1,0-.78.59.59,0,0,1,.4-.16h1.68a.55.55,0,0,1,.39.16.52.52,0,0,1,.17.39Z"/><rect class="cls-28" x="1540.13" y="1122.94" width="17.75" height="13.26" rx="3.39"/><path class="cls-28" d="M1419.62,1117.86h-8.88l-1.45,3.13h-3.47l7.62-16.61h3.49l7.62,16.61h-3.5Zm-4.44-10-3.15,7.07h6.31Z"/><path class="cls-28" d="M1449.43,1109.2a3.4,3.4,0,0,1-2.2,3.2,4.06,4.06,0,0,1,2.71,3.7c0,3.7-2.84,4.89-6.35,4.89h-8.06v-16.61h8.06C1446.93,1104.38,1449.43,1105.85,1449.43,1109.2Zm-10.74,1.85h4.9c2,0,2.67-.83,2.67-1.78,0-.76-.64-2-2.67-2h-4.9Zm0,7h4.9c1.31,0,3.17-.43,3.17-2s-1.86-2.28-3.17-2.28h-4.9Z"/><path class="cls-28" d="M1474.15,1117.86h-8.88l-1.45,3.13h-3.47l7.61-16.61h3.5l7.61,16.61h-3.49Zm-4.44-10-3.15,7.07h6.3Z"/><path class="cls-28" d="M1504.37,1118.9a9.08,9.08,0,0,1-6.45,2.47c-6.31,0-9-4.25-9-8.57s2.86-8.75,9-8.75a8.89,8.89,0,0,1,6.24,2.54l-2.14,2a5.87,5.87,0,0,0-4.1-1.56,5.52,5.52,0,0,0-5.85,5.15c0,.21,0,.41,0,.61,0,2.75,1.65,5.63,5.85,5.63a6.33,6.33,0,0,0,4.27-1.69Z"/><path class="cls-28" d="M1530.72,1104.4v9.52c0,4.91-3.09,7.42-7.36,7.42-4.07,0-7.54-2.42-7.54-7.42v-9.52H1519v9.52c0,3,1.74,4.58,4.39,4.58s4.15-1.74,4.15-4.58v-9.52Z"/><path class="cls-28" d="M1554.22,1108.39a4.9,4.9,0,0,0-4-1.85c-2.38,0-3.52,1-3.52,2.2,0,1.45,1.75,1.86,3.79,2.09,3.54.43,6.84,1.33,6.84,5.29,0,3.7-3.35,5.29-7.13,5.29-3.47,0-6.14-1-7.4-4.08l2.67-1.35c.75,1.83,2.71,2.63,4.78,2.63s3.9-.68,3.9-2.49c0-1.56-1.67-2.2-3.93-2.44-3.47-.4-6.67-1.3-6.67-5,0-3.42,3.45-4.82,6.58-4.84,2.64,0,5.38.74,6.67,3.3Z"/><path class="cls-28" d="M1578.59,1105.82h-11a3.33,3.33,0,0,0-3.37,3.29h0v6.67a3.34,3.34,0,0,0,3.37,3.3h11a3.34,3.34,0,0,0,3.37-3.3v-6.67a3.33,3.33,0,0,0-3.37-3.29Zm-2.28,9.29a.55.55,0,0,1,.55.55.47.47,0,0,1-.16.38.52.52,0,0,1-.39.17h-5.6a.54.54,0,0,1-.4-.17.47.47,0,0,1-.16-.38V1114a2.11,2.11,0,0,1,.65-1.55,2.19,2.19,0,0,1,1.59-.64h2.24a1.1,1.1,0,0,0,.79-.32,1.09,1.09,0,0,0,.33-.78,1,1,0,0,0-.33-.77,1.06,1.06,0,0,0-.79-.32h-3.92a.59.59,0,0,1-.4-.16.56.56,0,0,1,0-.78.59.59,0,0,1,.4-.16h3.92a2.19,2.19,0,0,1,1.61,3.71l0,0a2.18,2.18,0,0,1-1.58.64h-2.24a1.06,1.06,0,0,0-.79.32,1.09,1.09,0,0,0-.33.78v1.09Z"/><path class="cls-28" d="M1421.77,1122.94h-11a3.33,3.33,0,0,0-3.37,3.29h0v6.67a3.33,3.33,0,0,0,3.37,3.29h11a3.33,3.33,0,0,0,3.37-3.29h0v-6.67a3.33,3.33,0,0,0-3.37-3.29Zm-6.63,9.65v.07h-.32l-.39-.06h-1.15l-.37-.06h-.86v-2.46h3.09v2.51Zm0-3.19h-3.09V1127h0l3.07-.44h0C1415.15,1126.83,1415.15,1129.35,1415.14,1129.4Zm4.48,3.8v.08l-4.11-.56v-3h4.11v3.48Zm0-3.89v.07h-4.11v-2.94h0l4.09-.6h0v3.43Z"/><path class="cls-28" d="M1533.43,1122.94H1431.56a3.33,3.33,0,0,0-3.37,3.29h0v6.67a3.33,3.33,0,0,0,3.37,3.29h101.87a3.33,3.33,0,0,0,3.37-3.29h0v-6.67a3.33,3.33,0,0,0-3.37-3.29Zm-12.17,9.33h-78.49a.63.63,0,1,1,0-1.26h78.49a.63.63,0,1,1,0,1.26Z"/><rect class="cls-28" x="1358.98" y="834.2" width="1.53" height="22.72"/><ellipse class="cls-28" cx="1371.37" cy="1046.64" rx="1.6" ry="1.57"/><ellipse class="cls-28" cx="1348.08" cy="1046.64" rx="1.6" ry="1.57"/><path class="cls-28" d="M1360.51,908.49H1359a5.49,5.49,0,0,0-5,5.39v6a5.46,5.46,0,0,0,5,5.39h1.53a5.49,5.49,0,0,0,5-5.39v-6A5.49,5.49,0,0,0,1360.51,908.49Zm2.23,11.58a3,3,0,0,1-6,0v-6.34a3,3,0,0,1,6,0Z"/><path class="cls-28" d="M1360.51,903.77v5.56H1359v-5.57a.47.47,0,0,0,.47.47h.59A.47.47,0,0,0,1360.51,903.77Z"/><path class="cls-28" d="M1360.32,923.7l-1.34.41v1.21h1.53v-1.68Z"/><path class="cls-28" d="M1378.67,825.06a8.67,8.67,0,0,1,1.16,1.26,21.93,21.93,0,0,1,3.18,13,22.4,22.4,0,0,1-3.4,10.37,1.56,1.56,0,0,1-2.11.61l0,0a1.52,1.52,0,0,1-.56-2.08l0,0a20.58,20.58,0,0,0,2.6-6.21,18.9,18.9,0,0,0-2.07-13.7l-.47-.79a1.45,1.45,0,0,1,.25-2.05,1.38,1.38,0,0,1,.48-.25l.19-.13Z"/><path class="cls-28" d="M1341.71,825.06a1.61,1.61,0,0,1,1,2.08,1.63,1.63,0,0,1-.3.51,18.74,18.74,0,0,0-1.72,16.48,35.1,35.1,0,0,0,1.94,4,1.4,1.4,0,0,1-.16,1.74,1.44,1.44,0,0,1-1.72.49,2,2,0,0,1-.8-.72,22,22,0,0,1-1.13-21.73,11.4,11.4,0,0,1,1-1.81,7.24,7.24,0,0,1,1.07-1Z"/><path class="cls-28" d="M1345.29,837.83a15.23,15.23,0,0,1,1.31-6.38,1.54,1.54,0,0,1,2-.92l.11,0a1.42,1.42,0,0,1,.82,1.83c0,.06,0,.12-.08.17a12.89,12.89,0,0,0-.05,10.45,2.25,2.25,0,0,1,0,1.45,1.19,1.19,0,0,1-1.23.77,1.61,1.61,0,0,1-1.5-1,15.1,15.1,0,0,1-1.35-5.64C1345.28,838.36,1345.29,838.09,1345.29,837.83Z"/><path class="cls-28" d="M1374.23,837.6a15.54,15.54,0,0,1-1.35,6.55,1.5,1.5,0,0,1-1.91.93,2,2,0,0,1-.38-.2,1.36,1.36,0,0,1-.51-1.87l0,0a12.55,12.55,0,0,0,1.1-5.43,13.65,13.65,0,0,0-1.1-4.95,1.48,1.48,0,0,1,1.6-2.18,1.41,1.41,0,0,1,1.18,1A15.23,15.23,0,0,1,1374.23,837.6Z"/><path class="cls-28" d="M1337.78,1093.54v42.65a5.35,5.35,0,0,0,5.41,5.29h33.4a5.35,5.35,0,0,0,5.39-5.29v-42.65Zm18.08,31.45H1343v-7.48h12.82Zm21.32,0h-12.81v-7.48h12.81Z"/><path class="cls-28" d="M1472,1023.8"/><path class="cls-28" d="M1503.46,1083.29a67.76,67.76,0,0,1-31.45-57v-.13h.1a67.2,67.2,0,0,0,13.59,40.57l4.61,5.54A70.06,70.06,0,0,0,1503.46,1083.29Z"/><path class="cls-28" d="M1515.53,1089.41v.1a69,69,0,0,1-10-4.89l.09-.07Z"/><path class="cls-28" d="M1544.26,1094.48h-2.46a71.14,71.14,0,0,1-8.63-.52v-.08l11,.52Z"/><path class="cls-28" d="M1594.62,1070.87a70.16,70.16,0,0,1-47.43,23.45,72,72,0,0,0,17.29-3.67l6.41-2.54a71.74,71.74,0,0,0,18.26-11.84l4.34-4.29Z"/><path class="cls-28" d="M1472,1020.39v5.75q0-2.76.24-5.46A.33.33,0,0,1,1472,1020.39Zm43.51,69.12v.06a70.39,70.39,0,0,0,14.59,4.13q1.5.24,3,.42l.06-.12a69.64,69.64,0,0,1-17.63-4.49Zm28.73,5h0c1,0,2-.11,2.92-.2-1,.08-1.92.13-2.9.17Z"/><path class="cls-28" d="M1607.43,1049.52l1.54-4,12.4-.72a78.42,78.42,0,0,0,2.07-12.55L1612,1028l-.63-10.78,11-5.58a77.72,77.72,0,0,0-3.4-12.54l-12.84.68-5.05-9.6,8.05-9.85a80.89,80.89,0,0,0-8-9.53l-11.44,5.72-8.62-6.76,3.25-12.18a82.31,82.31,0,0,0-11.21-5.56l-8.08,9.79-10.68-2.76-2.11-12.45a84.29,84.29,0,0,0-13-.58l-3.1,11.42-10.9,1.73-6.65-9.86a82.28,82.28,0,0,0-12.33,4.68l1.91,11.67-9.23,5.92-2.63-1.65,42.5-90.93c6.7-14.35-5.11-30.18-22.52-30.18h-31c-7.34,0-13.3,5.31-13.3,11.88V982.94h-12.72a5.77,5.77,0,0,0-10.89,0h-12.87V931c0-40.68-33.52-73.7-75-74.1v46.93a21.83,21.83,0,0,1,21.34,21.59V930h-21.6a.25.25,0,0,0,.26-.24h0v-4.39H1359v4.39a.25.25,0,0,0,.25.25h-21.59v-4.51A21.83,21.83,0,0,1,1359,903.86V856.93c-41.5.4-75,33.42-75,74.1v126.39c0,19.95,16.54,36.12,36.94,36.12h16.74v-35.31h44.21v35.31h16.74c20.4,0,36.94-16.17,36.94-36.12v-71h12.87a5.72,5.72,0,0,0,3.66,3.58v109.56h3.56V990a5.67,5.67,0,0,0,3.67-3.58H1472v34h0a.33.33,0,0,0,.23.29q-.24,2.7-.24,5.46h.1a67.2,67.2,0,0,0,13.59,40.57l4.61,5.54a70,70,0,0,0,13.15,11c.61.4,1.22.79,1.85,1.16l.25.16h0l.09-.07,9.86,4.86v.1a69.82,69.82,0,0,0,17.64,4.49v-.08l11,.52h0c1,0,2-.09,2.93-.16a72,72,0,0,0,17.29-3.67l6.41-2.54a71.74,71.74,0,0,0,18.26-11.84l4.34-4.29,1.13-1.11.37-.36,11.61,4.26a80.05,80.05,0,0,0,7.13-10.65l-8.68-8.45,1.67-4.3Zm-83.6-194.29c3.27,0,5.92,2.36,5.92,5.27v5.62h-5.92Zm-9.26,0h5.92v10.89h-5.92Zm-8.94,0h5.91v10.89h-5.91Zm-9.18,0h5.92v10.89h-5.92Zm-132.16,6.62a.89.89,0,1,1,.92-.89.89.89,0,0,1-.92.89Zm5.23,4.18a1.76,1.76,0,1,1,1.79-1.75,1.76,1.76,0,0,1-1.79,1.75Zm-20.68-3.81a1.91,1.91,0,1,1-1.95,1.91,1.91,1.91,0,0,1,1.95-1.91Zm-11.2,194.4a21,21,0,0,1,2.93-10.76,21.85,21.85,0,0,1,7.73-7.73l-5-8.56a.37.37,0,0,1,.12-.52l0,0a.41.41,0,0,1,.56.14l5,8.56a22.18,22.18,0,0,1,10.72-2.72,22.5,22.5,0,0,1,5.6.7,22,22,0,0,1,5.06,2l5-8.55a.42.42,0,0,1,.56-.15.39.39,0,0,1,.16.53v0l-5,8.55a21.52,21.52,0,0,1,10.74,18.54Zm44.21-103.8a21.88,21.88,0,0,1-22.11,21.62,22.24,22.24,0,0,1-15.62-6.33,21.29,21.29,0,0,1-6.48-15.29V931.46h44.21Zm101.92-86.7h-5.92V860.5c0-2.91,2.65-5.27,5.92-5.27Zm58.28,100.8a8.61,8.61,0,1,1-8.8,8.6A8.71,8.71,0,0,1,1542.05,966.92Zm-11.26,13.83a12.58,12.58,0,0,0,22.5,0,48.38,48.38,0,0,1,12.59,4.94,47.12,47.12,0,0,1,16.08,14.8l-13.93,7.88a31.39,31.39,0,0,0-10.16-9.09,32.25,32.25,0,0,0-41.95,9.13l-13.92-7.86A47.78,47.78,0,0,1,1530.79,980.75Zm13.82,25.85v14a2.51,2.51,0,0,1-5,0v-14a2.51,2.51,0,0,1,5,0ZM1487.1,855.23h5.9v10.89h-5.92Zm15,202.8a8.91,8.91,0,0,1-12-3.15,8.51,8.51,0,0,1,3-11.65l.19-.11a8.92,8.92,0,0,1,12,3.15,8.52,8.52,0,0,1-3,11.65l-.15.08Zm5.85-.54a12,12,0,0,0,.54-13,12.52,12.52,0,0,0-11.76-6,45.8,45.8,0,0,1,3.14-34.16l13.93,7.86a30.58,30.58,0,0,0-3,13.16c0,16.26,12.79,29.6,29.06,31V1072a48.18,48.18,0,0,1-31.86-14.51Zm34.1-13.63a18.24,18.24,0,0,1-18.23-17.36,17.75,17.75,0,0,1,7.08-14.81,2.71,2.71,0,0,1,3.81.5,2.61,2.61,0,0,1,.19.27l.11.19a2.57,2.57,0,0,1-.69,3.39,12.4,12.4,0,0,0-4.9,9.85,12.79,12.79,0,0,0,25.58.09,12.42,12.42,0,0,0-4.9-9.94,2.58,2.58,0,0,1-.7-3.39l.12-.19a2.73,2.73,0,0,1,3.75-.93l.25.17a17.77,17.77,0,0,1,7.09,14.18,18.18,18.18,0,0,1-18.4,18h-.16Zm23.35,21.82a48.2,48.2,0,0,1-21.16,6.21v-15.73a32.06,32.06,0,0,0,13.14-4.06,30.76,30.76,0,0,0,12.88-40.09l13.93-7.87a45.78,45.78,0,0,1,3.14,34.3,12.53,12.53,0,0,0-11.78,6,12,12,0,0,0,.53,13,47.6,47.6,0,0,1-10.65,8.24Zm28.54-10.79a8.9,8.9,0,0,1-12,3.14,8.48,8.48,0,0,1-3.34-11.53l.12-.22a8.91,8.91,0,0,1,12-3.15,8.5,8.5,0,0,1,3.41,11.53l-.13.23Z"/><ellipse class="cls-28" cx="1359.74" cy="837.76" rx="4.42" ry="4.33"/><path class="cls-28" d="M1579.4,1122.36h-11.88a3.6,3.6,0,0,0-3.63,3.56v7.2a3.59,3.59,0,0,0,3.63,3.55h11.88a3.61,3.61,0,0,0,3.64-3.55v-7.2a3.6,3.6,0,0,0-3.64-3.56Zm-2.46,10a.6.6,0,0,1,.42.18.52.52,0,0,1,.18.41.56.56,0,0,1-.18.42.59.59,0,0,1-.42.17h-6a.6.6,0,0,1-.61-.59h0v-1.77a2.24,2.24,0,0,1,.71-1.67,2.37,2.37,0,0,1,1.71-.69h2.41a1.21,1.21,0,0,0,.86-.35,1.17,1.17,0,0,0,0-1.65l0,0a1.21,1.21,0,0,0-.86-.35h-4.22a.54.54,0,0,1-.43-.17.56.56,0,0,1-.18-.42.52.52,0,0,1,.18-.41.58.58,0,0,1,.43-.18h4.22a2.37,2.37,0,0,1,1.71.69,2.32,2.32,0,0,1,.06,3.29l-.06.06a2.37,2.37,0,0,1-1.71.69h-2.41a1.16,1.16,0,0,0-.86.34,1.15,1.15,0,0,0-.35.84v1.18Z"/></g><path class="cls-7" d="M1592.06,1119.53a5,5,0,0,0,0-7.07l-.24-.23L1332.7,881a2.41,2.41,0,0,0-2.65-.38h0a2.42,2.42,0,0,0-1.17,3.22,2.45,2.45,0,0,0,.58.78l255.78,235a5,5,0,0,0,6.82-.1Z"/><path class="cls-7" d="M1744.78,1688.8a4.15,4.15,0,0,1,.12-1.11c5.54-22,33.07-35.69,33.07-35.69l10.91.86c6.28,19.38,5.47,31.27,4.46,36.56a3.15,3.15,0,0,1-.11.44A259.72,259.72,0,0,1,1744.78,1688.8Z"/><path class="cls-7" d="M1793.23,1689.86a4.71,4.71,0,0,1-3.46,3.49c-12.8,2.69-33.15.53-41.69-.59a4,4,0,0,1-3.3-4A259.73,259.73,0,0,0,1793.23,1689.86Z"/><path class="cls-29" d="M1836.43,1299.5c6.74,7.19,16.66,13.4,23.65,17.28-10.43,12.89-24.54,25.79-43.22,38.42l-5.34,12-17.13-20.53S1825.12,1331.38,1836.43,1299.5Z"/><path class="cls-30" d="M1793.27,1636.61l-4.62,22.24a3.63,3.63,0,0,1-3.11,3,30.62,30.62,0,0,1-7.16-.11,4.56,4.56,0,0,1-3.62-5.35v0l3.21-19.75Z"/><path class="cls-6" d="M1697.53,1689.63c12-.34,18.28-1.75,21.51-3.07v3.68a2.38,2.38,0,0,1-2.27,2.42l-66.16-.43c-2.11,0-3.34-2.46-2.43-4.4C1656.81,1688.55,1678.91,1690.15,1697.53,1689.63Z"/><path class="cls-7" d="M1648.14,1687.83a3.4,3.4,0,0,1,.26-.5c5.84-8.16,20.73-24.42,50.13-31.47l14.11-.44s6.28,10.92,6.4,31.14c-3.23,1.32-9.46,2.73-21.51,3.07C1678.91,1690.15,1656.81,1688.55,1648.14,1687.83Z"/><path class="cls-31" d="M1715.25,1634c-.15,1-2.09,17-2.84,23.23a3.06,3.06,0,0,1-2.59,2.77,32.06,32.06,0,0,1-9.68-.15,4.17,4.17,0,0,1-3.17-4.19v-25.08Z"/><path class="cls-6" d="M1726.57,1342.4s-34,129.3-33.41,292a6.29,6.29,0,0,0,5,6.14,72.8,72.8,0,0,0,15.77,1.82,5.85,5.85,0,0,0,5.57-4.88c4.77-28,32.15-185.58,47.75-211.17,0,0,10.26,140.38,7,213.2a3.45,3.45,0,0,0,3,3.59,57.1,57.1,0,0,0,12.67,0,4.59,4.59,0,0,0,4.11-3.92c3.4-23.67,23-164.61,22.13-266.13,0-5.73-15.14-30.62-15.14-30.62Z"/><path class="cls-12" d="M1674.39,1168.25c6-15.23,16-25.66,26.12-37.7,37.87,6.86,100,13,125.85,16.25a33,33,0,0,1,20.8,11.17c21.12,24.45,67.47,91.37,12.92,158.81-7-3.88-16.91-10.09-23.65-17.28,6-17,6.53-38.76-6.12-65.43a61.3,61.3,0,0,1-1.61,6.27c-17.44,55.23-18.37,101.2-18.33,111.79a3.5,3.5,0,0,1-2.19,3.27c-23,9.2-67.12,3.72-82,1.51a5,5,0,0,1-4.17-5.66c7.28-52.72-30.07-139.44-39.93-161.17a14.39,14.39,0,0,0-7.17-7.17q-2.39-1.08-4.7-2.2C1671.44,1176.51,1672.79,1172.35,1674.39,1168.25Z"/><path class="cls-32" d="M1786.7,1096.08l2.7,47.14a2.88,2.88,0,0,1-2.18,3c-6,1.51-22.51,4.51-36.9-3.68a4.67,4.67,0,0,1-2.14-5.36l12-42.35Z"/><path class="cls-33" d="M1757.2,1044.59c-.61.57-25.82,50.07-25.82,50.07l28.57,13.79,30.86-43.36S1767.44,1034.94,1757.2,1044.59Z"/><path class="cls-7" d="M1778.17,1066.29a4.55,4.55,0,0,1-.34,4L1763.58,1094a4.21,4.21,0,0,1-.78,1c-1.7,1.58-7.5,6.18-12-.08-3.82-5.33-7.41-10.17-11.25-12.17a4.56,4.56,0,0,0-6.14,2v0a168.77,168.77,0,0,0-9.75,23.13,4.52,4.52,0,0,0,2.64,5.56c5.78,2.34,17.22,6.58,27.36,8a4.56,4.56,0,0,0,4.31-1.83c4.37-6,16.67-22.69,20.87-26.87,3.9-3.89,11.1-2.42,14.34-1.49a4.6,4.6,0,0,0,3.64-.48c3.29-2,9-6.92,3.78-15.28a4.56,4.56,0,0,1,1.41-6.19c3.68-2.42,7.67-7,3.87-14.31s-10.72-8.1-15.39-7.53a4.74,4.74,0,0,1-5-2.76,3,3,0,0,0-2.35-1.85,4.42,4.42,0,0,1-3.59-5.13v-.07c.82-4.21.2-9.68-6.52-13.37-12.32-6.78-23.12,4.26-25.87,13.59s11,15.91,19.71,17C1773.28,1055.7,1776.77,1062.65,1778.17,1066.29Z"/><path class="cls-34" d="M1773.49,1101.48s5.48-16,12.49-15.45,12.54,7.58,3.85,15.44C1779,1111.24,1773.49,1101.48,1773.49,1101.48Z"/><path class="cls-35" d="M1768.5,1423a1.27,1.27,0,0,0,1.24-1c2.82-10.88,24-22.84,24.16-23a1.29,1.29,0,0,0-1.06-2.35l-.2.11c-.9.51-22.29,12.62-25.39,24.55a1.3,1.3,0,0,0,.92,1.57A.93.93,0,0,0,1768.5,1423Z"/><path class="cls-12" d="M1587.75,1145.17c36,13.16,112.76-14.62,112.76-14.62l5.28,62.7c-61.46,19.43-101.45,13.77-127.45-2.53C1576.72,1172.18,1582.29,1156.05,1587.75,1145.17Z"/><path class="cls-36" d="M1530.41,1080.46l15.07-3s4.11,48,37.68,65.69a36.62,36.62,0,0,0,4.59,2c-5.46,10.88-11,27-9.41,45.55C1525.49,1157.58,1530.41,1080.46,1530.41,1080.46Z"/><path class="cls-37" d="M1544.72,1081.65l.76-4.18s3.15-10.21-5.17-20.26c-12-14.53-20.82-9.18-20.82-9.18a31.13,31.13,0,0,1,.58,5.86,2.58,2.58,0,0,1-2.63,2.52,2.55,2.55,0,0,1-1.7-.68l-19.62-18s-5.49,28.63,36.58,48.3Z"/></svg>